<?xml version="1.0" encoding="UTF-8" standalone="no"?>
<!DOCTYPE svg PUBLIC "-//W3C//DTD SVG 1.1//EN"
 "http://www.w3.org/Graphics/SVG/1.1/DTD/svg11.dtd">
<!-- Generated by graphviz version 12.2.1 (20241206.2353)
 -->
<!-- Title: qEmotiBitPacket::PayloadLabel Pages: 1 -->
<svg width="184pt" height="200pt"
 viewBox="0.00 0.00 183.50 200.00" xmlns="http://www.w3.org/2000/svg" xmlns:xlink="http://www.w3.org/1999/xlink">
<g id="graph0" class="graph" transform="scale(1 1) rotate(0) translate(4 196)">
<title>qEmotiBitPacket::PayloadLabel</title>
<!-- Node1 -->
<g id="Node000001" class="node">
<title>Node1</title>
<g id="a_Node000001"><a xlink:title=" ">
<polygon fill="#999999" stroke="none" points="175.5,-192 0,-192 0,0 175.5,0 175.5,-192"/>
<text text-anchor="start" x="30.38" y="-178.5" font-family="Helvetica,sans-Serif" font-size="10.00">qEmotiBitPacket::Payload</text>
<text text-anchor="start" x="76.12" y="-166.5" font-family="Helvetica,sans-Serif" font-size="10.00">Label</text>
<text text-anchor="start" x="4" y="-150.5" font-family="Helvetica,sans-Serif" font-size="10.00">+</text>
<text text-anchor="start" x="14" y="-150.5" font-family="Helvetica,sans-Serif" font-size="10.00">CONTROL_PORT</text>
<text text-anchor="start" x="4" y="-134.5" font-family="Helvetica,sans-Serif" font-size="10.00">+</text>
<text text-anchor="start" x="14" y="-134.5" font-family="Helvetica,sans-Serif" font-size="10.00">DATA_PORT</text>
<text text-anchor="start" x="4" y="-118.5" font-family="Helvetica,sans-Serif" font-size="10.00">+</text>
<text text-anchor="start" x="14" y="-118.5" font-family="Helvetica,sans-Serif" font-size="10.00">DEVICE_ID</text>
<text text-anchor="start" x="4" y="-102.5" font-family="Helvetica,sans-Serif" font-size="10.00">+</text>
<text text-anchor="start" x="14" y="-102.5" font-family="Helvetica,sans-Serif" font-size="10.00">RECORDING_STATUS</text>
<text text-anchor="start" x="4" y="-86.5" font-family="Helvetica,sans-Serif" font-size="10.00">+</text>
<text text-anchor="start" x="14" y="-86.5" font-family="Helvetica,sans-Serif" font-size="10.00">POWER_STATUS</text>
<text text-anchor="start" x="4" y="-70.5" font-family="Helvetica,sans-Serif" font-size="10.00">+</text>
<text text-anchor="start" x="14" y="-70.5" font-family="Helvetica,sans-Serif" font-size="10.00">LSL_MARKER_RX_TIMESTAMP</text>
<text text-anchor="start" x="4" y="-54.5" font-family="Helvetica,sans-Serif" font-size="10.00">+</text>
<text text-anchor="start" x="14" y="-54.5" font-family="Helvetica,sans-Serif" font-size="10.00">LSL_MARKER_SRC_TIMESTAMP</text>
<text text-anchor="start" x="4" y="-38.5" font-family="Helvetica,sans-Serif" font-size="10.00">+</text>
<text text-anchor="start" x="14" y="-38.5" font-family="Helvetica,sans-Serif" font-size="10.00">LSL_LOCAL_CLOCK_TIMESTAMP</text>
<text text-anchor="start" x="4" y="-22.5" font-family="Helvetica,sans-Serif" font-size="10.00">+</text>
<text text-anchor="start" x="14" y="-22.5" font-family="Helvetica,sans-Serif" font-size="10.00">LSL_MARKER_DATA</text>
<text text-anchor="start" x="86.25" y="-6.5" font-family="Helvetica,sans-Serif" font-size="10.00"> </text>
<polygon fill="#666666" stroke="#666666" points="0,-162 0,-162 175.5,-162 175.5,-162 0,-162"/>
<polygon fill="#666666" stroke="#666666" points="0,-18 0,-18 12,-18 12,-18 0,-18"/>
<polygon fill="#666666" stroke="#666666" points="12,-18 12,-18 175.5,-18 175.5,-18 12,-18"/>
<polygon fill="none" stroke="#666666" points="0,0 0,-192 175.5,-192 175.5,0 0,0"/>
</a>
</g>
</g>
</g>
</svg>
