<?xml version="1.0" encoding="UTF-8" standalone="no"?>
<!DOCTYPE svg PUBLIC "-//W3C//DTD SVG 1.1//EN"
 "http://www.w3.org/Graphics/SVG/1.1/DTD/svg11.dtd">
<!-- Generated by graphviz version 12.2.1 (20241206.2353)
 -->
<!-- Title: qEmotiBitPacket::EmotibitInfo Pages: 1 -->
<svg width="148pt" height="92pt"
 viewBox="0.00 0.00 148.00 92.00" xmlns="http://www.w3.org/2000/svg" xmlns:xlink="http://www.w3.org/1999/xlink">
<g id="graph0" class="graph" transform="scale(1 1) rotate(0) translate(4 88)">
<title>qEmotiBitPacket::EmotibitInfo</title>
<!-- Node1 -->
<g id="Node000001" class="node">
<title>Node1</title>
<g id="a_Node000001"><a xlink:title=" ">
<polygon fill="#999999" stroke="none" points="140,-84 0,-84 0,0 140,0 140,-84"/>
<text text-anchor="start" x="4" y="-70.5" font-family="Helvetica,sans-Serif" font-size="10.00">qEmotiBitPacket::EmotibitInfo</text>
<text text-anchor="start" x="19.88" y="-54.5" font-family="Helvetica,sans-Serif" font-size="10.00">+</text>
<text text-anchor="start" x="45.75" y="-54.5" font-family="Helvetica,sans-Serif" font-size="10.00">ip</text>
<text text-anchor="start" x="19.88" y="-38.5" font-family="Helvetica,sans-Serif" font-size="10.00">+</text>
<text text-anchor="start" x="45.75" y="-38.5" font-family="Helvetica,sans-Serif" font-size="10.00">isAvailable</text>
<text text-anchor="start" x="19.88" y="-22.5" font-family="Helvetica,sans-Serif" font-size="10.00">+</text>
<text text-anchor="start" x="45.75" y="-22.5" font-family="Helvetica,sans-Serif" font-size="10.00">lastSeen</text>
<text text-anchor="start" x="19.88" y="-6.5" font-family="Helvetica,sans-Serif" font-size="10.00">+</text>
<text text-anchor="start" x="45.75" y="-6.5" font-family="Helvetica,sans-Serif" font-size="10.00">EmotibitInfo()</text>
<polygon fill="#666666" stroke="#666666" points="0,-66 0,-66 140,-66 140,-66 0,-66"/>
<polygon fill="#666666" stroke="#666666" points="0,-18 0,-18 43.75,-18 43.75,-18 0,-18"/>
<polygon fill="#666666" stroke="#666666" points="43.75,-18 43.75,-18 140,-18 140,-18 43.75,-18"/>
<polygon fill="none" stroke="#666666" points="0,0 0,-84 140,-84 140,0 0,0"/>
</a>
</g>
</g>
</g>
</svg>
