<?xml version="1.0" encoding="UTF-8" standalone="no"?>
<!DOCTYPE svg PUBLIC "-//W3C//DTD SVG 1.1//EN"
 "http://www.w3.org/Graphics/SVG/1.1/DTD/svg11.dtd">
<!-- Generated by graphviz version 12.2.1 (20241206.2353)
 -->
<!-- Title: EmotiBitEmulator::messageLogged Pages: 1 -->
<svg width="344pt" height="222pt"
 viewBox="0.00 0.00 343.75 222.00" xmlns="http://www.w3.org/2000/svg" xmlns:xlink="http://www.w3.org/1999/xlink">

<svg id="main" version="1.1" xmlns="http://www.w3.org/2000/svg" xmlns:xlink="http://www.w3.org/1999/xlink" xml:space="preserve">

<style type="text/css"><![CDATA[
.node, .edge {opacity: 0.7;}
.node.selected, .edge.selected {opacity: 1;}
.edge:hover path { stroke: red; }
.edge:hover polygon { stroke: red; fill: red; }
]]></style>
<script type="application/ecmascript" xlink:href="svg.min.js"/>
<svg id="graph" class="graph">
<g id="graph0" class="graph" transform="scale(1 1) rotate(0) translate(4 218)">
<title>EmotiBitEmulator::messageLogged</title>
<!-- Node1 -->
<g id="Node000001" class="node">
<title>Node1</title>
<g id="a_Node000001"><a xlink:title=" ">
<polygon fill="#999999" stroke="#666666" points="335.75,-114 197.5,-114 197.5,-82 335.75,-82 335.75,-114"/>
<text text-anchor="start" x="205.5" y="-100.5" font-family="Helvetica,sans-Serif" font-size="10.00">EmotiBitEmulator::message</text>
<text text-anchor="middle" x="266.62" y="-88.5" font-family="Helvetica,sans-Serif" font-size="10.00">Logged</text>
</a>
</g>
</g>
<!-- Node2 -->
<g id="Node000002" class="node">
<title>Node2</title>
<g id="a_Node000002"><a xlink:href="class_emoti_bit_emulator.html#a1c549b459b17e6e553443ae0381ef61b" target="_top" xlink:title=" ">
<polygon fill="white" stroke="#666666" points="148.75,-214 12.75,-214 12.75,-182 148.75,-182 148.75,-214"/>
<text text-anchor="start" x="20.75" y="-200.5" font-family="Helvetica,sans-Serif" font-size="10.00">EmotiBitEmulator::EmotiBit</text>
<text text-anchor="middle" x="80.75" y="-188.5" font-family="Helvetica,sans-Serif" font-size="10.00">Emulator</text>
</a>
</g>
</g>
<!-- Node1&#45;&gt;Node2 -->
<g id="edge1_Node000001_Node000002" class="edge">
<title>Node1&#45;&gt;Node2</title>
<g id="a_edge1_Node000001_Node000002"><a xlink:title=" ">
<path fill="none" stroke="#63b8ff" d="M238.25,-121.48C218.12,-137.77 189.49,-158.99 161.5,-173 155.14,-176.18 148.3,-179.06 141.38,-181.64"/>
<polygon fill="#63b8ff" stroke="#63b8ff" points="240.21,-124.4 245.7,-115.34 235.76,-118.99 240.21,-124.4"/>
</a>
</g>
</g>
<!-- Node3 -->
<g id="Node000003" class="node">
<title>Node3</title>
<g id="a_Node000003"><a xlink:href="class_main_window.html#a996c5a2b6f77944776856f08ec30858d" target="_top" xlink:title=" ">
<polygon fill="white" stroke="#666666" points="148,-146 13.5,-146 13.5,-126 148,-126 148,-146"/>
<text text-anchor="middle" x="80.75" y="-132.5" font-family="Helvetica,sans-Serif" font-size="10.00">MainWindow::MainWindow</text>
</a>
</g>
</g>
<!-- Node1&#45;&gt;Node3 -->
<g id="edge2_Node000001_Node000003" class="edge">
<title>Node1&#45;&gt;Node3</title>
<g id="a_edge2_Node000001_Node000003"><a xlink:title=" ">
<path fill="none" stroke="#63b8ff" d="M185.96,-114.46C167.81,-118.21 149.01,-122.1 132.46,-125.52"/>
<polygon fill="#63b8ff" stroke="#63b8ff" points="186.59,-117.91 195.67,-112.46 185.17,-111.05 186.59,-117.91"/>
</a>
</g>
</g>
<!-- Node4 -->
<g id="Node000004" class="node">
<title>Node4</title>
<g id="a_Node000004"><a xlink:href="class_emoti_bit_emulator.html#ac35ac755b05a3b4f5b9b405030be14d6" target="_top" xlink:title=" ">
<polygon fill="white" stroke="#666666" points="161.5,-108 0,-108 0,-88 161.5,-88 161.5,-108"/>
<text text-anchor="middle" x="80.75" y="-94.5" font-family="Helvetica,sans-Serif" font-size="10.00">EmotiBitEmulator::startEmulation</text>
</a>
</g>
</g>
<!-- Node1&#45;&gt;Node4 -->
<g id="edge4_Node000001_Node000004" class="edge">
<title>Node1&#45;&gt;Node4</title>
<g id="a_edge4_Node000001_Node000004"><a xlink:title=" ">
<path fill="none" stroke="#63b8ff" d="M185.66,-98C177.73,-98 169.68,-98 161.75,-98"/>
<polygon fill="#63b8ff" stroke="#63b8ff" points="185.64,-101.5 195.64,-98 185.64,-94.5 185.64,-101.5"/>
</a>
</g>
</g>
<!-- Node5 -->
<g id="Node000005" class="node">
<title>Node5</title>
<g id="a_Node000005"><a xlink:href="class_emoti_bit_emulator.html#a72f7c1f062270901f0568d595f60e257" target="_top" xlink:title=" ">
<polygon fill="white" stroke="#666666" points="161.12,-70 0.38,-70 0.38,-50 161.12,-50 161.12,-70"/>
<text text-anchor="middle" x="80.75" y="-56.5" font-family="Helvetica,sans-Serif" font-size="10.00">EmotiBitEmulator::stopEmulation</text>
</a>
</g>
</g>
<!-- Node1&#45;&gt;Node5 -->
<g id="edge5_Node000001_Node000005" class="edge">
<title>Node1&#45;&gt;Node5</title>
<g id="a_edge5_Node000001_Node000005"><a xlink:title=" ">
<path fill="none" stroke="#63b8ff" d="M185.96,-81.54C167.81,-77.79 149.01,-73.9 132.46,-70.48"/>
<polygon fill="#63b8ff" stroke="#63b8ff" points="185.17,-84.95 195.67,-83.54 186.59,-78.09 185.17,-84.95"/>
</a>
</g>
</g>
<!-- Node6 -->
<g id="Node000006" class="node">
<title>Node6</title>
<g id="a_Node000006"><a xlink:href="class_emoti_bit_emulator.html#a4f6f3e6ef880dfb2f224f85999d733f6" target="_top" xlink:title=" ">
<polygon fill="white" stroke="#666666" points="130,-32 31.5,-32 31.5,0 130,0 130,-32"/>
<text text-anchor="start" x="39.5" y="-18.5" font-family="Helvetica,sans-Serif" font-size="10.00">EmotiBitEmulator::</text>
<text text-anchor="middle" x="80.75" y="-6.5" font-family="Helvetica,sans-Serif" font-size="10.00">~EmotiBitEmulator</text>
</a>
</g>
</g>
<!-- Node1&#45;&gt;Node6 -->
<g id="edge6_Node000001_Node000006" class="edge">
<title>Node1&#45;&gt;Node6</title>
<g id="a_edge6_Node000001_Node000006"><a xlink:title=" ">
<path fill="none" stroke="#63b8ff" d="M229.63,-76C209.97,-64.58 184.92,-50.96 161.5,-41 151.62,-36.8 140.79,-32.93 130.38,-29.57"/>
<polygon fill="#63b8ff" stroke="#63b8ff" points="227.68,-78.92 238.08,-80.98 231.24,-72.89 227.68,-78.92"/>
</a>
</g>
</g>
<!-- Node3&#45;&gt;Node3 -->
<g id="edge3_Node000003_Node000003" class="edge">
<title>Node3&#45;&gt;Node3</title>
<g id="a_edge3_Node000003_Node000003"><a xlink:title=" ">
<path fill="none" stroke="#63b8ff" d="M113.95,-157.11C109.99,-161.14 98.92,-164 80.75,-164 48.44,-164 38.6,-154.98 51.22,-146.34"/>
<polygon fill="#63b8ff" stroke="#63b8ff" points="117.31,-156.11 110.77,-147.77 110.68,-158.37 117.31,-156.11"/>
</a>
</g>
</g>
</g>
</svg>
</svg>

<style type='text/css'>
<![CDATA[
[data-mouse-over-selected='false'] { opacity: 0.7; }
[data-mouse-over-selected='true']  { opacity: 1.0; }
]]>
</style>
<script type="application/ecmascript"><![CDATA[
document.addEventListener('DOMContentLoaded', (event) => {
  highlightEdges();
  highlightAdjacentNodes();
});
]]></script>
</svg>
