<?xml version="1.0" encoding="UTF-8" standalone="no"?>
<!DOCTYPE svg PUBLIC "-//W3C//DTD SVG 1.1//EN"
 "http://www.w3.org/Graphics/SVG/1.1/DTD/svg11.dtd">
<!-- Generated by graphviz version 12.2.1 (20241206.2353)
 -->
<!-- Title: MainWindow Pages: 1 -->
<svg width="88pt" height="148pt"
 viewBox="0.00 0.00 88.25 148.00" xmlns="http://www.w3.org/2000/svg" xmlns:xlink="http://www.w3.org/1999/xlink">
<g id="graph0" class="graph" transform="scale(1 1) rotate(0) translate(4 144)">
<title>MainWindow</title>
<!-- Node1 -->
<g id="Node000001" class="node">
<title>Node1</title>
<g id="a_Node000001"><a xlink:title=" ">
<polygon fill="#999999" stroke="none" points="80.25,-52 0,-52 0,0 80.25,0 80.25,-52"/>
<text text-anchor="start" x="12" y="-38.5" font-family="Helvetica,sans-Serif" font-size="10.00">MainWindow</text>
<text text-anchor="start" x="38.62" y="-22.5" font-family="Helvetica,sans-Serif" font-size="10.00"> </text>
<text text-anchor="start" x="4" y="-6.5" font-family="Helvetica,sans-Serif" font-size="10.00">+</text>
<text text-anchor="start" x="14" y="-6.5" font-family="Helvetica,sans-Serif" font-size="10.00">MainWindow()</text>
<polygon fill="#666666" stroke="#666666" points="0,-34 0,-34 80.25,-34 80.25,-34 0,-34"/>
<polygon fill="#666666" stroke="#666666" points="0,-18 0,-18 80.25,-18 80.25,-18 0,-18"/>
<polygon fill="none" stroke="#666666" points="0,0 0,-52 80.25,-52 80.25,0 0,0"/>
</a>
</g>
</g>
<!-- Node2 -->
<g id="Node000002" class="node">
<title>Node2</title>
<g id="a_Node000002"><a xlink:title=" ">
<polygon fill="white" stroke="none" points="76,-140 4.25,-140 4.25,-88 76,-88 76,-140"/>
<text text-anchor="start" x="8.25" y="-126.5" font-family="Helvetica,sans-Serif" font-size="10.00">QMainWindow</text>
<text text-anchor="start" x="38.62" y="-110.5" font-family="Helvetica,sans-Serif" font-size="10.00"> </text>
<text text-anchor="start" x="38.62" y="-94.5" font-family="Helvetica,sans-Serif" font-size="10.00"> </text>
<polygon fill="#666666" stroke="#666666" points="4.25,-122 4.25,-122 76,-122 76,-122 4.25,-122"/>
<polygon fill="#666666" stroke="#666666" points="4.25,-106 4.25,-106 76,-106 76,-106 4.25,-106"/>
<polygon fill="none" stroke="#666666" points="4.25,-88 4.25,-140 76,-140 76,-88 4.25,-88"/>
</a>
</g>
</g>
<!-- Node2&#45;&gt;Node1 -->
<g id="edge1_Node000001_Node000002" class="edge">
<title>Node2&#45;&gt;Node1</title>
<g id="a_edge1_Node000001_Node000002"><a xlink:title=" ">
<path fill="none" stroke="#63b8ff" d="M40.12,-76.66C40.12,-68.29 40.12,-59.57 40.12,-51.82"/>
<polygon fill="none" stroke="#63b8ff" points="36.63,-76.61 40.13,-86.61 43.63,-76.61 36.63,-76.61"/>
</a>
</g>
</g>
</g>
</svg>
