<?xml version="1.0" encoding="UTF-8" standalone="no"?>
<!DOCTYPE svg PUBLIC "-//W3C//DTD SVG 1.1//EN"
 "http://www.w3.org/Graphics/SVG/1.1/DTD/svg11.dtd">
<!-- Generated by graphviz version 12.2.1 (20241206.2353)
 -->
<!-- Title: qEmotiBitPacket::createPacket Pages: 1 -->
<svg width="827pt" height="316pt"
 viewBox="0.00 0.00 826.75 316.00" xmlns="http://www.w3.org/2000/svg" xmlns:xlink="http://www.w3.org/1999/xlink">
<g id="graph0" class="graph" transform="scale(1 1) rotate(0) translate(4 312)">
<title>qEmotiBitPacket::createPacket</title>
<!-- Node1 -->
<g id="Node000001" class="node">
<title>Node1</title>
<g id="a_Node000001"><a xlink:title="Crea un paquete EmotiBit a partir de datos en formato QString.">
<polygon fill="#999999" stroke="#666666" points="818.75,-176 665.5,-176 665.5,-156 818.75,-156 818.75,-176"/>
<text text-anchor="middle" x="742.12" y="-162.5" font-family="Helvetica,sans-Serif" font-size="10.00">qEmotiBitPacket::createPacket</text>
</a>
</g>
</g>
<!-- Node2 -->
<g id="Node000002" class="node">
<title>Node2</title>
<g id="a_Node000002"><a xlink:href="classq_emoti_bit_packet.html#a69c486835ecdc2210b9e4197ef70873f" target="_top" xlink:title="Crea un paquete EmotiBit a partir de un QVector de datos.">
<polygon fill="white" stroke="#666666" points="629.5,-308 476.25,-308 476.25,-288 629.5,-288 629.5,-308"/>
<text text-anchor="middle" x="552.88" y="-294.5" font-family="Helvetica,sans-Serif" font-size="10.00">qEmotiBitPacket::createPacket</text>
</a>
</g>
</g>
<!-- Node1&#45;&gt;Node2 -->
<g id="edge1_Node000001_Node000002" class="edge">
<title>Node1&#45;&gt;Node2</title>
<g id="a_edge1_Node000001_Node000002"><a xlink:title=" ">
<path fill="none" stroke="#63b8ff" d="M726.21,-185.1C706.51,-209.11 669.59,-250.07 629.5,-274 620.04,-279.65 609.1,-284.11 598.54,-287.57"/>
<polygon fill="#63b8ff" stroke="#63b8ff" points="728.86,-187.4 732.39,-177.41 723.4,-183.01 728.86,-187.4"/>
</a>
</g>
</g>
<!-- Node3 -->
<g id="Node000003" class="node">
<title>Node3</title>
<g id="a_Node000003"><a xlink:href="class_emoti_bit_wi_fi_robo_t_e_a.html#a479561ab9243c7c085df1e01cfcf7f8b" target="_top" xlink:title=" ">
<polygon fill="white" stroke="#666666" points="440.25,-232 323.75,-232 323.75,-200 440.25,-200 440.25,-232"/>
<text text-anchor="start" x="331.75" y="-218.5" font-family="Helvetica,sans-Serif" font-size="10.00">EmotiBitWiFiRoboTEA</text>
<text text-anchor="middle" x="382" y="-206.5" font-family="Helvetica,sans-Serif" font-size="10.00">::processAdvertising</text>
</a>
</g>
</g>
<!-- Node1&#45;&gt;Node3 -->
<g id="edge2_Node000001_Node000003" class="edge">
<title>Node1&#45;&gt;Node3</title>
<g id="a_edge2_Node000001_Node000003"><a xlink:title=" ">
<path fill="none" stroke="#63b8ff" d="M722.06,-184.1C701.22,-202.52 665.91,-229.9 629.5,-241 563.67,-261.06 483.84,-246.28 433.22,-232.37"/>
<polygon fill="#63b8ff" stroke="#63b8ff" points="724.41,-186.69 729.45,-177.37 719.7,-181.52 724.41,-186.69"/>
</a>
</g>
</g>
<!-- Node6 -->
<g id="Node000006" class="node">
<title>Node6</title>
<g id="a_Node000006"><a xlink:href="class_emoti_bit_wi_fi_robo_t_e_a.html#a668d3244786b7408322174850ca44aaa" target="_top" xlink:title=" ">
<polygon fill="white" stroke="#666666" points="611.12,-182 494.62,-182 494.62,-150 611.12,-150 611.12,-182"/>
<text text-anchor="start" x="502.62" y="-168.5" font-family="Helvetica,sans-Serif" font-size="10.00">EmotiBitWiFiRoboTEA</text>
<text text-anchor="middle" x="552.88" y="-156.5" font-family="Helvetica,sans-Serif" font-size="10.00">::processRequestData</text>
</a>
</g>
</g>
<!-- Node1&#45;&gt;Node6 -->
<g id="edge5_Node000001_Node000006" class="edge">
<title>Node1&#45;&gt;Node6</title>
<g id="a_edge5_Node000001_Node000006"><a xlink:title=" ">
<path fill="none" stroke="#63b8ff" d="M653.78,-166C639.42,-166 624.86,-166 611.46,-166"/>
<polygon fill="#63b8ff" stroke="#63b8ff" points="653.72,-169.5 663.72,-166 653.72,-162.5 653.72,-169.5"/>
</a>
</g>
</g>
<!-- Node9 -->
<g id="Node000009" class="node">
<title>Node9</title>
<g id="a_Node000009"><a xlink:href="class_emoti_bit_wi_fi_robo_t_e_a.html#abce274263f298bd5500d3ce59c61a9fc" target="_top" xlink:title=" ">
<polygon fill="white" stroke="#666666" points="611.12,-232 494.62,-232 494.62,-200 611.12,-200 611.12,-232"/>
<text text-anchor="start" x="502.62" y="-218.5" font-family="Helvetica,sans-Serif" font-size="10.00">EmotiBitWiFiRoboTEA</text>
<text text-anchor="middle" x="552.88" y="-206.5" font-family="Helvetica,sans-Serif" font-size="10.00">::sendAdvertising</text>
</a>
</g>
</g>
<!-- Node1&#45;&gt;Node9 -->
<g id="edge9_Node000001_Node000009" class="edge">
<title>Node1&#45;&gt;Node9</title>
<g id="a_edge9_Node000001_Node000009"><a xlink:title=" ">
<path fill="none" stroke="#63b8ff" d="M691.02,-179.38C666.55,-185.91 636.97,-193.81 611.56,-200.6"/>
<polygon fill="#63b8ff" stroke="#63b8ff" points="691.65,-182.83 700.41,-176.87 689.84,-176.07 691.65,-182.83"/>
</a>
</g>
</g>
<!-- Node10 -->
<g id="Node000010" class="node">
<title>Node10</title>
<g id="a_Node000010"><a xlink:href="class_emoti_bit_wi_fi_robo_t_e_a.html#aa5bf5d6537f664db044d1d6617bb7a50" target="_top" xlink:title=" ">
<polygon fill="white" stroke="#666666" points="611.12,-132 494.62,-132 494.62,-100 611.12,-100 611.12,-132"/>
<text text-anchor="start" x="502.62" y="-118.5" font-family="Helvetica,sans-Serif" font-size="10.00">EmotiBitWiFiRoboTEA</text>
<text text-anchor="middle" x="552.88" y="-106.5" font-family="Helvetica,sans-Serif" font-size="10.00">::sendNota</text>
</a>
</g>
</g>
<!-- Node1&#45;&gt;Node10 -->
<g id="edge11_Node000001_Node000010" class="edge">
<title>Node1&#45;&gt;Node10</title>
<g id="a_edge11_Node000001_Node000010"><a xlink:title=" ">
<path fill="none" stroke="#63b8ff" d="M691.02,-152.62C666.55,-146.09 636.97,-138.19 611.56,-131.4"/>
<polygon fill="#63b8ff" stroke="#63b8ff" points="689.84,-155.93 700.41,-155.13 691.65,-149.17 689.84,-155.93"/>
</a>
</g>
</g>
<!-- Node11 -->
<g id="Node000011" class="node">
<title>Node11</title>
<g id="a_Node000011"><a xlink:href="class_emoti_bit_wi_fi_robo_t_e_a.html#acc685929a99fb805ec857ba3ac51d8de" target="_top" xlink:title="Envia una orden al EmotiBit conectado para iniciar la grabación.">
<polygon fill="white" stroke="#666666" points="611.12,-82 494.62,-82 494.62,-50 611.12,-50 611.12,-82"/>
<text text-anchor="start" x="502.62" y="-68.5" font-family="Helvetica,sans-Serif" font-size="10.00">EmotiBitWiFiRoboTEA</text>
<text text-anchor="middle" x="552.88" y="-56.5" font-family="Helvetica,sans-Serif" font-size="10.00">::startRecording</text>
</a>
</g>
</g>
<!-- Node1&#45;&gt;Node11 -->
<g id="edge12_Node000001_Node000011" class="edge">
<title>Node1&#45;&gt;Node11</title>
<g id="a_edge12_Node000001_Node000011"><a xlink:title=" ">
<path fill="none" stroke="#63b8ff" d="M719.07,-148.52C697.31,-131.94 662.59,-107.21 629.5,-91 623.17,-87.9 616.36,-85.04 609.51,-82.45"/>
<polygon fill="#63b8ff" stroke="#63b8ff" points="716.85,-151.23 726.9,-154.58 721.14,-145.7 716.85,-151.23"/>
</a>
</g>
</g>
<!-- Node12 -->
<g id="Node000012" class="node">
<title>Node12</title>
<g id="a_Node000012"><a xlink:href="class_emoti_bit_wi_fi_robo_t_e_a.html#aa681c28a859c06dfdeeefa5f4c2084ef" target="_top" xlink:title=" ">
<polygon fill="white" stroke="#666666" points="611.12,-32 494.62,-32 494.62,0 611.12,0 611.12,-32"/>
<text text-anchor="start" x="502.62" y="-18.5" font-family="Helvetica,sans-Serif" font-size="10.00">EmotiBitWiFiRoboTEA</text>
<text text-anchor="middle" x="552.88" y="-6.5" font-family="Helvetica,sans-Serif" font-size="10.00">::stopRecording</text>
</a>
</g>
</g>
<!-- Node1&#45;&gt;Node12 -->
<g id="edge13_Node000001_Node000012" class="edge">
<title>Node1&#45;&gt;Node12</title>
<g id="a_edge13_Node000001_Node000012"><a xlink:title=" ">
<path fill="none" stroke="#63b8ff" d="M728.48,-146.28C709.95,-118.87 672.86,-69.44 629.5,-41 623.95,-37.36 617.82,-34.21 611.53,-31.48"/>
<polygon fill="#63b8ff" stroke="#63b8ff" points="725.39,-147.94 733.82,-154.35 731.23,-144.08 725.39,-147.94"/>
</a>
</g>
</g>
<!-- Node4 -->
<g id="Node000004" class="node">
<title>Node4</title>
<g id="a_Node000004"><a xlink:href="class_emoti_bit_wi_fi_robo_t_e_a.html#a69989a151b0cc117dce7b6d1df66f607" target="_top" xlink:title=" ">
<polygon fill="white" stroke="#666666" points="287.75,-232 152.5,-232 152.5,-200 287.75,-200 287.75,-232"/>
<text text-anchor="start" x="160.5" y="-218.5" font-family="Helvetica,sans-Serif" font-size="10.00">EmotiBitWiFiRoboTEA</text>
<text text-anchor="middle" x="220.12" y="-206.5" font-family="Helvetica,sans-Serif" font-size="10.00">::processAdvertisingThread</text>
</a>
</g>
</g>
<!-- Node3&#45;&gt;Node4 -->
<g id="edge3_Node000003_Node000004" class="edge">
<title>Node3&#45;&gt;Node4</title>
<g id="a_edge3_Node000003_Node000004"><a xlink:title=" ">
<path fill="none" stroke="#63b8ff" d="M311.84,-216C303.93,-216 295.88,-216 288,-216"/>
<polygon fill="#63b8ff" stroke="#63b8ff" points="311.77,-219.5 321.77,-216 311.77,-212.5 311.77,-219.5"/>
</a>
</g>
</g>
<!-- Node5 -->
<g id="Node000005" class="node">
<title>Node5</title>
<g id="a_Node000005"><a xlink:href="class_emoti_bit_wi_fi_robo_t_e_a.html#afb3095e8c8643fae1da87c36e97d745a" target="_top" xlink:title="Inicializa la conexión WiFi con el dispositivo EmotiBit.">
<polygon fill="white" stroke="#666666" points="116.5,-207 0,-207 0,-175 116.5,-175 116.5,-207"/>
<text text-anchor="start" x="8" y="-193.5" font-family="Helvetica,sans-Serif" font-size="10.00">EmotiBitWiFiRoboTEA</text>
<text text-anchor="middle" x="58.25" y="-181.5" font-family="Helvetica,sans-Serif" font-size="10.00">::begin</text>
</a>
</g>
</g>
<!-- Node4&#45;&gt;Node5 -->
<g id="edge4_Node000004_Node000005" class="edge">
<title>Node4&#45;&gt;Node5</title>
<g id="a_edge4_Node000004_Node000005"><a xlink:title=" ">
<path fill="none" stroke="#63b8ff" d="M140.9,-203.77C132.84,-202.51 124.75,-201.24 116.97,-200.03"/>
<polygon fill="#63b8ff" stroke="#63b8ff" points="140.33,-207.22 150.75,-205.31 141.42,-200.31 140.33,-207.22"/>
</a>
</g>
</g>
<!-- Node7 -->
<g id="Node000007" class="node">
<title>Node7</title>
<g id="a_Node000007"><a xlink:href="class_emoti_bit_wi_fi_robo_t_e_a.html#afa6092c5b41153887bc9faf76a775edc" target="_top" xlink:title=" ">
<polygon fill="white" stroke="#666666" points="440.25,-182 323.75,-182 323.75,-150 440.25,-150 440.25,-182"/>
<text text-anchor="start" x="331.75" y="-168.5" font-family="Helvetica,sans-Serif" font-size="10.00">EmotiBitWiFiRoboTEA</text>
<text text-anchor="middle" x="382" y="-156.5" font-family="Helvetica,sans-Serif" font-size="10.00">::updateData</text>
</a>
</g>
</g>
<!-- Node6&#45;&gt;Node7 -->
<g id="edge6_Node000006_Node000007" class="edge">
<title>Node6&#45;&gt;Node7</title>
<g id="a_edge6_Node000006_Node000007"><a xlink:title=" ">
<path fill="none" stroke="#63b8ff" d="M483.09,-166C469.01,-166 454.32,-166 440.67,-166"/>
<polygon fill="#63b8ff" stroke="#63b8ff" points="482.72,-169.5 492.72,-166 482.72,-162.5 482.72,-169.5"/>
</a>
</g>
</g>
<!-- Node8 -->
<g id="Node000008" class="node">
<title>Node8</title>
<g id="a_Node000008"><a xlink:href="class_emoti_bit_wi_fi_robo_t_e_a.html#a19f2caa38c7732e97a4bb4b7327e6358" target="_top" xlink:title=" ">
<polygon fill="white" stroke="#666666" points="278.38,-182 161.88,-182 161.88,-150 278.38,-150 278.38,-182"/>
<text text-anchor="start" x="169.88" y="-168.5" font-family="Helvetica,sans-Serif" font-size="10.00">EmotiBitWiFiRoboTEA</text>
<text text-anchor="middle" x="220.12" y="-156.5" font-family="Helvetica,sans-Serif" font-size="10.00">::updateDataThread</text>
</a>
</g>
</g>
<!-- Node7&#45;&gt;Node8 -->
<g id="edge7_Node000007_Node000008" class="edge">
<title>Node7&#45;&gt;Node8</title>
<g id="a_edge7_Node000007_Node000008"><a xlink:title=" ">
<path fill="none" stroke="#63b8ff" d="M311.9,-166C300.85,-166 289.51,-166 278.76,-166"/>
<polygon fill="#63b8ff" stroke="#63b8ff" points="311.77,-169.5 321.77,-166 311.77,-162.5 311.77,-169.5"/>
</a>
</g>
</g>
<!-- Node8&#45;&gt;Node5 -->
<g id="edge8_Node000008_Node000005" class="edge">
<title>Node8&#45;&gt;Node5</title>
<g id="a_edge8_Node000008_Node000005"><a xlink:title=" ">
<path fill="none" stroke="#63b8ff" d="M150.37,-176.75C139.21,-178.5 127.75,-180.29 116.88,-181.99"/>
<polygon fill="#63b8ff" stroke="#63b8ff" points="150.57,-180.26 159.91,-175.26 149.49,-173.35 150.57,-180.26"/>
</a>
</g>
</g>
<!-- Node9&#45;&gt;Node3 -->
<g id="edge10_Node000009_Node000003" class="edge">
<title>Node9&#45;&gt;Node3</title>
<g id="a_edge10_Node000009_Node000003"><a xlink:title=" ">
<path fill="none" stroke="#63b8ff" d="M483.09,-216C469.01,-216 454.32,-216 440.67,-216"/>
<polygon fill="#63b8ff" stroke="#63b8ff" points="482.72,-219.5 492.72,-216 482.72,-212.5 482.72,-219.5"/>
</a>
</g>
</g>
</g>
</svg>
