<?xml version="1.0" encoding="UTF-8" standalone="no"?>
<!DOCTYPE svg PUBLIC "-//W3C//DTD SVG 1.1//EN"
 "http://www.w3.org/Graphics/SVG/1.1/DTD/svg11.dtd">
<!-- Generated by graphviz version 12.2.1 (20241206.2353)
 -->
<!-- Title: FormVistaEmotiBit::signalLogEmotiBit Pages: 1 -->
<svg width="394pt" height="165pt"
 viewBox="0.00 0.00 393.50 165.00" xmlns="http://www.w3.org/2000/svg" xmlns:xlink="http://www.w3.org/1999/xlink">
<g id="graph0" class="graph" transform="scale(1 1) rotate(0) translate(4 161)">
<title>FormVistaEmotiBit::signalLogEmotiBit</title>
<!-- Node1 -->
<g id="Node000001" class="node">
<title>Node1</title>
<g id="a_Node000001"><a xlink:title=" ">
<polygon fill="#999999" stroke="#666666" points="385.5,-107 281,-107 281,-75 385.5,-75 385.5,-107"/>
<text text-anchor="start" x="289" y="-93.5" font-family="Helvetica,sans-Serif" font-size="10.00">FormVistaEmotiBit::</text>
<text text-anchor="middle" x="333.25" y="-81.5" font-family="Helvetica,sans-Serif" font-size="10.00">signalLogEmotiBit</text>
</a>
</g>
</g>
<!-- Node2 -->
<g id="Node000002" class="node">
<title>Node2</title>
<g id="a_Node000002"><a xlink:href="class_form_vista_emoti_bit.html#ad8acf2a131a849e3fa1040941958d638" target="_top" xlink:title="Inicia la grabación en el dispositivo.">
<polygon fill="white" stroke="#666666" points="245,-157 140.5,-157 140.5,-125 245,-125 245,-157"/>
<text text-anchor="start" x="148.5" y="-143.5" font-family="Helvetica,sans-Serif" font-size="10.00">FormVistaEmotiBit::</text>
<text text-anchor="middle" x="192.75" y="-131.5" font-family="Helvetica,sans-Serif" font-size="10.00">startRecording</text>
</a>
</g>
</g>
<!-- Node1&#45;&gt;Node2 -->
<g id="edge1_Node000001_Node000002" class="edge">
<title>Node1&#45;&gt;Node2</title>
<g id="a_edge1_Node000001_Node000002"><a xlink:title=" ">
<path fill="none" stroke="#63b8ff" d="M276.27,-111.21C263.95,-115.66 251.05,-120.32 239.2,-124.59"/>
<polygon fill="#63b8ff" stroke="#63b8ff" points="277.26,-114.57 285.48,-107.89 274.88,-107.99 277.26,-114.57"/>
</a>
</g>
</g>
<!-- Node3 -->
<g id="Node000003" class="node">
<title>Node3</title>
<g id="a_Node000003"><a xlink:href="class_form_vista_emoti_bit.html#a355b18e2baa02a0921608a7aabfa24c3" target="_top" xlink:title="Inicia la grabación especificando una ruta de almacenamiento.">
<polygon fill="white" stroke="#666666" points="245,-107 140.5,-107 140.5,-75 245,-75 245,-107"/>
<text text-anchor="start" x="148.5" y="-93.5" font-family="Helvetica,sans-Serif" font-size="10.00">FormVistaEmotiBit::</text>
<text text-anchor="middle" x="192.75" y="-81.5" font-family="Helvetica,sans-Serif" font-size="10.00">startRecording</text>
</a>
</g>
</g>
<!-- Node1&#45;&gt;Node3 -->
<g id="edge2_Node000001_Node000003" class="edge">
<title>Node1&#45;&gt;Node3</title>
<g id="a_edge2_Node000001_Node000003"><a xlink:title=" ">
<path fill="none" stroke="#63b8ff" d="M269.42,-91C261.37,-91 253.21,-91 245.37,-91"/>
<polygon fill="#63b8ff" stroke="#63b8ff" points="269.16,-94.5 279.16,-91 269.16,-87.5 269.16,-94.5"/>
</a>
</g>
</g>
<!-- Node4 -->
<g id="Node000004" class="node">
<title>Node4</title>
<g id="a_Node000004"><a xlink:href="class_form_vista_emoti_bit.html#a757e5fdc47fac77364963e441c953600" target="_top" xlink:title="Detiene la grabación activa.">
<polygon fill="white" stroke="#666666" points="245,-57 140.5,-57 140.5,-25 245,-25 245,-57"/>
<text text-anchor="start" x="148.5" y="-43.5" font-family="Helvetica,sans-Serif" font-size="10.00">FormVistaEmotiBit::</text>
<text text-anchor="middle" x="192.75" y="-31.5" font-family="Helvetica,sans-Serif" font-size="10.00">stopRecording</text>
</a>
</g>
</g>
<!-- Node1&#45;&gt;Node4 -->
<g id="edge3_Node000001_Node000004" class="edge">
<title>Node1&#45;&gt;Node4</title>
<g id="a_edge3_Node000001_Node000004"><a xlink:title=" ">
<path fill="none" stroke="#63b8ff" d="M276.27,-70.79C263.95,-66.34 251.05,-61.68 239.2,-57.41"/>
<polygon fill="#63b8ff" stroke="#63b8ff" points="274.88,-74.01 285.48,-74.11 277.26,-67.43 274.88,-74.01"/>
</a>
</g>
</g>
<!-- Node5 -->
<g id="Node000005" class="node">
<title>Node5</title>
<g id="a_Node000005"><a xlink:href="class_form_vista_emoti_bit.html#ac8590bd020882bd3045898adeca7276d" target="_top" xlink:title="Constructor de VistaEmotibit.">
<polygon fill="white" stroke="#666666" points="104.5,-82 0,-82 0,-50 104.5,-50 104.5,-82"/>
<text text-anchor="start" x="8" y="-68.5" font-family="Helvetica,sans-Serif" font-size="10.00">FormVistaEmotiBit::</text>
<text text-anchor="middle" x="52.25" y="-56.5" font-family="Helvetica,sans-Serif" font-size="10.00">FormVistaEmotiBit</text>
</a>
</g>
</g>
<!-- Node4&#45;&gt;Node5 -->
<g id="edge4_Node000004_Node000005" class="edge">
<title>Node4&#45;&gt;Node5</title>
<g id="a_edge4_Node000004_Node000005"><a xlink:title=" ">
<path fill="none" stroke="#63b8ff" d="M128.92,-52.34C120.87,-53.79 112.71,-55.27 104.87,-56.68"/>
<polygon fill="#63b8ff" stroke="#63b8ff" points="129.47,-55.8 138.69,-50.58 128.23,-48.91 129.47,-55.8"/>
</a>
</g>
</g>
<!-- Node6 -->
<g id="Node000006" class="node">
<title>Node6</title>
<g id="a_Node000006"><a xlink:href="class_form_vista_emoti_bit.html#ad3105a98b83c93874f5f010d83251aa4" target="_top" xlink:title="Destructor de la clase FormVistaEmotiBit.">
<polygon fill="white" stroke="#666666" points="104.5,-32 0,-32 0,0 104.5,0 104.5,-32"/>
<text text-anchor="start" x="8" y="-18.5" font-family="Helvetica,sans-Serif" font-size="10.00">FormVistaEmotiBit::</text>
<text text-anchor="middle" x="52.25" y="-6.5" font-family="Helvetica,sans-Serif" font-size="10.00">~FormVistaEmotiBit</text>
</a>
</g>
</g>
<!-- Node4&#45;&gt;Node6 -->
<g id="edge6_Node000004_Node000006" class="edge">
<title>Node4&#45;&gt;Node6</title>
<g id="a_edge6_Node000004_Node000006"><a xlink:title=" ">
<path fill="none" stroke="#63b8ff" d="M128.92,-29.66C120.87,-28.21 112.71,-26.73 104.87,-25.32"/>
<polygon fill="#63b8ff" stroke="#63b8ff" points="128.23,-33.09 138.69,-31.42 129.47,-26.2 128.23,-33.09"/>
</a>
</g>
</g>
<!-- Node5&#45;&gt;Node5 -->
<g id="edge5_Node000005_Node000005" class="edge">
<title>Node5&#45;&gt;Node5</title>
<g id="a_edge5_Node000005_Node000005"><a xlink:title=" ">
<path fill="none" stroke="#63b8ff" d="M75.66,-93.71C71.76,-97.48 63.96,-100 52.25,-100 30.85,-100 22.48,-91.58 27.17,-82.44"/>
<polygon fill="#63b8ff" stroke="#63b8ff" points="79.11,-94.34 77.11,-83.94 72.18,-93.32 79.11,-94.34"/>
</a>
</g>
</g>
</g>
</svg>
