<?xml version="1.0" encoding="UTF-8" standalone="no"?>
<!DOCTYPE svg PUBLIC "-//W3C//DTD SVG 1.1//EN"
 "http://www.w3.org/Graphics/SVG/1.1/DTD/svg11.dtd">
<!-- Generated by graphviz version 12.2.1 (20241206.2353)
 -->
<!-- Title: EmotiBitWiFiRoboTEA::updateData Pages: 1 -->
<svg width="466pt" height="219pt"
 viewBox="0.00 0.00 466.25 219.00" xmlns="http://www.w3.org/2000/svg" xmlns:xlink="http://www.w3.org/1999/xlink">

<svg id="main" version="1.1" xmlns="http://www.w3.org/2000/svg" xmlns:xlink="http://www.w3.org/1999/xlink" xml:space="preserve">

<style type="text/css"><![CDATA[
.node, .edge {opacity: 0.7;}
.node.selected, .edge.selected {opacity: 1;}
.edge:hover path { stroke: red; }
.edge:hover polygon { stroke: red; fill: red; }
]]></style>
<script type="application/ecmascript" xlink:href="svg.min.js"/>
<svg id="graph" class="graph">
<g id="graph0" class="graph" transform="scale(1 1) rotate(0) translate(4 215)">
<title>EmotiBitWiFiRoboTEA::updateData</title>
<!-- Node1 -->
<g id="Node000001" class="node">
<title>Node1</title>
<g id="a_Node000001"><a xlink:title=" ">
<polygon fill="#999999" stroke="#666666" points="116.5,-179 0,-179 0,-147 116.5,-147 116.5,-179"/>
<text text-anchor="start" x="8" y="-165.5" font-family="Helvetica,sans-Serif" font-size="10.00">EmotiBitWiFiRoboTEA</text>
<text text-anchor="middle" x="58.25" y="-153.5" font-family="Helvetica,sans-Serif" font-size="10.00">::updateData</text>
</a>
</g>
</g>
<!-- Node2 -->
<g id="Node000002" class="node">
<title>Node2</title>
<g id="a_Node000002"><a xlink:href="classq_emoti_bit_packet.html#a9262319d6d9df0e2f7ecee825e9977f2" target="_top" xlink:title="Extrae el encabezado de un paquete a partir de su representación en texto completo.">
<polygon fill="white" stroke="#666666" points="451.88,-211 311.38,-211 311.38,-191 451.88,-191 451.88,-211"/>
<text text-anchor="middle" x="381.62" y="-197.5" font-family="Helvetica,sans-Serif" font-size="10.00">qEmotiBitPacket::getHeader</text>
</a>
</g>
</g>
<!-- Node1&#45;&gt;Node2 -->
<g id="edge1_Node000001_Node000002" class="edge">
<title>Node1&#45;&gt;Node2</title>
<g id="a_edge1_Node000001_Node000002"><a xlink:title=" ">
<path fill="none" stroke="#63b8ff" d="M113.08,-179.44C125.89,-182.79 139.59,-185.92 152.5,-188 200.95,-195.79 255.84,-199.09 299.63,-200.41"/>
<polygon fill="#63b8ff" stroke="#63b8ff" points="299.49,-203.91 309.58,-200.68 299.68,-196.91 299.49,-203.91"/>
</a>
</g>
</g>
<!-- Node3 -->
<g id="Node000003" class="node">
<title>Node3</title>
<g id="a_Node000003"><a xlink:href="class_emoti_bit_wi_fi_robo_t_e_a.html#a1243dc4fc6cc69988dc5fb186d30c630" target="_top" xlink:title=" ">
<polygon fill="white" stroke="#666666" points="269,-179 152.5,-179 152.5,-147 269,-147 269,-179"/>
<text text-anchor="start" x="160.5" y="-165.5" font-family="Helvetica,sans-Serif" font-size="10.00">EmotiBitWiFiRoboTEA</text>
<text text-anchor="middle" x="210.75" y="-153.5" font-family="Helvetica,sans-Serif" font-size="10.00">::newDataPacket</text>
</a>
</g>
</g>
<!-- Node1&#45;&gt;Node3 -->
<g id="edge2_Node000001_Node000003" class="edge">
<title>Node1&#45;&gt;Node3</title>
<g id="a_edge2_Node000001_Node000003"><a xlink:title=" ">
<path fill="none" stroke="#63b8ff" d="M116.58,-163C124.48,-163 132.67,-163 140.75,-163"/>
<polygon fill="#63b8ff" stroke="#63b8ff" points="140.57,-166.5 150.57,-163 140.57,-159.5 140.57,-166.5"/>
</a>
</g>
</g>
<!-- Node4 -->
<g id="Node000004" class="node">
<title>Node4</title>
<g id="a_Node000004"><a xlink:href="class_emoti_bit_wi_fi_robo_t_e_a.html#a668d3244786b7408322174850ca44aaa" target="_top" xlink:title=" ">
<polygon fill="white" stroke="#666666" points="269,-129 152.5,-129 152.5,-97 269,-97 269,-129"/>
<text text-anchor="start" x="160.5" y="-115.5" font-family="Helvetica,sans-Serif" font-size="10.00">EmotiBitWiFiRoboTEA</text>
<text text-anchor="middle" x="210.75" y="-103.5" font-family="Helvetica,sans-Serif" font-size="10.00">::processRequestData</text>
</a>
</g>
</g>
<!-- Node1&#45;&gt;Node4 -->
<g id="edge3_Node000001_Node000004" class="edge">
<title>Node1&#45;&gt;Node4</title>
<g id="a_edge3_Node000001_Node000004"><a xlink:title=" ">
<path fill="none" stroke="#63b8ff" d="M108.53,-146.63C121.58,-142.29 135.83,-137.56 149.4,-133.05"/>
<polygon fill="#63b8ff" stroke="#63b8ff" points="150.28,-136.45 158.67,-129.97 148.07,-129.8 150.28,-136.45"/>
</a>
</g>
</g>
<!-- Node4&#45;&gt;Node2 -->
<g id="edge5_Node000004_Node000002" class="edge">
<title>Node4&#45;&gt;Node2</title>
<g id="a_edge5_Node000004_Node000002"><a xlink:title=" ">
<path fill="none" stroke="#63b8ff" d="M255.09,-129.45C259.96,-132.01 264.71,-134.86 269,-138 288.58,-152.31 284.54,-165.98 305,-179 309.45,-181.83 314.28,-184.31 319.27,-186.48"/>
<polygon fill="#63b8ff" stroke="#63b8ff" points="317.67,-189.61 328.26,-189.96 320.2,-183.08 317.67,-189.61"/>
</a>
</g>
</g>
<!-- Node5 -->
<g id="Node000005" class="node">
<title>Node5</title>
<g id="a_Node000005"><a xlink:href="classq_emoti_bit_packet.html#ad39b7339e5dba5abc9d2d5b7a20a3315" target="_top" xlink:title="Crea un paquete EmotiBit a partir de datos en formato QString.">
<polygon fill="white" stroke="#666666" points="458.25,-170 305,-170 305,-150 458.25,-150 458.25,-170"/>
<text text-anchor="middle" x="381.62" y="-156.5" font-family="Helvetica,sans-Serif" font-size="10.00">qEmotiBitPacket::createPacket</text>
</a>
</g>
</g>
<!-- Node4&#45;&gt;Node5 -->
<g id="edge4_Node000004_Node000005" class="edge">
<title>Node4&#45;&gt;Node5</title>
<g id="a_edge4_Node000004_Node000005"><a xlink:title=" ">
<path fill="none" stroke="#63b8ff" d="M264.89,-129.41C277.97,-133.33 291.96,-137.41 305,-141 312.02,-142.93 319.43,-144.9 326.75,-146.79"/>
<polygon fill="#63b8ff" stroke="#63b8ff" points="325.72,-150.13 336.28,-149.21 327.45,-143.35 325.72,-150.13"/>
</a>
</g>
</g>
<!-- Node6 -->
<g id="Node000006" class="node">
<title>Node6</title>
<g id="a_Node000006"><a xlink:href="classq_emoti_bit_packet.html#ac75acc92cc5927daebd32ab184a045cf" target="_top" xlink:title="Extrae un único elemento (campo) del paquete a partir de una posición dada.">
<polygon fill="white" stroke="#666666" points="451.5,-132 311.75,-132 311.75,-100 451.5,-100 451.5,-132"/>
<text text-anchor="start" x="319.75" y="-118.5" font-family="Helvetica,sans-Serif" font-size="10.00">qEmotiBitPacket::getPacket</text>
<text text-anchor="middle" x="381.62" y="-106.5" font-family="Helvetica,sans-Serif" font-size="10.00">Element</text>
</a>
</g>
</g>
<!-- Node4&#45;&gt;Node6 -->
<g id="edge6_Node000004_Node000006" class="edge">
<title>Node4&#45;&gt;Node6</title>
<g id="a_edge6_Node000004_Node000006"><a xlink:title=" ">
<path fill="none" stroke="#63b8ff" d="M269.39,-114.02C279.29,-114.2 289.73,-114.39 300.09,-114.57"/>
<polygon fill="#63b8ff" stroke="#63b8ff" points="299.7,-118.06 309.76,-114.74 299.83,-111.06 299.7,-118.06"/>
</a>
</g>
</g>
<!-- Node7 -->
<g id="Node000007" class="node">
<title>Node7</title>
<g id="a_Node000007"><a xlink:href="class_emoti_bit_wi_fi_robo_t_e_a.html#a625e99b73b5e371228dee00c0af567c2" target="_top" xlink:title=" ">
<polygon fill="white" stroke="#666666" points="439.88,-82 323.38,-82 323.38,-50 439.88,-50 439.88,-82"/>
<text text-anchor="start" x="331.38" y="-68.5" font-family="Helvetica,sans-Serif" font-size="10.00">EmotiBitWiFiRoboTEA</text>
<text text-anchor="middle" x="381.62" y="-56.5" font-family="Helvetica,sans-Serif" font-size="10.00">::getTimestampString</text>
</a>
</g>
</g>
<!-- Node4&#45;&gt;Node7 -->
<g id="edge7_Node000004_Node000007" class="edge">
<title>Node4&#45;&gt;Node7</title>
<g id="a_edge7_Node000004_Node000007"><a xlink:title=" ">
<path fill="none" stroke="#63b8ff" d="M269.39,-96.96C283.18,-93.12 298.02,-88.99 312.23,-85.03"/>
<polygon fill="#63b8ff" stroke="#63b8ff" points="312.8,-88.51 321.5,-82.46 310.92,-81.77 312.8,-88.51"/>
</a>
</g>
</g>
<!-- Node8 -->
<g id="Node000008" class="node">
<title>Node8</title>
<g id="a_Node000008"><a xlink:href="class_emoti_bit_wi_fi_robo_t_e_a.html#a038c54ef88640a7c9738a22f13ce96e8" target="_top" xlink:title=" ">
<polygon fill="white" stroke="#666666" points="439.88,-32 323.38,-32 323.38,0 439.88,0 439.88,-32"/>
<text text-anchor="start" x="331.38" y="-18.5" font-family="Helvetica,sans-Serif" font-size="10.00">EmotiBitWiFiRoboTEA</text>
<text text-anchor="middle" x="381.62" y="-6.5" font-family="Helvetica,sans-Serif" font-size="10.00">::sendDatagram</text>
</a>
</g>
</g>
<!-- Node4&#45;&gt;Node8 -->
<g id="edge8_Node000004_Node000008" class="edge">
<title>Node4&#45;&gt;Node8</title>
<g id="a_edge8_Node000004_Node000008"><a xlink:title=" ">
<path fill="none" stroke="#63b8ff" d="M229.06,-96.7C246.9,-80.64 276.1,-56.35 305,-41 307.71,-39.56 310.52,-38.18 313.39,-36.86"/>
<polygon fill="#63b8ff" stroke="#63b8ff" points="314.76,-40.09 322.59,-32.96 312.02,-33.64 314.76,-40.09"/>
</a>
</g>
</g>
</g>
</svg>
</svg>

<style type='text/css'>
<![CDATA[
[data-mouse-over-selected='false'] { opacity: 0.7; }
[data-mouse-over-selected='true']  { opacity: 1.0; }
]]>
</style>
<script type="application/ecmascript"><![CDATA[
document.addEventListener('DOMContentLoaded', (event) => {
  highlightEdges();
  highlightAdjacentNodes();
});
]]></script>
</svg>
