<?xml version="1.0" encoding="UTF-8" standalone="no"?>
<!DOCTYPE svg PUBLIC "-//W3C//DTD SVG 1.1//EN"
 "http://www.w3.org/Graphics/SVG/1.1/DTD/svg11.dtd">
<!-- Generated by graphviz version 12.2.1 (20241206.2353)
 -->
<!-- Title: EmotiBitWiFiRoboTEA::processAdvertisingThread Pages: 1 -->
<!--zoomable 289 -->

<svg id="main" version="1.1" xmlns="http://www.w3.org/2000/svg" xmlns:xlink="http://www.w3.org/1999/xlink" xml:space="preserve" onload="init(evt)">

<style type="text/css"><![CDATA[
.node, .edge {opacity: 0.7;}
.node.selected, .edge.selected {opacity: 1;}
.edge:hover path { stroke: red; }
.edge:hover polygon { stroke: red; fill: red; }
]]></style>

<defs>
  <circle id="rim" cx="0" cy="0" r="7"/>
  <circle id="rim2" cx="0" cy="0" r="3.5"/>
  <g id="zoomPlus">
    <use xlink:href="#rim" fill="#404040"><set attributeName="fill" to="#808080" begin="zoomplus.mouseover" end="zoomplus.mouseout"/></use>
    <path d="M-4,0h8M0,-4v8" fill="none" stroke="white" stroke-width="1.5" pointer-events="none"/>
  </g>
  <g id="zoomMin">
    <use xlink:href="#rim" fill="#404040"><set attributeName="fill" to="#808080" begin="zoomminus.mouseover" end="zoomminus.mouseout"/></use>
    <path d="M-4,0h8" fill="none" stroke="white" stroke-width="1.5" pointer-events="none"/>
  </g>
  <g id="arrowUp" transform="translate(30 24)">
    <use xlink:href="#rim"/>
    <path pointer-events="none" fill="none" stroke="white" stroke-width="1.5" d="M0,-3.0v7 M-2.5,-0.5L0,-3.0L2.5,-0.5"/>
  </g>
  <g id="arrowRight" transform="rotate(90) translate(36 -43)">
    <use xlink:href="#rim"/>
    <path pointer-events="none" fill="none" stroke="white" stroke-width="1.5" d="M0,-3.0v7 M-2.5,-0.5L0,-3.0L2.5,-0.5"/>
  </g>
  <g id="arrowDown" transform="rotate(180) translate(-30 -48)">
    <use xlink:href="#rim"/>
    <path pointer-events="none" fill="none" stroke="white" stroke-width="1.5" d="M0,-3.0v7 M-2.5,-0.5L0,-3.0L2.5,-0.5"/>
  </g>
  <g id="arrowLeft" transform="rotate(270) translate(-36 17)">
    <use xlink:href="#rim"/>
    <path pointer-events="none" fill="none" stroke="white" stroke-width="1.5" d="M0,-3.0v7 M-2.5,-0.5L0,-3.0L2.5,-0.5"/>
  </g>
  <g id="resetDef">
    <use xlink:href="#rim2" fill="#404040"><set attributeName="fill" to="#808080" begin="reset.mouseover" end="reset.mouseout"/></use>
  </g>
</defs>
<script type="application/ecmascript">
var viewWidth = 976;
var viewHeight = 289;
var sectionId = 'dynsection-19';
</script>
<script type="application/ecmascript" xlink:href="svg.min.js"/>
<svg id="graph" class="graph">
<g id="viewport">
<title>EmotiBitWiFiRoboTEA::processAdvertisingThread</title>
<!-- Node1 -->
<g id="Node000001" class="node">
<title>Node1</title>
<g id="a_Node000001"><a xlink:title=" ">
<polygon fill="#999999" stroke="#666666" points="135.25,-145 0,-145 0,-113 135.25,-113 135.25,-145"/>
<text text-anchor="start" x="8" y="-131.5" font-family="Helvetica,sans-Serif" font-size="10.00">EmotiBitWiFiRoboTEA</text>
<text text-anchor="middle" x="67.62" y="-119.5" font-family="Helvetica,sans-Serif" font-size="10.00">::processAdvertisingThread</text>
</a>
</g>
</g>
<!-- Node2 -->
<g id="Node000002" class="node">
<title>Node2</title>
<g id="a_Node000002"><a xlink:href="class_emoti_bit_wi_fi_robo_t_e_a.html#a479561ab9243c7c085df1e01cfcf7f8b" target="_top" xlink:title=" ">
<polygon fill="white" stroke="#666666" points="287.75,-170 171.25,-170 171.25,-138 287.75,-138 287.75,-170"/>
<text text-anchor="start" x="179.25" y="-156.5" font-family="Helvetica,sans-Serif" font-size="10.00">EmotiBitWiFiRoboTEA</text>
<text text-anchor="middle" x="229.5" y="-144.5" font-family="Helvetica,sans-Serif" font-size="10.00">::processAdvertising</text>
</a>
</g>
</g>
<!-- Node1&#45;&gt;Node2 -->
<g id="edge1_Node000001_Node000002" class="edge">
<title>Node1&#45;&gt;Node2</title>
<g id="a_edge1_Node000001_Node000002"><a xlink:title=" ">
<path fill="none" stroke="#63b8ff" d="M135.5,-139.46C143.47,-140.7 151.61,-141.98 159.61,-143.23"/>
<polygon fill="#63b8ff" stroke="#63b8ff" points="158.86,-146.65 169.28,-144.74 159.94,-139.74 158.86,-146.65"/>
</a>
</g>
</g>
<!-- Node15 -->
<g id="Node000015" class="node">
<title>Node15</title>
<g id="a_Node000015"><a xlink:href="class_emoti_bit_wi_fi_robo_t_e_a.html#ae7b22f66bc205f148a1596adae8741a1" target="_top" xlink:title=" ">
<polygon fill="white" stroke="#666666" points="287.75,-120 171.25,-120 171.25,-88 287.75,-88 287.75,-120"/>
<text text-anchor="start" x="179.25" y="-106.5" font-family="Helvetica,sans-Serif" font-size="10.00">EmotiBitWiFiRoboTEA</text>
<text text-anchor="middle" x="229.5" y="-94.5" font-family="Helvetica,sans-Serif" font-size="10.00">::threadSleepFor</text>
</a>
</g>
</g>
<!-- Node1&#45;&gt;Node15 -->
<g id="edge17_Node000001_Node000015" class="edge">
<title>Node1&#45;&gt;Node15</title>
<g id="a_edge17_Node000001_Node000015"><a xlink:title=" ">
<path fill="none" stroke="#63b8ff" d="M135.5,-118.54C143.47,-117.3 151.61,-116.02 159.61,-114.77"/>
<polygon fill="#63b8ff" stroke="#63b8ff" points="159.94,-118.26 169.28,-113.26 158.86,-111.35 159.94,-118.26"/>
</a>
</g>
</g>
<!-- Node3 -->
<g id="Node000003" class="node">
<title>Node3</title>
<g id="a_Node000003"><a xlink:href="classq_emoti_bit_packet.html#ad39b7339e5dba5abc9d2d5b7a20a3315" target="_top" xlink:title="Crea un paquete EmotiBit a partir de datos en formato QString.">
<polygon fill="white" stroke="#666666" points="653.5,-230 500.25,-230 500.25,-210 653.5,-210 653.5,-230"/>
<text text-anchor="middle" x="576.88" y="-216.5" font-family="Helvetica,sans-Serif" font-size="10.00">qEmotiBitPacket::createPacket</text>
</a>
</g>
</g>
<!-- Node2&#45;&gt;Node3 -->
<g id="edge2_Node000002_Node000003" class="edge">
<title>Node2&#45;&gt;Node3</title>
<g id="a_edge2_Node000002_Node000003"><a xlink:title=" ">
<path fill="none" stroke="#63b8ff" d="M238,-170.2C251.12,-196.32 280.96,-246.83 323.75,-267 399.58,-302.74 500.23,-260.49 548.19,-235.64"/>
<polygon fill="#63b8ff" stroke="#63b8ff" points="549.62,-238.84 556.79,-231.05 546.32,-232.66 549.62,-238.84"/>
</a>
</g>
</g>
<!-- Node4 -->
<g id="Node000004" class="node">
<title>Node4</title>
<g id="a_Node000004"><a xlink:href="class_emoti_bit_wi_fi_robo_t_e_a.html#af1855addc34d9d45f04a50c350a76f56" target="_top" xlink:title=" ">
<polygon fill="white" stroke="#666666" points="452.25,-258 335.75,-258 335.75,-226 452.25,-226 452.25,-258"/>
<text text-anchor="start" x="343.75" y="-244.5" font-family="Helvetica,sans-Serif" font-size="10.00">EmotiBitWiFiRoboTEA</text>
<text text-anchor="middle" x="394" y="-232.5" font-family="Helvetica,sans-Serif" font-size="10.00">::flushData</text>
</a>
</g>
</g>
<!-- Node2&#45;&gt;Node4 -->
<g id="edge3_Node000002_Node000004" class="edge">
<title>Node2&#45;&gt;Node4</title>
<g id="a_edge3_Node000002_Node000004"><a xlink:title=" ">
<path fill="none" stroke="#63b8ff" d="M251.42,-170.35C269.73,-184.11 297.45,-203.63 323.75,-217 326.58,-218.44 329.51,-219.83 332.5,-221.18"/>
<polygon fill="#63b8ff" stroke="#63b8ff" points="330.85,-224.28 341.42,-224.97 333.59,-217.84 330.85,-224.28"/>
</a>
</g>
</g>
<!-- Node5 -->
<g id="Node000005" class="node">
<title>Node5</title>
<g id="a_Node000005"><a xlink:href="classq_emoti_bit_packet.html#a9262319d6d9df0e2f7ecee825e9977f2" target="_top" xlink:title="Extrae el encabezado de un paquete a partir de su representación en texto completo.">
<polygon fill="white" stroke="#666666" points="464.25,-208 323.75,-208 323.75,-188 464.25,-188 464.25,-208"/>
<text text-anchor="middle" x="394" y="-194.5" font-family="Helvetica,sans-Serif" font-size="10.00">qEmotiBitPacket::getHeader</text>
</a>
</g>
</g>
<!-- Node2&#45;&gt;Node5 -->
<g id="edge4_Node000002_Node000005" class="edge">
<title>Node2&#45;&gt;Node5</title>
<g id="a_edge4_Node000002_Node000005"><a xlink:title=" ">
<path fill="none" stroke="#63b8ff" d="M288.25,-169.64C306.21,-174.5 325.84,-179.82 343.21,-184.52"/>
<polygon fill="#63b8ff" stroke="#63b8ff" points="342.23,-187.88 352.8,-187.11 344.06,-181.12 342.23,-187.88"/>
</a>
</g>
</g>
<!-- Node6 -->
<g id="Node000006" class="node">
<title>Node6</title>
<g id="a_Node000006"><a xlink:href="classq_emoti_bit_packet.html#a94508ded64f65eb9f9fbae50efa36208" target="_top" xlink:title="Busca y extrae el valor asociado a una clave (key) en un paquete representado como QStringList.">
<polygon fill="white" stroke="#666666" points="463.88,-170 324.12,-170 324.12,-138 463.88,-138 463.88,-170"/>
<text text-anchor="start" x="332.12" y="-156.5" font-family="Helvetica,sans-Serif" font-size="10.00">qEmotiBitPacket::getPacket</text>
<text text-anchor="middle" x="394" y="-144.5" font-family="Helvetica,sans-Serif" font-size="10.00">KeyedValue</text>
</a>
</g>
</g>
<!-- Node2&#45;&gt;Node6 -->
<g id="edge5_Node000002_Node000006" class="edge">
<title>Node2&#45;&gt;Node6</title>
<g id="a_edge5_Node000002_Node000006"><a xlink:title=" ">
<path fill="none" stroke="#63b8ff" d="M288.25,-154C296.06,-154 304.19,-154 312.31,-154"/>
<polygon fill="#63b8ff" stroke="#63b8ff" points="312.24,-157.5 322.24,-154 312.24,-150.5 312.24,-157.5"/>
</a>
</g>
</g>
<!-- Node7 -->
<g id="Node000007" class="node">
<title>Node7</title>
<g id="a_Node000007"><a xlink:href="class_emoti_bit_wi_fi_robo_t_e_a.html#abce274263f298bd5500d3ce59c61a9fc" target="_top" xlink:title=" ">
<polygon fill="white" stroke="#666666" points="452.25,-120 335.75,-120 335.75,-88 452.25,-88 452.25,-120"/>
<text text-anchor="start" x="343.75" y="-106.5" font-family="Helvetica,sans-Serif" font-size="10.00">EmotiBitWiFiRoboTEA</text>
<text text-anchor="middle" x="394" y="-94.5" font-family="Helvetica,sans-Serif" font-size="10.00">::sendAdvertising</text>
</a>
</g>
</g>
<!-- Node2&#45;&gt;Node7 -->
<g id="edge6_Node000002_Node000007" class="edge">
<title>Node2&#45;&gt;Node7</title>
<g id="a_edge6_Node000002_Node000007"><a xlink:title=" ">
<path fill="none" stroke="#63b8ff" d="M283.71,-137.63C298.08,-133.2 313.79,-128.37 328.71,-123.78"/>
<polygon fill="#63b8ff" stroke="#63b8ff" points="329.42,-127.23 337.95,-120.94 327.36,-120.54 329.42,-127.23"/>
</a>
</g>
</g>
<!-- Node13 -->
<g id="Node000013" class="node">
<title>Node13</title>
<g id="a_Node000013"><a xlink:href="class_emoti_bit_wi_fi_robo_t_e_a.html#a038c54ef88640a7c9738a22f13ce96e8" target="_top" xlink:title=" ">
<polygon fill="white" stroke="#666666" points="635.12,-76 518.62,-76 518.62,-44 635.12,-44 635.12,-76"/>
<text text-anchor="start" x="526.62" y="-62.5" font-family="Helvetica,sans-Serif" font-size="10.00">EmotiBitWiFiRoboTEA</text>
<text text-anchor="middle" x="576.88" y="-50.5" font-family="Helvetica,sans-Serif" font-size="10.00">::sendDatagram</text>
</a>
</g>
</g>
<!-- Node2&#45;&gt;Node13 -->
<g id="edge15_Node000002_Node000013" class="edge">
<title>Node2&#45;&gt;Node13</title>
<g id="a_edge15_Node000002_Node000013"><a xlink:title=" ">
<path fill="none" stroke="#63b8ff" d="M274.74,-137.62C279.34,-135.07 283.78,-132.2 287.75,-129 309.06,-111.8 299.86,-92.39 323.75,-79 379.58,-47.7 453.59,-45.89 506.97,-50.13"/>
<polygon fill="#63b8ff" stroke="#63b8ff" points="506.6,-53.61 516.87,-51.02 507.22,-46.64 506.6,-53.61"/>
</a>
</g>
</g>
<!-- Node14 -->
<g id="Node000014" class="node">
<title>Node14</title>
<g id="a_Node000014"><a xlink:href="class_emoti_bit_wi_fi_robo_t_e_a.html#a07ad6db58721595b5c929633c9f419f5" target="_top" xlink:title=" ">
<polygon fill="white" stroke="#666666" points="456,-32 332,-32 332,0 456,0 456,-32"/>
<text text-anchor="start" x="340" y="-18.5" font-family="Helvetica,sans-Serif" font-size="10.00">EmotiBitWiFiRoboTEA</text>
<text text-anchor="middle" x="394" y="-6.5" font-family="Helvetica,sans-Serif" font-size="10.00">::updateAdvertisingIpList</text>
</a>
</g>
</g>
<!-- Node2&#45;&gt;Node14 -->
<g id="edge16_Node000002_Node000014" class="edge">
<title>Node2&#45;&gt;Node14</title>
<g id="a_edge16_Node000002_Node000014"><a xlink:title=" ">
<path fill="none" stroke="#63b8ff" d="M276.89,-137.56C280.83,-135.06 284.53,-132.22 287.75,-129 316.15,-100.53 295.31,-74.43 323.75,-46 326.52,-43.23 329.59,-40.7 332.85,-38.39"/>
<polygon fill="#63b8ff" stroke="#63b8ff" points="334.51,-41.48 341.16,-33.23 330.82,-35.53 334.51,-41.48"/>
</a>
</g>
</g>
<!-- Node7&#45;&gt;Node3 -->
<g id="edge7_Node000007_Node000003" class="edge">
<title>Node7&#45;&gt;Node3</title>
<g id="a_edge7_Node000007_Node000003"><a xlink:title=" ">
<path fill="none" stroke="#63b8ff" d="M446.55,-120.39C452.66,-122.98 458.69,-125.85 464.25,-129 500.42,-149.48 536.69,-181.74 557.67,-201.84"/>
<polygon fill="#63b8ff" stroke="#63b8ff" points="554.99,-204.12 564.6,-208.58 559.88,-199.1 554.99,-204.12"/>
</a>
</g>
</g>
<!-- Node8 -->
<g id="Node000008" class="node">
<title>Node8</title>
<g id="a_Node000008"><a xlink:href="class_emoti_bit_wi_fi_robo_t_e_a.html#a7c5bb7f21f7a168274d428223917946d" target="_top" xlink:title=" ">
<polygon fill="white" stroke="#666666" points="635.5,-126 518.25,-126 518.25,-94 635.5,-94 635.5,-126"/>
<text text-anchor="start" x="526.25" y="-112.5" font-family="Helvetica,sans-Serif" font-size="10.00">EmotiBitWiFiRoboTEA</text>
<text text-anchor="middle" x="576.88" y="-100.5" font-family="Helvetica,sans-Serif" font-size="10.00">::getAvailableNetworks</text>
</a>
</g>
</g>
<!-- Node7&#45;&gt;Node8 -->
<g id="edge8_Node000007_Node000008" class="edge">
<title>Node7&#45;&gt;Node8</title>
<g id="a_edge8_Node000007_Node000008"><a xlink:title=" ">
<path fill="none" stroke="#63b8ff" d="M452.73,-105.91C469.77,-106.48 488.61,-107.11 506.32,-107.69"/>
<polygon fill="#63b8ff" stroke="#63b8ff" points="506.14,-111.19 516.25,-108.02 506.37,-104.19 506.14,-111.19"/>
</a>
</g>
</g>
<!-- Node7&#45;&gt;Node13 -->
<g id="edge14_Node000007_Node000013" class="edge">
<title>Node7&#45;&gt;Node13</title>
<g id="a_edge14_Node000007_Node000013"><a xlink:title=" ">
<path fill="none" stroke="#63b8ff" d="M452.73,-89.96C470.11,-85.73 489.35,-81.05 507.36,-76.67"/>
<polygon fill="#63b8ff" stroke="#63b8ff" points="508.03,-80.11 516.92,-74.34 506.37,-73.31 508.03,-80.11"/>
</a>
</g>
</g>
<!-- Node9 -->
<g id="Node000009" class="node">
<title>Node9</title>
<g id="a_Node000009"><a xlink:href="class_emoti_bit_wi_fi_robo_t_e_a.html#a7447abf3fade143a598184d65df41092" target="_top" xlink:title=" ">
<polygon fill="white" stroke="#666666" points="810.5,-176 694,-176 694,-144 810.5,-144 810.5,-176"/>
<text text-anchor="start" x="702" y="-162.5" font-family="Helvetica,sans-Serif" font-size="10.00">EmotiBitWiFiRoboTEA</text>
<text text-anchor="middle" x="752.25" y="-150.5" font-family="Helvetica,sans-Serif" font-size="10.00">::getLocalIPs</text>
</a>
</g>
</g>
<!-- Node8&#45;&gt;Node9 -->
<g id="edge9_Node000008_Node000009" class="edge">
<title>Node8&#45;&gt;Node9</title>
<g id="a_edge9_Node000008_Node000009"><a xlink:title=" ">
<path fill="none" stroke="#63b8ff" d="M634.64,-126.37C650.13,-130.84 667.07,-135.72 683.12,-140.35"/>
<polygon fill="#63b8ff" stroke="#63b8ff" points="682.02,-143.68 692.6,-143.09 683.96,-136.95 682.02,-143.68"/>
</a>
</g>
</g>
<!-- Node10 -->
<g id="Node000010" class="node">
<title>Node10</title>
<g id="a_Node000010"><a xlink:href="class_emoti_bit_wi_fi_robo_t_e_a.html#a932279040f097f60fd486163972c328c" target="_top" xlink:title=" ">
<polygon fill="white" stroke="#666666" points="815,-126 689.5,-126 689.5,-94 815,-94 815,-126"/>
<text text-anchor="start" x="697.5" y="-112.5" font-family="Helvetica,sans-Serif" font-size="10.00">EmotiBitWiFiRoboTEA</text>
<text text-anchor="middle" x="752.25" y="-100.5" font-family="Helvetica,sans-Serif" font-size="10.00">::isInNetworkExcludeList</text>
</a>
</g>
</g>
<!-- Node8&#45;&gt;Node10 -->
<g id="edge10_Node000008_Node000010" class="edge">
<title>Node8&#45;&gt;Node10</title>
<g id="a_edge10_Node000008_Node000010"><a xlink:title=" ">
<path fill="none" stroke="#63b8ff" d="M635.61,-110C649.13,-110 663.72,-110 677.82,-110"/>
<polygon fill="#63b8ff" stroke="#63b8ff" points="677.49,-113.5 687.49,-110 677.49,-106.5 677.49,-113.5"/>
</a>
</g>
</g>
<!-- Node12 -->
<g id="Node000012" class="node">
<title>Node12</title>
<g id="a_Node000012"><a xlink:href="class_emoti_bit_wi_fi_robo_t_e_a.html#a3677dd6ccbfe65acceb8c9b53e7df2a4" target="_top" xlink:title=" ">
<polygon fill="white" stroke="#666666" points="813.12,-76 691.38,-76 691.38,-44 813.12,-44 813.12,-76"/>
<text text-anchor="start" x="699.38" y="-62.5" font-family="Helvetica,sans-Serif" font-size="10.00">EmotiBitWiFiRoboTEA</text>
<text text-anchor="middle" x="752.25" y="-50.5" font-family="Helvetica,sans-Serif" font-size="10.00">::isInNetworkIncludeList</text>
</a>
</g>
</g>
<!-- Node8&#45;&gt;Node12 -->
<g id="edge12_Node000008_Node000012" class="edge">
<title>Node8&#45;&gt;Node12</title>
<g id="a_edge12_Node000008_Node000012"><a xlink:title=" ">
<path fill="none" stroke="#63b8ff" d="M634.64,-93.63C650.13,-89.16 667.07,-84.28 683.12,-79.65"/>
<polygon fill="#63b8ff" stroke="#63b8ff" points="683.96,-83.05 692.6,-76.91 682.02,-76.32 683.96,-83.05"/>
</a>
</g>
</g>
<!-- Node11 -->
<g id="Node000011" class="node">
<title>Node11</title>
<g id="a_Node000011"><a xlink:href="class_emoti_bit_wi_fi_robo_t_e_a.html#ad3a7e685f53ec9d95050561d3b3fdef3" target="_top" xlink:title=" ">
<polygon fill="white" stroke="#666666" points="967.5,-101 851,-101 851,-69 967.5,-69 967.5,-101"/>
<text text-anchor="start" x="859" y="-87.5" font-family="Helvetica,sans-Serif" font-size="10.00">EmotiBitWiFiRoboTEA</text>
<text text-anchor="middle" x="909.25" y="-75.5" font-family="Helvetica,sans-Serif" font-size="10.00">::isInNetworkList</text>
</a>
</g>
</g>
<!-- Node10&#45;&gt;Node11 -->
<g id="edge11_Node000010_Node000011" class="edge">
<title>Node10&#45;&gt;Node11</title>
<g id="a_edge11_Node000010_Node000011"><a xlink:title=" ">
<path fill="none" stroke="#63b8ff" d="M815.4,-99.98C823.3,-98.7 831.42,-97.39 839.42,-96.1"/>
<polygon fill="#63b8ff" stroke="#63b8ff" points="839.8,-99.59 849.11,-94.54 838.68,-92.68 839.8,-99.59"/>
</a>
</g>
</g>
<!-- Node12&#45;&gt;Node11 -->
<g id="edge13_Node000012_Node000011" class="edge">
<title>Node12&#45;&gt;Node11</title>
<g id="a_edge13_Node000012_Node000011"><a xlink:title=" ">
<path fill="none" stroke="#63b8ff" d="M813.62,-69.74C822.07,-71.1 830.81,-72.51 839.4,-73.9"/>
<polygon fill="#63b8ff" stroke="#63b8ff" points="838.66,-77.32 849.09,-75.46 839.77,-70.41 838.66,-77.32"/>
</a>
</g>
</g>
</g>
</svg>

<g id="navigator" transform="translate(0 0)" fill="#404254">
  <rect fill="#f2f5e9" fill-opacity="0.5" stroke="#606060" stroke-width=".5" x="0" y="0" width="60" height="60"/>
  <use id="zoomplus" xlink:href="#zoomPlus" x="17" y="9" onmousedown="handleZoom(evt,'in')"/>
  <use id="zoomminus" xlink:href="#zoomMin" x="42" y="9" onmousedown="handleZoom(evt,'out')"/>
  <use id="reset" xlink:href="#resetDef" x="30" y="36" onmousedown="handleReset()"/>
   <use id="arrowup" xlink:href="#arrowUp" x="0" y="0" onmousedown="handlePan(0,-1)"/>
  <use id="arrowright" xlink:href="#arrowRight" x="0" y="0" onmousedown="handlePan(1,0)"/>
  <use id="arrowdown" xlink:href="#arrowDown" x="0" y="0" onmousedown="handlePan(0,1)"/>
  <use id="arrowleft" xlink:href="#arrowLeft" x="0" y="0" onmousedown="handlePan(-1,0)"/>
</g>
<svg viewBox="0 0 15 15" width="100%" height="30px" preserveAspectRatio="xMaxYMin meet">
 <g id="arrow_out" transform="scale(0.3 0.3)">
  <a xlink:href="class_emoti_bit_wi_fi_robo_t_e_a_a69989a151b0cc117dce7b6d1df66f607_cgraph_org.svg" target="_base">
   <rect id="button" ry="5" rx="5" y="6" x="6" height="38" width="38"
        fill="#f2f5e9" fill-opacity="0.5" stroke="#606060" stroke-width="1.0"/>
   <path id="arrow"
     d="M 11.500037,31.436501 C 11.940474,20.09759 22.043105,11.32322 32.158766,21.979434 L 37.068811,17.246167 C 37.068811,17.246167 37.088388,32 37.088388,32 L 22.160133,31.978069 C 22.160133,31.978069 26.997745,27.140456 26.997745,27.140456 C 18.528582,18.264221 13.291696,25.230495 11.500037,31.436501 z"
     style="fill:#404040;"/>
  </a>
 </g>
</svg>

<style type='text/css'>
<![CDATA[
[data-mouse-over-selected='false'] { opacity: 0.7; }
[data-mouse-over-selected='true']  { opacity: 1.0; }
]]>
</style>
<script type="application/ecmascript"><![CDATA[
document.addEventListener('DOMContentLoaded', (event) => {
  highlightEdges();
  highlightAdjacentNodes();
});
]]></script>
</svg>
