<?xml version="1.0" encoding="UTF-8" standalone="no"?>
<!DOCTYPE svg PUBLIC "-//W3C//DTD SVG 1.1//EN"
 "http://www.w3.org/Graphics/SVG/1.1/DTD/svg11.dtd">
<!-- Generated by graphviz version 12.2.1 (20241206.2353)
 -->
<!-- Title: FormVistaEmotiBit::~FormVistaEmotiBit Pages: 1 -->
<svg width="394pt" height="40pt"
 viewBox="0.00 0.00 393.50 40.00" xmlns="http://www.w3.org/2000/svg" xmlns:xlink="http://www.w3.org/1999/xlink">
<g id="graph0" class="graph" transform="scale(1 1) rotate(0) translate(4 36)">
<title>FormVistaEmotiBit::~FormVistaEmotiBit</title>
<!-- Node1 -->
<g id="Node000001" class="node">
<title>Node1</title>
<g id="a_Node000001"><a xlink:title="Destructor de la clase FormVistaEmotiBit.">
<polygon fill="#999999" stroke="#666666" points="104.5,-32 0,-32 0,0 104.5,0 104.5,-32"/>
<text text-anchor="start" x="8" y="-18.5" font-family="Helvetica,sans-Serif" font-size="10.00">FormVistaEmotiBit::</text>
<text text-anchor="middle" x="52.25" y="-6.5" font-family="Helvetica,sans-Serif" font-size="10.00">~FormVistaEmotiBit</text>
</a>
</g>
</g>
<!-- Node2 -->
<g id="Node000002" class="node">
<title>Node2</title>
<g id="a_Node000002"><a xlink:href="class_form_vista_emoti_bit.html#a757e5fdc47fac77364963e441c953600" target="_top" xlink:title="Detiene la grabación activa.">
<polygon fill="white" stroke="#666666" points="245,-32 140.5,-32 140.5,0 245,0 245,-32"/>
<text text-anchor="start" x="148.5" y="-18.5" font-family="Helvetica,sans-Serif" font-size="10.00">FormVistaEmotiBit::</text>
<text text-anchor="middle" x="192.75" y="-6.5" font-family="Helvetica,sans-Serif" font-size="10.00">stopRecording</text>
</a>
</g>
</g>
<!-- Node1&#45;&gt;Node2 -->
<g id="edge1_Node000001_Node000002" class="edge">
<title>Node1&#45;&gt;Node2</title>
<g id="a_edge1_Node000001_Node000002"><a xlink:title=" ">
<path fill="none" stroke="#63b8ff" d="M104.82,-16C112.66,-16 120.83,-16 128.88,-16"/>
<polygon fill="#63b8ff" stroke="#63b8ff" points="128.62,-19.5 138.62,-16 128.62,-12.5 128.62,-19.5"/>
</a>
</g>
</g>
<!-- Node3 -->
<g id="Node000003" class="node">
<title>Node3</title>
<g id="a_Node000003"><a xlink:href="class_form_vista_emoti_bit.html#aca7464ff6fef3c5753012ac6343063a7" target="_top" xlink:title=" ">
<polygon fill="white" stroke="#666666" points="385.5,-32 281,-32 281,0 385.5,0 385.5,-32"/>
<text text-anchor="start" x="289" y="-18.5" font-family="Helvetica,sans-Serif" font-size="10.00">FormVistaEmotiBit::</text>
<text text-anchor="middle" x="333.25" y="-6.5" font-family="Helvetica,sans-Serif" font-size="10.00">signalLogEmotiBit</text>
</a>
</g>
</g>
<!-- Node2&#45;&gt;Node3 -->
<g id="edge2_Node000002_Node000003" class="edge">
<title>Node2&#45;&gt;Node3</title>
<g id="a_edge2_Node000002_Node000003"><a xlink:title=" ">
<path fill="none" stroke="#63b8ff" d="M245.32,-16C253.16,-16 261.33,-16 269.38,-16"/>
<polygon fill="#63b8ff" stroke="#63b8ff" points="269.12,-19.5 279.12,-16 269.12,-12.5 269.12,-19.5"/>
</a>
</g>
</g>
</g>
</svg>
