<?xml version="1.0" encoding="UTF-8" standalone="no"?>
<!DOCTYPE svg PUBLIC "-//W3C//DTD SVG 1.1//EN"
 "http://www.w3.org/Graphics/SVG/1.1/DTD/svg11.dtd">
<!-- Generated by graphviz version 12.2.1 (20241206.2353)
 -->
<!-- Title: FormPlot Pages: 1 -->
<svg width="125pt" height="196pt"
 viewBox="0.00 0.00 125.00 196.00" xmlns="http://www.w3.org/2000/svg" xmlns:xlink="http://www.w3.org/1999/xlink">
<g id="graph0" class="graph" transform="scale(1 1) rotate(0) translate(4 192)">
<title>FormPlot</title>
<!-- Node1 -->
<g id="Node000001" class="node">
<title>Node1</title>
<g id="a_Node000001"><a xlink:title="Constructor de la clase FormPlot.Esta clase escucha señales de FormVistaEmotiBit.">
<polygon fill="#999999" stroke="none" points="117,-100 0,-100 0,0 117,0 117,-100"/>
<text text-anchor="start" x="38.62" y="-86.5" font-family="Helvetica,sans-Serif" font-size="10.00">FormPlot</text>
<text text-anchor="start" x="57" y="-70.5" font-family="Helvetica,sans-Serif" font-size="10.00"> </text>
<text text-anchor="start" x="4" y="-54.5" font-family="Helvetica,sans-Serif" font-size="10.00">+</text>
<text text-anchor="start" x="14" y="-54.5" font-family="Helvetica,sans-Serif" font-size="10.00">FormPlot()</text>
<text text-anchor="start" x="4" y="-38.5" font-family="Helvetica,sans-Serif" font-size="10.00">+</text>
<text text-anchor="start" x="14" y="-38.5" font-family="Helvetica,sans-Serif" font-size="10.00">~FormPlot()</text>
<text text-anchor="start" x="4" y="-22.5" font-family="Helvetica,sans-Serif" font-size="10.00">+</text>
<text text-anchor="start" x="14" y="-22.5" font-family="Helvetica,sans-Serif" font-size="10.00">onNewDataReceived()</text>
<text text-anchor="start" x="4" y="-6.5" font-family="Helvetica,sans-Serif" font-size="10.00">+</text>
<text text-anchor="start" x="14" y="-6.5" font-family="Helvetica,sans-Serif" font-size="10.00">resetAllData()</text>
<polygon fill="#666666" stroke="#666666" points="0,-82 0,-82 117,-82 117,-82 0,-82"/>
<polygon fill="#666666" stroke="#666666" points="0,-66 0,-66 117,-66 117,-66 0,-66"/>
<polygon fill="none" stroke="#666666" points="0,0 0,-100 117,-100 117,0 0,0"/>
</a>
</g>
</g>
<!-- Node2 -->
<g id="Node000002" class="node">
<title>Node2</title>
<g id="a_Node000002"><a xlink:title=" ">
<polygon fill="white" stroke="none" points="81.62,-188 35.38,-188 35.38,-136 81.62,-136 81.62,-188"/>
<text text-anchor="start" x="39.38" y="-174.5" font-family="Helvetica,sans-Serif" font-size="10.00">QWidget</text>
<text text-anchor="start" x="57" y="-158.5" font-family="Helvetica,sans-Serif" font-size="10.00"> </text>
<text text-anchor="start" x="57" y="-142.5" font-family="Helvetica,sans-Serif" font-size="10.00"> </text>
<polygon fill="#666666" stroke="#666666" points="35.38,-170 35.38,-170 81.62,-170 81.62,-170 35.38,-170"/>
<polygon fill="#666666" stroke="#666666" points="35.38,-154 35.38,-154 81.62,-154 81.62,-154 35.38,-154"/>
<polygon fill="none" stroke="#666666" points="35.38,-136 35.38,-188 81.62,-188 81.62,-136 35.38,-136"/>
</a>
</g>
</g>
<!-- Node2&#45;&gt;Node1 -->
<g id="edge1_Node000001_Node000002" class="edge">
<title>Node2&#45;&gt;Node1</title>
<g id="a_edge1_Node000001_Node000002"><a xlink:title=" ">
<path fill="none" stroke="#63b8ff" d="M58.5,-124.53C58.5,-116.58 58.5,-108.05 58.5,-99.72"/>
<polygon fill="none" stroke="#63b8ff" points="55,-124.53 58.5,-134.53 62,-124.53 55,-124.53"/>
</a>
</g>
</g>
</g>
</svg>
