<?xml version="1.0" encoding="UTF-8" standalone="no"?>
<!DOCTYPE svg PUBLIC "-//W3C//DTD SVG 1.1//EN"
 "http://www.w3.org/Graphics/SVG/1.1/DTD/svg11.dtd">
<!-- Generated by graphviz version 12.2.1 (20241206.2353)
 -->
<!-- Title: EmotiBitWiFiRoboTEA::begin Pages: 1 -->
<!--zoomable 515 -->

<svg id="main" version="1.1" xmlns="http://www.w3.org/2000/svg" xmlns:xlink="http://www.w3.org/1999/xlink" xml:space="preserve" onload="init(evt)">

<style type="text/css"><![CDATA[
.node, .edge {opacity: 0.7;}
.node.selected, .edge.selected {opacity: 1;}
.edge:hover path { stroke: red; }
.edge:hover polygon { stroke: red; fill: red; }
]]></style>

<defs>
  <circle id="rim" cx="0" cy="0" r="7"/>
  <circle id="rim2" cx="0" cy="0" r="3.5"/>
  <g id="zoomPlus">
    <use xlink:href="#rim" fill="#404040"><set attributeName="fill" to="#808080" begin="zoomplus.mouseover" end="zoomplus.mouseout"/></use>
    <path d="M-4,0h8M0,-4v8" fill="none" stroke="white" stroke-width="1.5" pointer-events="none"/>
  </g>
  <g id="zoomMin">
    <use xlink:href="#rim" fill="#404040"><set attributeName="fill" to="#808080" begin="zoomminus.mouseover" end="zoomminus.mouseout"/></use>
    <path d="M-4,0h8" fill="none" stroke="white" stroke-width="1.5" pointer-events="none"/>
  </g>
  <g id="arrowUp" transform="translate(30 24)">
    <use xlink:href="#rim"/>
    <path pointer-events="none" fill="none" stroke="white" stroke-width="1.5" d="M0,-3.0v7 M-2.5,-0.5L0,-3.0L2.5,-0.5"/>
  </g>
  <g id="arrowRight" transform="rotate(90) translate(36 -43)">
    <use xlink:href="#rim"/>
    <path pointer-events="none" fill="none" stroke="white" stroke-width="1.5" d="M0,-3.0v7 M-2.5,-0.5L0,-3.0L2.5,-0.5"/>
  </g>
  <g id="arrowDown" transform="rotate(180) translate(-30 -48)">
    <use xlink:href="#rim"/>
    <path pointer-events="none" fill="none" stroke="white" stroke-width="1.5" d="M0,-3.0v7 M-2.5,-0.5L0,-3.0L2.5,-0.5"/>
  </g>
  <g id="arrowLeft" transform="rotate(270) translate(-36 17)">
    <use xlink:href="#rim"/>
    <path pointer-events="none" fill="none" stroke="white" stroke-width="1.5" d="M0,-3.0v7 M-2.5,-0.5L0,-3.0L2.5,-0.5"/>
  </g>
  <g id="resetDef">
    <use xlink:href="#rim2" fill="#404040"><set attributeName="fill" to="#808080" begin="reset.mouseover" end="reset.mouseout"/></use>
  </g>
</defs>
<script type="application/ecmascript">
var viewWidth = 1127;
var viewHeight = 515;
var sectionId = 'dynsection-4';
</script>
<script type="application/ecmascript" xlink:href="svg.min.js"/>
<svg id="graph" class="graph">
<g id="viewport">
<title>EmotiBitWiFiRoboTEA::begin</title>
<!-- Node1 -->
<g id="Node000001" class="node">
<title>Node1</title>
<g id="a_Node000001"><a xlink:title="Inicializa la conexión WiFi con el dispositivo EmotiBit.">
<polygon fill="#999999" stroke="#666666" points="116.5,-374.81 0,-374.81 0,-342.81 116.5,-342.81 116.5,-374.81"/>
<text text-anchor="start" x="8" y="-361.31" font-family="Helvetica,sans-Serif" font-size="10.00">EmotiBitWiFiRoboTEA</text>
<text text-anchor="middle" x="58.25" y="-349.31" font-family="Helvetica,sans-Serif" font-size="10.00">::begin</text>
</a>
</g>
</g>
<!-- Node2 -->
<g id="Node000002" class="node">
<title>Node2</title>
<g id="a_Node000002"><a xlink:href="class_emoti_bit_wi_fi_robo_t_e_a.html#ae9243944a552e5c9c18f26a0be455ea8" target="_top" xlink:title=" ">
<polygon fill="white" stroke="#666666" points="278.38,-506.81 161.88,-506.81 161.88,-474.81 278.38,-474.81 278.38,-506.81"/>
<text text-anchor="start" x="169.88" y="-493.31" font-family="Helvetica,sans-Serif" font-size="10.00">EmotiBitWiFiRoboTEA</text>
<text text-anchor="middle" x="220.12" y="-481.31" font-family="Helvetica,sans-Serif" font-size="10.00">::_startDataCxn</text>
</a>
</g>
</g>
<!-- Node1&#45;&gt;Node2 -->
<g id="edge1_Node000001_Node000002" class="edge">
<title>Node1&#45;&gt;Node2</title>
<g id="a_edge1_Node000001_Node000002"><a xlink:title=" ">
<path fill="none" stroke="#63b8ff" d="M70.86,-375.22C87.05,-397.13 118.29,-436.05 152.5,-460.81 156.6,-463.78 161.04,-466.55 165.61,-469.12"/>
<polygon fill="#63b8ff" stroke="#63b8ff" points="163.93,-472.19 174.42,-473.7 167.16,-465.98 163.93,-472.19"/>
</a>
</g>
</g>
<!-- Node3 -->
<g id="Node000003" class="node">
<title>Node3</title>
<g id="a_Node000003"><a xlink:href="class_emoti_bit_wi_fi_robo_t_e_a.html#a7c5bb7f21f7a168274d428223917946d" target="_top" xlink:title=" ">
<polygon fill="white" stroke="#666666" points="787.25,-443.81 670,-443.81 670,-411.81 787.25,-411.81 787.25,-443.81"/>
<text text-anchor="start" x="678" y="-430.31" font-family="Helvetica,sans-Serif" font-size="10.00">EmotiBitWiFiRoboTEA</text>
<text text-anchor="middle" x="728.62" y="-418.31" font-family="Helvetica,sans-Serif" font-size="10.00">::getAvailableNetworks</text>
</a>
</g>
</g>
<!-- Node1&#45;&gt;Node3 -->
<g id="edge2_Node000001_Node000003" class="edge">
<title>Node1&#45;&gt;Node3</title>
<g id="a_edge2_Node000001_Node000003"><a xlink:title=" ">
<path fill="none" stroke="#63b8ff" d="M116.81,-367.04C197.15,-378.28 347.53,-398.45 476.25,-410.81 537.65,-416.71 607.68,-421.27 658.2,-424.18"/>
<polygon fill="#63b8ff" stroke="#63b8ff" points="657.95,-427.67 668.13,-424.74 658.34,-420.68 657.95,-427.67"/>
</a>
</g>
</g>
<!-- Node8 -->
<g id="Node000008" class="node">
<title>Node8</title>
<g id="a_Node000008"><a xlink:href="class_emoti_bit_wi_fi_robo_t_e_a.html#a69989a151b0cc117dce7b6d1df66f607" target="_top" xlink:title=" ">
<polygon fill="white" stroke="#666666" points="287.75,-308.81 152.5,-308.81 152.5,-276.81 287.75,-276.81 287.75,-308.81"/>
<text text-anchor="start" x="160.5" y="-295.31" font-family="Helvetica,sans-Serif" font-size="10.00">EmotiBitWiFiRoboTEA</text>
<text text-anchor="middle" x="220.12" y="-283.31" font-family="Helvetica,sans-Serif" font-size="10.00">::processAdvertisingThread</text>
</a>
</g>
</g>
<!-- Node1&#45;&gt;Node8 -->
<g id="edge8_Node000001_Node000008" class="edge">
<title>Node1&#45;&gt;Node8</title>
<g id="a_edge8_Node000001_Node000008"><a xlink:title=" ">
<path fill="none" stroke="#63b8ff" d="M99.18,-342.33C120.34,-333.6 146.54,-322.78 169.04,-313.49"/>
<polygon fill="#63b8ff" stroke="#63b8ff" points="170.12,-316.83 178.03,-309.78 167.45,-310.36 170.12,-316.83"/>
</a>
</g>
</g>
<!-- Node18 -->
<g id="Node000018" class="node">
<title>Node18</title>
<g id="a_Node000018"><a xlink:href="class_emoti_bit_wi_fi_robo_t_e_a.html#a19f2caa38c7732e97a4bb4b7327e6358" target="_top" xlink:title=" ">
<polygon fill="white" stroke="#666666" points="278.38,-258.81 161.88,-258.81 161.88,-226.81 278.38,-226.81 278.38,-258.81"/>
<text text-anchor="start" x="169.88" y="-245.31" font-family="Helvetica,sans-Serif" font-size="10.00">EmotiBitWiFiRoboTEA</text>
<text text-anchor="middle" x="220.12" y="-233.31" font-family="Helvetica,sans-Serif" font-size="10.00">::updateDataThread</text>
</a>
</g>
</g>
<!-- Node1&#45;&gt;Node18 -->
<g id="edge21_Node000001_Node000018" class="edge">
<title>Node1&#45;&gt;Node18</title>
<g id="a_edge21_Node000001_Node000018"><a xlink:title=" ">
<path fill="none" stroke="#63b8ff" d="M72.17,-342.59C88.86,-322.59 119.66,-288.68 152.5,-267.81 154.38,-266.62 156.32,-265.47 158.31,-264.37"/>
<polygon fill="#63b8ff" stroke="#63b8ff" points="159.85,-267.51 167.21,-259.89 156.7,-261.26 159.85,-267.51"/>
</a>
</g>
</g>
<!-- Node4 -->
<g id="Node000004" class="node">
<title>Node4</title>
<g id="a_Node000004"><a xlink:href="class_emoti_bit_wi_fi_robo_t_e_a.html#a7447abf3fade143a598184d65df41092" target="_top" xlink:title=" ">
<polygon fill="white" stroke="#666666" points="962.25,-493.81 845.75,-493.81 845.75,-461.81 962.25,-461.81 962.25,-493.81"/>
<text text-anchor="start" x="853.75" y="-480.31" font-family="Helvetica,sans-Serif" font-size="10.00">EmotiBitWiFiRoboTEA</text>
<text text-anchor="middle" x="904" y="-468.31" font-family="Helvetica,sans-Serif" font-size="10.00">::getLocalIPs</text>
</a>
</g>
</g>
<!-- Node3&#45;&gt;Node4 -->
<g id="edge3_Node000003_Node000004" class="edge">
<title>Node3&#45;&gt;Node4</title>
<g id="a_edge3_Node000003_Node000004"><a xlink:title=" ">
<path fill="none" stroke="#63b8ff" d="M786.39,-444.19C801.88,-448.65 818.82,-453.54 834.87,-458.17"/>
<polygon fill="#63b8ff" stroke="#63b8ff" points="833.77,-461.49 844.35,-460.9 835.71,-454.77 833.77,-461.49"/>
</a>
</g>
</g>
<!-- Node5 -->
<g id="Node000005" class="node">
<title>Node5</title>
<g id="a_Node000005"><a xlink:href="class_emoti_bit_wi_fi_robo_t_e_a.html#a932279040f097f60fd486163972c328c" target="_top" xlink:title=" ">
<polygon fill="white" stroke="#666666" points="966.75,-393.81 841.25,-393.81 841.25,-361.81 966.75,-361.81 966.75,-393.81"/>
<text text-anchor="start" x="849.25" y="-380.31" font-family="Helvetica,sans-Serif" font-size="10.00">EmotiBitWiFiRoboTEA</text>
<text text-anchor="middle" x="904" y="-368.31" font-family="Helvetica,sans-Serif" font-size="10.00">::isInNetworkExcludeList</text>
</a>
</g>
</g>
<!-- Node3&#45;&gt;Node5 -->
<g id="edge4_Node000003_Node000005" class="edge">
<title>Node3&#45;&gt;Node5</title>
<g id="a_edge4_Node000003_Node000005"><a xlink:title=" ">
<path fill="none" stroke="#63b8ff" d="M786.39,-411.44C801.88,-406.98 818.82,-402.09 834.87,-397.46"/>
<polygon fill="#63b8ff" stroke="#63b8ff" points="835.71,-400.86 844.35,-394.73 833.77,-394.14 835.71,-400.86"/>
</a>
</g>
</g>
<!-- Node7 -->
<g id="Node000007" class="node">
<title>Node7</title>
<g id="a_Node000007"><a xlink:href="class_emoti_bit_wi_fi_robo_t_e_a.html#a3677dd6ccbfe65acceb8c9b53e7df2a4" target="_top" xlink:title=" ">
<polygon fill="white" stroke="#666666" points="964.88,-443.81 843.12,-443.81 843.12,-411.81 964.88,-411.81 964.88,-443.81"/>
<text text-anchor="start" x="851.12" y="-430.31" font-family="Helvetica,sans-Serif" font-size="10.00">EmotiBitWiFiRoboTEA</text>
<text text-anchor="middle" x="904" y="-418.31" font-family="Helvetica,sans-Serif" font-size="10.00">::isInNetworkIncludeList</text>
</a>
</g>
</g>
<!-- Node3&#45;&gt;Node7 -->
<g id="edge6_Node000003_Node000007" class="edge">
<title>Node3&#45;&gt;Node7</title>
<g id="a_edge6_Node000003_Node000007"><a xlink:title=" ">
<path fill="none" stroke="#63b8ff" d="M787.36,-427.81C801.56,-427.81 816.94,-427.81 831.71,-427.81"/>
<polygon fill="#63b8ff" stroke="#63b8ff" points="831.34,-431.31 841.34,-427.81 831.34,-424.31 831.34,-431.31"/>
</a>
</g>
</g>
<!-- Node6 -->
<g id="Node000006" class="node">
<title>Node6</title>
<g id="a_Node000006"><a xlink:href="class_emoti_bit_wi_fi_robo_t_e_a.html#ad3a7e685f53ec9d95050561d3b3fdef3" target="_top" xlink:title=" ">
<polygon fill="white" stroke="#666666" points="1119.25,-418.81 1002.75,-418.81 1002.75,-386.81 1119.25,-386.81 1119.25,-418.81"/>
<text text-anchor="start" x="1010.75" y="-405.31" font-family="Helvetica,sans-Serif" font-size="10.00">EmotiBitWiFiRoboTEA</text>
<text text-anchor="middle" x="1061" y="-393.31" font-family="Helvetica,sans-Serif" font-size="10.00">::isInNetworkList</text>
</a>
</g>
</g>
<!-- Node5&#45;&gt;Node6 -->
<g id="edge5_Node000005_Node000006" class="edge">
<title>Node5&#45;&gt;Node6</title>
<g id="a_edge5_Node000005_Node000006"><a xlink:title=" ">
<path fill="none" stroke="#63b8ff" d="M967.15,-387.84C975.05,-389.11 983.17,-390.42 991.17,-391.71"/>
<polygon fill="#63b8ff" stroke="#63b8ff" points="990.43,-395.14 1000.86,-393.28 991.55,-388.23 990.43,-395.14"/>
</a>
</g>
</g>
<!-- Node7&#45;&gt;Node6 -->
<g id="edge7_Node000007_Node000006" class="edge">
<title>Node7&#45;&gt;Node6</title>
<g id="a_edge7_Node000007_Node000006"><a xlink:title=" ">
<path fill="none" stroke="#63b8ff" d="M965.37,-418.08C973.82,-416.71 982.56,-415.3 991.15,-413.92"/>
<polygon fill="#63b8ff" stroke="#63b8ff" points="991.52,-417.4 1000.84,-412.36 990.41,-410.49 991.52,-417.4"/>
</a>
</g>
</g>
<!-- Node9 -->
<g id="Node000009" class="node">
<title>Node9</title>
<g id="a_Node000009"><a xlink:href="class_emoti_bit_wi_fi_robo_t_e_a.html#a479561ab9243c7c085df1e01cfcf7f8b" target="_top" xlink:title=" ">
<polygon fill="white" stroke="#666666" points="440.25,-308.81 323.75,-308.81 323.75,-276.81 440.25,-276.81 440.25,-308.81"/>
<text text-anchor="start" x="331.75" y="-295.31" font-family="Helvetica,sans-Serif" font-size="10.00">EmotiBitWiFiRoboTEA</text>
<text text-anchor="middle" x="382" y="-283.31" font-family="Helvetica,sans-Serif" font-size="10.00">::processAdvertising</text>
</a>
</g>
</g>
<!-- Node8&#45;&gt;Node9 -->
<g id="edge9_Node000008_Node000009" class="edge">
<title>Node8&#45;&gt;Node9</title>
<g id="a_edge9_Node000008_Node000009"><a xlink:title=" ">
<path fill="none" stroke="#63b8ff" d="M288,-292.81C295.88,-292.81 303.93,-292.81 311.83,-292.81"/>
<polygon fill="#63b8ff" stroke="#63b8ff" points="311.76,-296.31 321.76,-292.81 311.76,-289.31 311.76,-296.31"/>
</a>
</g>
</g>
<!-- Node17 -->
<g id="Node000017" class="node">
<title>Node17</title>
<g id="a_Node000017"><a xlink:href="class_emoti_bit_wi_fi_robo_t_e_a.html#ae7b22f66bc205f148a1596adae8741a1" target="_top" xlink:title=" ">
<polygon fill="white" stroke="#666666" points="440.25,-258.81 323.75,-258.81 323.75,-226.81 440.25,-226.81 440.25,-258.81"/>
<text text-anchor="start" x="331.75" y="-245.31" font-family="Helvetica,sans-Serif" font-size="10.00">EmotiBitWiFiRoboTEA</text>
<text text-anchor="middle" x="382" y="-233.31" font-family="Helvetica,sans-Serif" font-size="10.00">::threadSleepFor</text>
</a>
</g>
</g>
<!-- Node8&#45;&gt;Node17 -->
<g id="edge20_Node000008_Node000017" class="edge">
<title>Node8&#45;&gt;Node17</title>
<g id="a_edge20_Node000008_Node000017"><a xlink:title=" ">
<path fill="none" stroke="#63b8ff" d="M273.47,-276.44C287.48,-272.06 302.77,-267.28 317.32,-262.73"/>
<polygon fill="#63b8ff" stroke="#63b8ff" points="318.32,-266.09 326.82,-259.76 316.23,-259.4 318.32,-266.09"/>
</a>
</g>
</g>
<!-- Node10 -->
<g id="Node000010" class="node">
<title>Node10</title>
<g id="a_Node000010"><a xlink:href="classq_emoti_bit_packet.html#ad39b7339e5dba5abc9d2d5b7a20a3315" target="_top" xlink:title="Crea un paquete EmotiBit a partir de datos en formato QString.">
<polygon fill="white" stroke="#666666" points="805.25,-374.81 652,-374.81 652,-354.81 805.25,-354.81 805.25,-374.81"/>
<text text-anchor="middle" x="728.62" y="-361.31" font-family="Helvetica,sans-Serif" font-size="10.00">qEmotiBitPacket::createPacket</text>
</a>
</g>
</g>
<!-- Node9&#45;&gt;Node10 -->
<g id="edge10_Node000009_Node000010" class="edge">
<title>Node9&#45;&gt;Node10</title>
<g id="a_edge10_Node000009_Node000010"><a xlink:title=" ">
<path fill="none" stroke="#63b8ff" d="M392.55,-309.03C407.18,-332.08 437.56,-373.34 476.25,-389.81 547.9,-420.32 641.1,-396.48 691.48,-379.01"/>
<polygon fill="#63b8ff" stroke="#63b8ff" points="692.49,-382.36 700.72,-375.69 690.12,-375.77 692.49,-382.36"/>
</a>
</g>
</g>
<!-- Node11 -->
<g id="Node000011" class="node">
<title>Node11</title>
<g id="a_Node000011"><a xlink:href="class_emoti_bit_wi_fi_robo_t_e_a.html#af1855addc34d9d45f04a50c350a76f56" target="_top" xlink:title=" ">
<polygon fill="white" stroke="#666666" points="604.38,-192.81 487.88,-192.81 487.88,-160.81 604.38,-160.81 604.38,-192.81"/>
<text text-anchor="start" x="495.88" y="-179.31" font-family="Helvetica,sans-Serif" font-size="10.00">EmotiBitWiFiRoboTEA</text>
<text text-anchor="middle" x="546.12" y="-167.31" font-family="Helvetica,sans-Serif" font-size="10.00">::flushData</text>
</a>
</g>
</g>
<!-- Node9&#45;&gt;Node11 -->
<g id="edge11_Node000009_Node000011" class="edge">
<title>Node9&#45;&gt;Node11</title>
<g id="a_edge11_Node000009_Node000011"><a xlink:title=" ">
<path fill="none" stroke="#63b8ff" d="M428.52,-276.41C432.73,-273.89 436.73,-271.04 440.25,-267.81 464.89,-245.25 450.91,-223.59 476.25,-201.81 477.19,-201.01 478.16,-200.22 479.15,-199.46"/>
<polygon fill="#63b8ff" stroke="#63b8ff" points="480.92,-202.49 487.4,-194.11 477.11,-196.62 480.92,-202.49"/>
</a>
</g>
</g>
<!-- Node12 -->
<g id="Node000012" class="node">
<title>Node12</title>
<g id="a_Node000012"><a xlink:href="classq_emoti_bit_packet.html#a9262319d6d9df0e2f7ecee825e9977f2" target="_top" xlink:title="Extrae el encabezado de un paquete a partir de su representación en texto completo.">
<polygon fill="white" stroke="#666666" points="798.88,-92.81 658.38,-92.81 658.38,-72.81 798.88,-72.81 798.88,-92.81"/>
<text text-anchor="middle" x="728.62" y="-79.31" font-family="Helvetica,sans-Serif" font-size="10.00">qEmotiBitPacket::getHeader</text>
</a>
</g>
</g>
<!-- Node9&#45;&gt;Node12 -->
<g id="edge12_Node000009_Node000012" class="edge">
<title>Node9&#45;&gt;Node12</title>
<g id="a_edge12_Node000009_Node000012"><a xlink:title=" ">
<path fill="none" stroke="#63b8ff" d="M430.89,-276.43C434.38,-273.94 437.57,-271.09 440.25,-267.81 488.09,-209.41 419.31,-151.39 476.25,-101.81 501.01,-80.26 583.05,-77.44 646.75,-78.8"/>
<polygon fill="#63b8ff" stroke="#63b8ff" points="646.41,-82.3 656.49,-79.05 646.59,-75.3 646.41,-82.3"/>
</a>
</g>
</g>
<!-- Node13 -->
<g id="Node000013" class="node">
<title>Node13</title>
<g id="a_Node000013"><a xlink:href="classq_emoti_bit_packet.html#a94508ded64f65eb9f9fbae50efa36208" target="_top" xlink:title="Busca y extrae el valor asociado a una clave (key) en un paquete representado como QStringList.">
<polygon fill="white" stroke="#666666" points="616,-330.81 476.25,-330.81 476.25,-298.81 616,-298.81 616,-330.81"/>
<text text-anchor="start" x="484.25" y="-317.31" font-family="Helvetica,sans-Serif" font-size="10.00">qEmotiBitPacket::getPacket</text>
<text text-anchor="middle" x="546.12" y="-305.31" font-family="Helvetica,sans-Serif" font-size="10.00">KeyedValue</text>
</a>
</g>
</g>
<!-- Node9&#45;&gt;Node13 -->
<g id="edge13_Node000009_Node000013" class="edge">
<title>Node9&#45;&gt;Node13</title>
<g id="a_edge13_Node000009_Node000013"><a xlink:title=" ">
<path fill="none" stroke="#63b8ff" d="M440.62,-300.63C448.35,-301.68 456.39,-302.77 464.43,-303.86"/>
<polygon fill="#63b8ff" stroke="#63b8ff" points="463.88,-307.32 474.26,-305.2 464.82,-300.39 463.88,-307.32"/>
</a>
</g>
</g>
<!-- Node14 -->
<g id="Node000014" class="node">
<title>Node14</title>
<g id="a_Node000014"><a xlink:href="class_emoti_bit_wi_fi_robo_t_e_a.html#abce274263f298bd5500d3ce59c61a9fc" target="_top" xlink:title=" ">
<polygon fill="white" stroke="#666666" points="604.38,-380.81 487.88,-380.81 487.88,-348.81 604.38,-348.81 604.38,-380.81"/>
<text text-anchor="start" x="495.88" y="-367.31" font-family="Helvetica,sans-Serif" font-size="10.00">EmotiBitWiFiRoboTEA</text>
<text text-anchor="middle" x="546.12" y="-355.31" font-family="Helvetica,sans-Serif" font-size="10.00">::sendAdvertising</text>
</a>
</g>
</g>
<!-- Node9&#45;&gt;Node14 -->
<g id="edge14_Node000009_Node000014" class="edge">
<title>Node9&#45;&gt;Node14</title>
<g id="a_edge14_Node000009_Node000014"><a xlink:title=" ">
<path fill="none" stroke="#63b8ff" d="M413.23,-309.2C431.27,-318.68 454.78,-330.55 476.25,-339.81 479.64,-341.28 483.14,-342.73 486.69,-344.15"/>
<polygon fill="#63b8ff" stroke="#63b8ff" points="485.41,-347.41 496,-347.78 487.95,-340.89 485.41,-347.41"/>
</a>
</g>
</g>
<!-- Node15 -->
<g id="Node000015" class="node">
<title>Node15</title>
<g id="a_Node000015"><a xlink:href="class_emoti_bit_wi_fi_robo_t_e_a.html#a038c54ef88640a7c9738a22f13ce96e8" target="_top" xlink:title=" ">
<polygon fill="white" stroke="#666666" points="786.88,-286.81 670.38,-286.81 670.38,-254.81 786.88,-254.81 786.88,-286.81"/>
<text text-anchor="start" x="678.38" y="-273.31" font-family="Helvetica,sans-Serif" font-size="10.00">EmotiBitWiFiRoboTEA</text>
<text text-anchor="middle" x="728.62" y="-261.31" font-family="Helvetica,sans-Serif" font-size="10.00">::sendDatagram</text>
</a>
</g>
</g>
<!-- Node9&#45;&gt;Node15 -->
<g id="edge18_Node000009_Node000015" class="edge">
<title>Node9&#45;&gt;Node15</title>
<g id="a_edge18_Node000009_Node000015"><a xlink:title=" ">
<path fill="none" stroke="#63b8ff" d="M440.68,-289.13C500.79,-285.3 594.94,-279.28 658.87,-275.2"/>
<polygon fill="#63b8ff" stroke="#63b8ff" points="658.77,-278.72 668.53,-274.59 658.33,-271.73 658.77,-278.72"/>
</a>
</g>
</g>
<!-- Node16 -->
<g id="Node000016" class="node">
<title>Node16</title>
<g id="a_Node000016"><a xlink:href="class_emoti_bit_wi_fi_robo_t_e_a.html#a07ad6db58721595b5c929633c9f419f5" target="_top" xlink:title=" ">
<polygon fill="white" stroke="#666666" points="608.12,-242.81 484.12,-242.81 484.12,-210.81 608.12,-210.81 608.12,-242.81"/>
<text text-anchor="start" x="492.12" y="-229.31" font-family="Helvetica,sans-Serif" font-size="10.00">EmotiBitWiFiRoboTEA</text>
<text text-anchor="middle" x="546.12" y="-217.31" font-family="Helvetica,sans-Serif" font-size="10.00">::updateAdvertisingIpList</text>
</a>
</g>
</g>
<!-- Node9&#45;&gt;Node16 -->
<g id="edge19_Node000009_Node000016" class="edge">
<title>Node9&#45;&gt;Node16</title>
<g id="a_edge19_Node000009_Node000016"><a xlink:title=" ">
<path fill="none" stroke="#63b8ff" d="M423.49,-276.33C444.95,-267.6 471.51,-256.78 494.34,-247.49"/>
<polygon fill="#63b8ff" stroke="#63b8ff" points="495.52,-250.79 503.47,-243.77 492.88,-244.3 495.52,-250.79"/>
</a>
</g>
</g>
<!-- Node14&#45;&gt;Node3 -->
<g id="edge16_Node000014_Node000003" class="edge">
<title>Node14&#45;&gt;Node3</title>
<g id="a_edge16_Node000014_Node000003"><a xlink:title=" ">
<path fill="none" stroke="#63b8ff" d="M594.08,-381.2C617.28,-389.3 645.49,-399.15 669.99,-407.7"/>
<polygon fill="#63b8ff" stroke="#63b8ff" points="668.57,-410.91 679.16,-410.9 670.88,-404.3 668.57,-410.91"/>
</a>
</g>
</g>
<!-- Node14&#45;&gt;Node10 -->
<g id="edge15_Node000014_Node000010" class="edge">
<title>Node14&#45;&gt;Node10</title>
<g id="a_edge15_Node000014_Node000010"><a xlink:title=" ">
<path fill="none" stroke="#63b8ff" d="M604.73,-364.81C616.19,-364.81 628.45,-364.81 640.64,-364.81"/>
<polygon fill="#63b8ff" stroke="#63b8ff" points="640.27,-368.31 650.27,-364.81 640.27,-361.31 640.27,-368.31"/>
</a>
</g>
</g>
<!-- Node14&#45;&gt;Node15 -->
<g id="edge17_Node000014_Node000015" class="edge">
<title>Node14&#45;&gt;Node15</title>
<g id="a_edge17_Node000014_Node000015"><a xlink:title=" ">
<path fill="none" stroke="#63b8ff" d="M596.18,-348.42C602.93,-345.76 609.7,-342.86 616,-339.81 643.74,-326.38 673.33,-307.88 695.08,-293.41"/>
<polygon fill="#63b8ff" stroke="#63b8ff" points="696.88,-296.42 703.22,-287.93 692.97,-290.61 696.88,-296.42"/>
</a>
</g>
</g>
<!-- Node18&#45;&gt;Node17 -->
<g id="edge22_Node000018_Node000017" class="edge">
<title>Node18&#45;&gt;Node17</title>
<g id="a_edge22_Node000018_Node000017"><a xlink:title=" ">
<path fill="none" stroke="#63b8ff" d="M278.84,-242.81C289.6,-242.81 300.93,-242.81 311.99,-242.81"/>
<polygon fill="#63b8ff" stroke="#63b8ff" points="311.85,-246.31 321.85,-242.81 311.85,-239.31 311.85,-246.31"/>
</a>
</g>
</g>
<!-- Node19 -->
<g id="Node000019" class="node">
<title>Node19</title>
<g id="a_Node000019"><a xlink:href="class_emoti_bit_wi_fi_robo_t_e_a.html#afa6092c5b41153887bc9faf76a775edc" target="_top" xlink:title=" ">
<polygon fill="white" stroke="#666666" points="440.25,-98.81 323.75,-98.81 323.75,-66.81 440.25,-66.81 440.25,-98.81"/>
<text text-anchor="start" x="331.75" y="-85.31" font-family="Helvetica,sans-Serif" font-size="10.00">EmotiBitWiFiRoboTEA</text>
<text text-anchor="middle" x="382" y="-73.31" font-family="Helvetica,sans-Serif" font-size="10.00">::updateData</text>
</a>
</g>
</g>
<!-- Node18&#45;&gt;Node19 -->
<g id="edge23_Node000018_Node000019" class="edge">
<title>Node18&#45;&gt;Node19</title>
<g id="a_edge23_Node000018_Node000019"><a xlink:title=" ">
<path fill="none" stroke="#63b8ff" d="M237.33,-226.59C265.58,-198.32 323.96,-139.9 356.94,-106.89"/>
<polygon fill="#63b8ff" stroke="#63b8ff" points="359.09,-109.7 363.68,-100.15 354.13,-104.75 359.09,-109.7"/>
</a>
</g>
</g>
<!-- Node19&#45;&gt;Node12 -->
<g id="edge24_Node000019_Node000012" class="edge">
<title>Node19&#45;&gt;Node12</title>
<g id="a_edge24_Node000019_Node000012"><a xlink:title=" ">
<path fill="none" stroke="#63b8ff" d="M398.32,-66.49C415.44,-49.57 444.88,-24.16 476.25,-13.81 535.24,5.64 556.25,3.16 616,-13.81 651.16,-23.8 686.09,-48.37 707.27,-65.32"/>
<polygon fill="#63b8ff" stroke="#63b8ff" points="704.87,-67.88 714.82,-71.53 709.32,-62.48 704.87,-67.88"/>
</a>
</g>
</g>
<!-- Node20 -->
<g id="Node000020" class="node">
<title>Node20</title>
<g id="a_Node000020"><a xlink:href="class_emoti_bit_wi_fi_robo_t_e_a.html#a1243dc4fc6cc69988dc5fb186d30c630" target="_top" xlink:title=" ">
<polygon fill="white" stroke="#666666" points="604.38,-54.81 487.88,-54.81 487.88,-22.81 604.38,-22.81 604.38,-54.81"/>
<text text-anchor="start" x="495.88" y="-41.31" font-family="Helvetica,sans-Serif" font-size="10.00">EmotiBitWiFiRoboTEA</text>
<text text-anchor="middle" x="546.12" y="-29.31" font-family="Helvetica,sans-Serif" font-size="10.00">::newDataPacket</text>
</a>
</g>
</g>
<!-- Node19&#45;&gt;Node20 -->
<g id="edge25_Node000019_Node000020" class="edge">
<title>Node19&#45;&gt;Node20</title>
<g id="a_edge25_Node000019_Node000020"><a xlink:title=" ">
<path fill="none" stroke="#63b8ff" d="M440.62,-67.18C452.25,-64.02 464.6,-60.67 476.56,-57.42"/>
<polygon fill="#63b8ff" stroke="#63b8ff" points="477.23,-60.87 485.96,-54.87 475.39,-54.11 477.23,-60.87"/>
</a>
</g>
</g>
<!-- Node21 -->
<g id="Node000021" class="node">
<title>Node21</title>
<g id="a_Node000021"><a xlink:href="class_emoti_bit_wi_fi_robo_t_e_a.html#a668d3244786b7408322174850ca44aaa" target="_top" xlink:title=" ">
<polygon fill="white" stroke="#666666" points="604.38,-142.81 487.88,-142.81 487.88,-110.81 604.38,-110.81 604.38,-142.81"/>
<text text-anchor="start" x="495.88" y="-129.31" font-family="Helvetica,sans-Serif" font-size="10.00">EmotiBitWiFiRoboTEA</text>
<text text-anchor="middle" x="546.12" y="-117.31" font-family="Helvetica,sans-Serif" font-size="10.00">::processRequestData</text>
</a>
</g>
</g>
<!-- Node19&#45;&gt;Node21 -->
<g id="edge26_Node000019_Node000021" class="edge">
<title>Node19&#45;&gt;Node21</title>
<g id="a_edge26_Node000019_Node000021"><a xlink:title=" ">
<path fill="none" stroke="#63b8ff" d="M440.62,-98.45C452.25,-101.61 464.6,-104.96 476.56,-108.21"/>
<polygon fill="#63b8ff" stroke="#63b8ff" points="475.39,-111.52 485.96,-110.76 477.23,-104.76 475.39,-111.52"/>
</a>
</g>
</g>
<!-- Node21&#45;&gt;Node10 -->
<g id="edge27_Node000021_Node000010" class="edge">
<title>Node21&#45;&gt;Node10</title>
<g id="a_edge27_Node000021_Node000010"><a xlink:title=" ">
<path fill="none" stroke="#63b8ff" d="M604.86,-142.52C608.97,-145.15 612.76,-148.22 616,-151.81 660.18,-200.81 618.19,-239.17 652,-295.81 664.56,-316.86 685.54,-335.26 702.22,-347.75"/>
<polygon fill="#63b8ff" stroke="#63b8ff" points="700.06,-350.51 710.22,-353.52 704.15,-344.83 700.06,-350.51"/>
</a>
</g>
</g>
<!-- Node21&#45;&gt;Node12 -->
<g id="edge28_Node000021_Node000012" class="edge">
<title>Node21&#45;&gt;Node12</title>
<g id="a_edge28_Node000021_Node000012"><a xlink:title=" ">
<path fill="none" stroke="#63b8ff" d="M604.73,-112.77C626.79,-107.4 651.84,-101.29 673.55,-96"/>
<polygon fill="#63b8ff" stroke="#63b8ff" points="674.21,-99.44 683.1,-93.67 672.55,-92.64 674.21,-99.44"/>
</a>
</g>
</g>
<!-- Node21&#45;&gt;Node15 -->
<g id="edge31_Node000021_Node000015" class="edge">
<title>Node21&#45;&gt;Node15</title>
<g id="a_edge31_Node000021_Node000015"><a xlink:title=" ">
<path fill="none" stroke="#63b8ff" d="M602.11,-143.26C607.02,-145.75 611.74,-148.59 616,-151.81 637.84,-168.33 633.79,-181.37 652,-201.81 666.39,-217.97 684.19,-234.36 698.91,-247.12"/>
<polygon fill="#63b8ff" stroke="#63b8ff" points="696.59,-249.74 706.47,-253.57 701.14,-244.41 696.59,-249.74"/>
</a>
</g>
</g>
<!-- Node22 -->
<g id="Node000022" class="node">
<title>Node22</title>
<g id="a_Node000022"><a xlink:href="classq_emoti_bit_packet.html#ac75acc92cc5927daebd32ab184a045cf" target="_top" xlink:title="Extrae un único elemento (campo) del paquete a partir de una posición dada.">
<polygon fill="white" stroke="#666666" points="798.5,-142.81 658.75,-142.81 658.75,-110.81 798.5,-110.81 798.5,-142.81"/>
<text text-anchor="start" x="666.75" y="-129.31" font-family="Helvetica,sans-Serif" font-size="10.00">qEmotiBitPacket::getPacket</text>
<text text-anchor="middle" x="728.62" y="-117.31" font-family="Helvetica,sans-Serif" font-size="10.00">Element</text>
</a>
</g>
</g>
<!-- Node21&#45;&gt;Node22 -->
<g id="edge29_Node000021_Node000022" class="edge">
<title>Node21&#45;&gt;Node22</title>
<g id="a_edge29_Node000021_Node000022"><a xlink:title=" ">
<path fill="none" stroke="#63b8ff" d="M604.73,-126.81C618.17,-126.81 632.71,-126.81 646.94,-126.81"/>
<polygon fill="#63b8ff" stroke="#63b8ff" points="646.74,-130.31 656.74,-126.81 646.74,-123.31 646.74,-130.31"/>
</a>
</g>
</g>
<!-- Node23 -->
<g id="Node000023" class="node">
<title>Node23</title>
<g id="a_Node000023"><a xlink:href="class_emoti_bit_wi_fi_robo_t_e_a.html#a625e99b73b5e371228dee00c0af567c2" target="_top" xlink:title=" ">
<polygon fill="white" stroke="#666666" points="786.88,-192.81 670.38,-192.81 670.38,-160.81 786.88,-160.81 786.88,-192.81"/>
<text text-anchor="start" x="678.38" y="-179.31" font-family="Helvetica,sans-Serif" font-size="10.00">EmotiBitWiFiRoboTEA</text>
<text text-anchor="middle" x="728.62" y="-167.31" font-family="Helvetica,sans-Serif" font-size="10.00">::getTimestampString</text>
</a>
</g>
</g>
<!-- Node21&#45;&gt;Node23 -->
<g id="edge30_Node000021_Node000023" class="edge">
<title>Node21&#45;&gt;Node23</title>
<g id="a_edge30_Node000021_Node000023"><a xlink:title=" ">
<path fill="none" stroke="#63b8ff" d="M604.73,-142.77C621.99,-147.55 641.09,-152.84 658.99,-157.8"/>
<polygon fill="#63b8ff" stroke="#63b8ff" points="657.92,-161.14 668.49,-160.43 659.78,-154.39 657.92,-161.14"/>
</a>
</g>
</g>
</g>
</svg>

<g id="navigator" transform="translate(0 0)" fill="#404254">
  <rect fill="#f2f5e9" fill-opacity="0.5" stroke="#606060" stroke-width=".5" x="0" y="0" width="60" height="60"/>
  <use id="zoomplus" xlink:href="#zoomPlus" x="17" y="9" onmousedown="handleZoom(evt,'in')"/>
  <use id="zoomminus" xlink:href="#zoomMin" x="42" y="9" onmousedown="handleZoom(evt,'out')"/>
  <use id="reset" xlink:href="#resetDef" x="30" y="36" onmousedown="handleReset()"/>
   <use id="arrowup" xlink:href="#arrowUp" x="0" y="0" onmousedown="handlePan(0,-1)"/>
  <use id="arrowright" xlink:href="#arrowRight" x="0" y="0" onmousedown="handlePan(1,0)"/>
  <use id="arrowdown" xlink:href="#arrowDown" x="0" y="0" onmousedown="handlePan(0,1)"/>
  <use id="arrowleft" xlink:href="#arrowLeft" x="0" y="0" onmousedown="handlePan(-1,0)"/>
</g>
<svg viewBox="0 0 15 15" width="100%" height="30px" preserveAspectRatio="xMaxYMin meet">
 <g id="arrow_out" transform="scale(0.3 0.3)">
  <a xlink:href="class_emoti_bit_wi_fi_robo_t_e_a_afb3095e8c8643fae1da87c36e97d745a_cgraph_org.svg" target="_base">
   <rect id="button" ry="5" rx="5" y="6" x="6" height="38" width="38"
        fill="#f2f5e9" fill-opacity="0.5" stroke="#606060" stroke-width="1.0"/>
   <path id="arrow"
     d="M 11.500037,31.436501 C 11.940474,20.09759 22.043105,11.32322 32.158766,21.979434 L 37.068811,17.246167 C 37.068811,17.246167 37.088388,32 37.088388,32 L 22.160133,31.978069 C 22.160133,31.978069 26.997745,27.140456 26.997745,27.140456 C 18.528582,18.264221 13.291696,25.230495 11.500037,31.436501 z"
     style="fill:#404040;"/>
  </a>
 </g>
</svg>

<style type='text/css'>
<![CDATA[
[data-mouse-over-selected='false'] { opacity: 0.7; }
[data-mouse-over-selected='true']  { opacity: 1.0; }
]]>
</style>
<script type="application/ecmascript"><![CDATA[
document.addEventListener('DOMContentLoaded', (event) => {
  highlightEdges();
  highlightAdjacentNodes();
});
]]></script>
</svg>
