<?xml version="1.0" encoding="UTF-8" standalone="no"?>
<!DOCTYPE svg PUBLIC "-//W3C//DTD SVG 1.1//EN"
 "http://www.w3.org/Graphics/SVG/1.1/DTD/svg11.dtd">
<!-- Generated by graphviz version 12.2.1 (20241206.2353)
 -->
<!-- Title: EmotiBitWiFiRoboTEA::processRequestData Pages: 1 -->
<svg width="314pt" height="216pt"
 viewBox="0.00 0.00 313.75 216.00" xmlns="http://www.w3.org/2000/svg" xmlns:xlink="http://www.w3.org/1999/xlink">

<svg id="main" version="1.1" xmlns="http://www.w3.org/2000/svg" xmlns:xlink="http://www.w3.org/1999/xlink" xml:space="preserve">

<style type="text/css"><![CDATA[
.node, .edge {opacity: 0.7;}
.node.selected, .edge.selected {opacity: 1;}
.edge:hover path { stroke: red; }
.edge:hover polygon { stroke: red; fill: red; }
]]></style>
<script type="application/ecmascript" xlink:href="svg.min.js"/>
<svg id="graph" class="graph">
<g id="graph0" class="graph" transform="scale(1 1) rotate(0) translate(4 212)">
<title>EmotiBitWiFiRoboTEA::processRequestData</title>
<!-- Node1 -->
<g id="Node000001" class="node">
<title>Node1</title>
<g id="a_Node000001"><a xlink:title=" ">
<polygon fill="#999999" stroke="#666666" points="116.5,-132 0,-132 0,-100 116.5,-100 116.5,-132"/>
<text text-anchor="start" x="8" y="-118.5" font-family="Helvetica,sans-Serif" font-size="10.00">EmotiBitWiFiRoboTEA</text>
<text text-anchor="middle" x="58.25" y="-106.5" font-family="Helvetica,sans-Serif" font-size="10.00">::processRequestData</text>
</a>
</g>
</g>
<!-- Node2 -->
<g id="Node000002" class="node">
<title>Node2</title>
<g id="a_Node000002"><a xlink:href="classq_emoti_bit_packet.html#ad39b7339e5dba5abc9d2d5b7a20a3315" target="_top" xlink:title="Crea un paquete EmotiBit a partir de datos en formato QString.">
<polygon fill="white" stroke="#666666" points="305.75,-208 152.5,-208 152.5,-188 305.75,-188 305.75,-208"/>
<text text-anchor="middle" x="229.12" y="-194.5" font-family="Helvetica,sans-Serif" font-size="10.00">qEmotiBitPacket::createPacket</text>
</a>
</g>
</g>
<!-- Node1&#45;&gt;Node2 -->
<g id="edge1_Node000001_Node000002" class="edge">
<title>Node1&#45;&gt;Node2</title>
<g id="a_edge1_Node000001_Node000002"><a xlink:title=" ">
<path fill="none" stroke="#63b8ff" d="M79.13,-132.47C97.23,-146.69 125.21,-166.81 152.5,-179 156.74,-180.89 161.2,-182.62 165.75,-184.2"/>
<polygon fill="#63b8ff" stroke="#63b8ff" points="164.43,-187.45 175.02,-187.13 166.54,-180.77 164.43,-187.45"/>
</a>
</g>
</g>
<!-- Node3 -->
<g id="Node000003" class="node">
<title>Node3</title>
<g id="a_Node000003"><a xlink:href="classq_emoti_bit_packet.html#a9262319d6d9df0e2f7ecee825e9977f2" target="_top" xlink:title="Extrae el encabezado de un paquete a partir de su representación en texto completo.">
<polygon fill="white" stroke="#666666" points="299.38,-170 158.88,-170 158.88,-150 299.38,-150 299.38,-170"/>
<text text-anchor="middle" x="229.12" y="-156.5" font-family="Helvetica,sans-Serif" font-size="10.00">qEmotiBitPacket::getHeader</text>
</a>
</g>
</g>
<!-- Node1&#45;&gt;Node3 -->
<g id="edge2_Node000001_Node000003" class="edge">
<title>Node1&#45;&gt;Node3</title>
<g id="a_edge2_Node000001_Node000003"><a xlink:title=" ">
<path fill="none" stroke="#63b8ff" d="M116.91,-131.61C128.68,-134.75 140.98,-138.01 152.5,-141 159.81,-142.9 167.52,-144.87 175.11,-146.79"/>
<polygon fill="#63b8ff" stroke="#63b8ff" points="174.07,-150.14 184.63,-149.19 175.79,-143.35 174.07,-150.14"/>
</a>
</g>
</g>
<!-- Node4 -->
<g id="Node000004" class="node">
<title>Node4</title>
<g id="a_Node000004"><a xlink:href="classq_emoti_bit_packet.html#ac75acc92cc5927daebd32ab184a045cf" target="_top" xlink:title="Extrae un único elemento (campo) del paquete a partir de una posición dada.">
<polygon fill="white" stroke="#666666" points="299,-132 159.25,-132 159.25,-100 299,-100 299,-132"/>
<text text-anchor="start" x="167.25" y="-118.5" font-family="Helvetica,sans-Serif" font-size="10.00">qEmotiBitPacket::getPacket</text>
<text text-anchor="middle" x="229.12" y="-106.5" font-family="Helvetica,sans-Serif" font-size="10.00">Element</text>
</a>
</g>
</g>
<!-- Node1&#45;&gt;Node4 -->
<g id="edge3_Node000001_Node000004" class="edge">
<title>Node1&#45;&gt;Node4</title>
<g id="a_edge3_Node000001_Node000004"><a xlink:title=" ">
<path fill="none" stroke="#63b8ff" d="M116.89,-116C126.79,-116 137.23,-116 147.59,-116"/>
<polygon fill="#63b8ff" stroke="#63b8ff" points="147.26,-119.5 157.26,-116 147.26,-112.5 147.26,-119.5"/>
</a>
</g>
</g>
<!-- Node5 -->
<g id="Node000005" class="node">
<title>Node5</title>
<g id="a_Node000005"><a xlink:href="class_emoti_bit_wi_fi_robo_t_e_a.html#a625e99b73b5e371228dee00c0af567c2" target="_top" xlink:title=" ">
<polygon fill="white" stroke="#666666" points="287.38,-82 170.88,-82 170.88,-50 287.38,-50 287.38,-82"/>
<text text-anchor="start" x="178.88" y="-68.5" font-family="Helvetica,sans-Serif" font-size="10.00">EmotiBitWiFiRoboTEA</text>
<text text-anchor="middle" x="229.12" y="-56.5" font-family="Helvetica,sans-Serif" font-size="10.00">::getTimestampString</text>
</a>
</g>
</g>
<!-- Node1&#45;&gt;Node5 -->
<g id="edge4_Node000001_Node000005" class="edge">
<title>Node1&#45;&gt;Node5</title>
<g id="a_edge4_Node000001_Node000005"><a xlink:title=" ">
<path fill="none" stroke="#63b8ff" d="M114.55,-99.63C129.63,-95.16 146.13,-90.28 161.76,-85.65"/>
<polygon fill="#63b8ff" stroke="#63b8ff" points="162.37,-89.12 170.96,-82.92 160.38,-82.41 162.37,-89.12"/>
</a>
</g>
</g>
<!-- Node6 -->
<g id="Node000006" class="node">
<title>Node6</title>
<g id="a_Node000006"><a xlink:href="class_emoti_bit_wi_fi_robo_t_e_a.html#a038c54ef88640a7c9738a22f13ce96e8" target="_top" xlink:title=" ">
<polygon fill="white" stroke="#666666" points="287.38,-32 170.88,-32 170.88,0 287.38,0 287.38,-32"/>
<text text-anchor="start" x="178.88" y="-18.5" font-family="Helvetica,sans-Serif" font-size="10.00">EmotiBitWiFiRoboTEA</text>
<text text-anchor="middle" x="229.12" y="-6.5" font-family="Helvetica,sans-Serif" font-size="10.00">::sendDatagram</text>
</a>
</g>
</g>
<!-- Node1&#45;&gt;Node6 -->
<g id="edge5_Node000001_Node000006" class="edge">
<title>Node1&#45;&gt;Node6</title>
<g id="a_edge5_Node000001_Node000006"><a xlink:title=" ">
<path fill="none" stroke="#63b8ff" d="M75.78,-99.6C93.45,-82.85 122.94,-57.09 152.5,-41 155.14,-39.56 157.88,-38.19 160.68,-36.88"/>
<polygon fill="#63b8ff" stroke="#63b8ff" points="161.84,-40.19 169.64,-33.01 159.07,-33.76 161.84,-40.19"/>
</a>
</g>
</g>
</g>
</svg>
</svg>

<style type='text/css'>
<![CDATA[
[data-mouse-over-selected='false'] { opacity: 0.7; }
[data-mouse-over-selected='true']  { opacity: 1.0; }
]]>
</style>
<script type="application/ecmascript"><![CDATA[
document.addEventListener('DOMContentLoaded', (event) => {
  highlightEdges();
  highlightAdjacentNodes();
});
]]></script>
</svg>
