<?xml version="1.0" encoding="UTF-8" standalone="no"?>
<!DOCTYPE svg PUBLIC "-//W3C//DTD SVG 1.1//EN"
 "http://www.w3.org/Graphics/SVG/1.1/DTD/svg11.dtd">
<!-- Generated by graphviz version 12.2.1 (20241206.2353)
 -->
<!-- Title: EmotiBitWiFiRoboTEA::sendDatagram Pages: 1 -->
<svg width="759pt" height="228pt"
 viewBox="0.00 0.00 759.25 228.00" xmlns="http://www.w3.org/2000/svg" xmlns:xlink="http://www.w3.org/1999/xlink">
<g id="graph0" class="graph" transform="scale(1 1) rotate(0) translate(4 224)">
<title>EmotiBitWiFiRoboTEA::sendDatagram</title>
<!-- Node1 -->
<g id="Node000001" class="node">
<title>Node1</title>
<g id="a_Node000001"><a xlink:title=" ">
<polygon fill="#999999" stroke="#666666" points="751.25,-132 634.75,-132 634.75,-100 751.25,-100 751.25,-132"/>
<text text-anchor="start" x="642.75" y="-118.5" font-family="Helvetica,sans-Serif" font-size="10.00">EmotiBitWiFiRoboTEA</text>
<text text-anchor="middle" x="693" y="-106.5" font-family="Helvetica,sans-Serif" font-size="10.00">::sendDatagram</text>
</a>
</g>
</g>
<!-- Node2 -->
<g id="Node000002" class="node">
<title>Node2</title>
<g id="a_Node000002"><a xlink:href="class_emoti_bit_wi_fi_robo_t_e_a.html#a5bae8482b46f2e960f044926995bee19" target="_top" xlink:title="Constructor de la clase EmotiBitWiFiRoboTEA.">
<polygon fill="white" stroke="#666666" points="598.75,-220 476.25,-220 476.25,-188 598.75,-188 598.75,-220"/>
<text text-anchor="start" x="484.25" y="-206.5" font-family="Helvetica,sans-Serif" font-size="10.00">EmotiBitWiFiRoboTEA</text>
<text text-anchor="middle" x="537.5" y="-194.5" font-family="Helvetica,sans-Serif" font-size="10.00">::EmotiBitWiFiRoboTEA</text>
</a>
</g>
</g>
<!-- Node1&#45;&gt;Node2 -->
<g id="edge1_Node000001_Node000002" class="edge">
<title>Node1&#45;&gt;Node2</title>
<g id="a_edge1_Node000001_Node000002"><a xlink:title=" ">
<path fill="none" stroke="#63b8ff" d="M657.84,-138.32C640.4,-149.45 618.69,-162.86 598.75,-174 590.49,-178.61 581.42,-183.31 572.89,-187.58"/>
<polygon fill="#63b8ff" stroke="#63b8ff" points="659.26,-141.57 665.78,-133.23 655.48,-135.68 659.26,-141.57"/>
</a>
</g>
</g>
<!-- Node3 -->
<g id="Node000003" class="node">
<title>Node3</title>
<g id="a_Node000003"><a xlink:href="class_emoti_bit_wi_fi_robo_t_e_a.html#a479561ab9243c7c085df1e01cfcf7f8b" target="_top" xlink:title=" ">
<polygon fill="white" stroke="#666666" points="440.25,-132 323.75,-132 323.75,-100 440.25,-100 440.25,-132"/>
<text text-anchor="start" x="331.75" y="-118.5" font-family="Helvetica,sans-Serif" font-size="10.00">EmotiBitWiFiRoboTEA</text>
<text text-anchor="middle" x="382" y="-106.5" font-family="Helvetica,sans-Serif" font-size="10.00">::processAdvertising</text>
</a>
</g>
</g>
<!-- Node1&#45;&gt;Node3 -->
<g id="edge2_Node000001_Node000003" class="edge">
<title>Node1&#45;&gt;Node3</title>
<g id="a_edge2_Node000001_Node000003"><a xlink:title=" ">
<path fill="none" stroke="#63b8ff" d="M629.36,-135.19C619.22,-137.6 608.76,-139.68 598.75,-141 544.77,-148.11 530.23,-148.11 476.25,-141 462.62,-139.21 448.16,-136 434.79,-132.46"/>
<polygon fill="#63b8ff" stroke="#63b8ff" points="629.9,-138.66 638.74,-132.83 628.19,-131.87 629.9,-138.66"/>
</a>
</g>
</g>
<!-- Node6 -->
<g id="Node000006" class="node">
<title>Node6</title>
<g id="a_Node000006"><a xlink:href="class_emoti_bit_wi_fi_robo_t_e_a.html#a668d3244786b7408322174850ca44aaa" target="_top" xlink:title=" ">
<polygon fill="white" stroke="#666666" points="595.75,-82 479.25,-82 479.25,-50 595.75,-50 595.75,-82"/>
<text text-anchor="start" x="487.25" y="-68.5" font-family="Helvetica,sans-Serif" font-size="10.00">EmotiBitWiFiRoboTEA</text>
<text text-anchor="middle" x="537.5" y="-56.5" font-family="Helvetica,sans-Serif" font-size="10.00">::processRequestData</text>
</a>
</g>
</g>
<!-- Node1&#45;&gt;Node6 -->
<g id="edge5_Node000001_Node000006" class="edge">
<title>Node1&#45;&gt;Node6</title>
<g id="a_edge5_Node000001_Node000006"><a xlink:title=" ">
<path fill="none" stroke="#63b8ff" d="M630.84,-96.08C617.01,-91.57 602.48,-86.84 589.14,-82.49"/>
<polygon fill="#63b8ff" stroke="#63b8ff" points="629.71,-99.39 640.3,-99.16 631.87,-92.73 629.71,-99.39"/>
</a>
</g>
</g>
<!-- Node9 -->
<g id="Node000009" class="node">
<title>Node9</title>
<g id="a_Node000009"><a xlink:href="class_emoti_bit_wi_fi_robo_t_e_a.html#abce274263f298bd5500d3ce59c61a9fc" target="_top" xlink:title=" ">
<polygon fill="white" stroke="#666666" points="595.75,-132 479.25,-132 479.25,-100 595.75,-100 595.75,-132"/>
<text text-anchor="start" x="487.25" y="-118.5" font-family="Helvetica,sans-Serif" font-size="10.00">EmotiBitWiFiRoboTEA</text>
<text text-anchor="middle" x="537.5" y="-106.5" font-family="Helvetica,sans-Serif" font-size="10.00">::sendAdvertising</text>
</a>
</g>
</g>
<!-- Node1&#45;&gt;Node9 -->
<g id="edge9_Node000001_Node000009" class="edge">
<title>Node1&#45;&gt;Node9</title>
<g id="a_edge9_Node000001_Node000009"><a xlink:title=" ">
<path fill="none" stroke="#63b8ff" d="M623.11,-116C614.11,-116 604.96,-116 596.16,-116"/>
<polygon fill="#63b8ff" stroke="#63b8ff" points="622.89,-119.5 632.89,-116 622.89,-112.5 622.89,-119.5"/>
</a>
</g>
</g>
<!-- Node10 -->
<g id="Node000010" class="node">
<title>Node10</title>
<g id="a_Node000010"><a xlink:href="class_emoti_bit_wi_fi_robo_t_e_a.html#a93fb941f57fa8aca7186f5c4123a51e5" target="_top" xlink:title=" ">
<polygon fill="white" stroke="#666666" points="595.75,-32 479.25,-32 479.25,0 595.75,0 595.75,-32"/>
<text text-anchor="start" x="487.25" y="-18.5" font-family="Helvetica,sans-Serif" font-size="10.00">EmotiBitWiFiRoboTEA</text>
<text text-anchor="middle" x="537.5" y="-6.5" font-family="Helvetica,sans-Serif" font-size="10.00">::sendData</text>
</a>
</g>
</g>
<!-- Node1&#45;&gt;Node10 -->
<g id="edge11_Node000001_Node000010" class="edge">
<title>Node1&#45;&gt;Node10</title>
<g id="a_edge11_Node000001_Node000010"><a xlink:title=" ">
<path fill="none" stroke="#63b8ff" d="M666.69,-92.33C648.71,-76.38 623.47,-55.66 598.75,-41 593.59,-37.94 587.98,-35.07 582.33,-32.45"/>
<polygon fill="#63b8ff" stroke="#63b8ff" points="664,-94.62 673.77,-98.72 668.68,-89.42 664,-94.62"/>
</a>
</g>
</g>
<!-- Node4 -->
<g id="Node000004" class="node">
<title>Node4</title>
<g id="a_Node000004"><a xlink:href="class_emoti_bit_wi_fi_robo_t_e_a.html#a69989a151b0cc117dce7b6d1df66f607" target="_top" xlink:title=" ">
<polygon fill="white" stroke="#666666" points="287.75,-132 152.5,-132 152.5,-100 287.75,-100 287.75,-132"/>
<text text-anchor="start" x="160.5" y="-118.5" font-family="Helvetica,sans-Serif" font-size="10.00">EmotiBitWiFiRoboTEA</text>
<text text-anchor="middle" x="220.12" y="-106.5" font-family="Helvetica,sans-Serif" font-size="10.00">::processAdvertisingThread</text>
</a>
</g>
</g>
<!-- Node3&#45;&gt;Node4 -->
<g id="edge3_Node000003_Node000004" class="edge">
<title>Node3&#45;&gt;Node4</title>
<g id="a_edge3_Node000003_Node000004"><a xlink:title=" ">
<path fill="none" stroke="#63b8ff" d="M311.84,-116C303.93,-116 295.88,-116 288,-116"/>
<polygon fill="#63b8ff" stroke="#63b8ff" points="311.77,-119.5 321.77,-116 311.77,-112.5 311.77,-119.5"/>
</a>
</g>
</g>
<!-- Node5 -->
<g id="Node000005" class="node">
<title>Node5</title>
<g id="a_Node000005"><a xlink:href="class_emoti_bit_wi_fi_robo_t_e_a.html#afb3095e8c8643fae1da87c36e97d745a" target="_top" xlink:title="Inicializa la conexión WiFi con el dispositivo EmotiBit.">
<polygon fill="white" stroke="#666666" points="116.5,-107 0,-107 0,-75 116.5,-75 116.5,-107"/>
<text text-anchor="start" x="8" y="-93.5" font-family="Helvetica,sans-Serif" font-size="10.00">EmotiBitWiFiRoboTEA</text>
<text text-anchor="middle" x="58.25" y="-81.5" font-family="Helvetica,sans-Serif" font-size="10.00">::begin</text>
</a>
</g>
</g>
<!-- Node4&#45;&gt;Node5 -->
<g id="edge4_Node000004_Node000005" class="edge">
<title>Node4&#45;&gt;Node5</title>
<g id="a_edge4_Node000004_Node000005"><a xlink:title=" ">
<path fill="none" stroke="#63b8ff" d="M140.9,-103.77C132.84,-102.51 124.75,-101.24 116.97,-100.03"/>
<polygon fill="#63b8ff" stroke="#63b8ff" points="140.33,-107.22 150.75,-105.31 141.42,-100.31 140.33,-107.22"/>
</a>
</g>
</g>
<!-- Node7 -->
<g id="Node000007" class="node">
<title>Node7</title>
<g id="a_Node000007"><a xlink:href="class_emoti_bit_wi_fi_robo_t_e_a.html#afa6092c5b41153887bc9faf76a775edc" target="_top" xlink:title=" ">
<polygon fill="white" stroke="#666666" points="440.25,-82 323.75,-82 323.75,-50 440.25,-50 440.25,-82"/>
<text text-anchor="start" x="331.75" y="-68.5" font-family="Helvetica,sans-Serif" font-size="10.00">EmotiBitWiFiRoboTEA</text>
<text text-anchor="middle" x="382" y="-56.5" font-family="Helvetica,sans-Serif" font-size="10.00">::updateData</text>
</a>
</g>
</g>
<!-- Node6&#45;&gt;Node7 -->
<g id="edge6_Node000006_Node000007" class="edge">
<title>Node6&#45;&gt;Node7</title>
<g id="a_edge6_Node000006_Node000007"><a xlink:title=" ">
<path fill="none" stroke="#63b8ff" d="M467.61,-66C458.61,-66 449.46,-66 440.66,-66"/>
<polygon fill="#63b8ff" stroke="#63b8ff" points="467.39,-69.5 477.39,-66 467.39,-62.5 467.39,-69.5"/>
</a>
</g>
</g>
<!-- Node8 -->
<g id="Node000008" class="node">
<title>Node8</title>
<g id="a_Node000008"><a xlink:href="class_emoti_bit_wi_fi_robo_t_e_a.html#a19f2caa38c7732e97a4bb4b7327e6358" target="_top" xlink:title=" ">
<polygon fill="white" stroke="#666666" points="278.38,-82 161.88,-82 161.88,-50 278.38,-50 278.38,-82"/>
<text text-anchor="start" x="169.88" y="-68.5" font-family="Helvetica,sans-Serif" font-size="10.00">EmotiBitWiFiRoboTEA</text>
<text text-anchor="middle" x="220.12" y="-56.5" font-family="Helvetica,sans-Serif" font-size="10.00">::updateDataThread</text>
</a>
</g>
</g>
<!-- Node7&#45;&gt;Node8 -->
<g id="edge7_Node000007_Node000008" class="edge">
<title>Node7&#45;&gt;Node8</title>
<g id="a_edge7_Node000007_Node000008"><a xlink:title=" ">
<path fill="none" stroke="#63b8ff" d="M311.9,-66C300.85,-66 289.51,-66 278.76,-66"/>
<polygon fill="#63b8ff" stroke="#63b8ff" points="311.77,-69.5 321.77,-66 311.77,-62.5 311.77,-69.5"/>
</a>
</g>
</g>
<!-- Node8&#45;&gt;Node5 -->
<g id="edge8_Node000008_Node000005" class="edge">
<title>Node8&#45;&gt;Node5</title>
<g id="a_edge8_Node000008_Node000005"><a xlink:title=" ">
<path fill="none" stroke="#63b8ff" d="M150.37,-76.75C139.21,-78.5 127.75,-80.29 116.88,-81.99"/>
<polygon fill="#63b8ff" stroke="#63b8ff" points="150.57,-80.26 159.91,-75.26 149.49,-73.35 150.57,-80.26"/>
</a>
</g>
</g>
<!-- Node9&#45;&gt;Node3 -->
<g id="edge10_Node000009_Node000003" class="edge">
<title>Node9&#45;&gt;Node3</title>
<g id="a_edge10_Node000009_Node000003"><a xlink:title=" ">
<path fill="none" stroke="#63b8ff" d="M467.61,-116C458.61,-116 449.46,-116 440.66,-116"/>
<polygon fill="#63b8ff" stroke="#63b8ff" points="467.39,-119.5 477.39,-116 467.39,-112.5 467.39,-119.5"/>
</a>
</g>
</g>
</g>
</svg>
