<?xml version="1.0" encoding="UTF-8" standalone="no"?>
<!DOCTYPE svg PUBLIC "-//W3C//DTD SVG 1.1//EN"
 "http://www.w3.org/Graphics/SVG/1.1/DTD/svg11.dtd">
<!-- Generated by graphviz version 12.2.1 (20241206.2353)
 -->
<!-- Title: EmotiBitWiFiRoboTEA::updateDataThread Pages: 1 -->
<!--zoomable 237 -->

<svg id="main" version="1.1" xmlns="http://www.w3.org/2000/svg" xmlns:xlink="http://www.w3.org/1999/xlink" xml:space="preserve" onload="init(evt)">

<style type="text/css"><![CDATA[
.node, .edge {opacity: 0.7;}
.node.selected, .edge.selected {opacity: 1;}
.edge:hover path { stroke: red; }
.edge:hover polygon { stroke: red; fill: red; }
]]></style>

<defs>
  <circle id="rim" cx="0" cy="0" r="7"/>
  <circle id="rim2" cx="0" cy="0" r="3.5"/>
  <g id="zoomPlus">
    <use xlink:href="#rim" fill="#404040"><set attributeName="fill" to="#808080" begin="zoomplus.mouseover" end="zoomplus.mouseout"/></use>
    <path d="M-4,0h8M0,-4v8" fill="none" stroke="white" stroke-width="1.5" pointer-events="none"/>
  </g>
  <g id="zoomMin">
    <use xlink:href="#rim" fill="#404040"><set attributeName="fill" to="#808080" begin="zoomminus.mouseover" end="zoomminus.mouseout"/></use>
    <path d="M-4,0h8" fill="none" stroke="white" stroke-width="1.5" pointer-events="none"/>
  </g>
  <g id="arrowUp" transform="translate(30 24)">
    <use xlink:href="#rim"/>
    <path pointer-events="none" fill="none" stroke="white" stroke-width="1.5" d="M0,-3.0v7 M-2.5,-0.5L0,-3.0L2.5,-0.5"/>
  </g>
  <g id="arrowRight" transform="rotate(90) translate(36 -43)">
    <use xlink:href="#rim"/>
    <path pointer-events="none" fill="none" stroke="white" stroke-width="1.5" d="M0,-3.0v7 M-2.5,-0.5L0,-3.0L2.5,-0.5"/>
  </g>
  <g id="arrowDown" transform="rotate(180) translate(-30 -48)">
    <use xlink:href="#rim"/>
    <path pointer-events="none" fill="none" stroke="white" stroke-width="1.5" d="M0,-3.0v7 M-2.5,-0.5L0,-3.0L2.5,-0.5"/>
  </g>
  <g id="arrowLeft" transform="rotate(270) translate(-36 17)">
    <use xlink:href="#rim"/>
    <path pointer-events="none" fill="none" stroke="white" stroke-width="1.5" d="M0,-3.0v7 M-2.5,-0.5L0,-3.0L2.5,-0.5"/>
  </g>
  <g id="resetDef">
    <use xlink:href="#rim2" fill="#404040"><set attributeName="fill" to="#808080" begin="reset.mouseover" end="reset.mouseout"/></use>
  </g>
</defs>
<script type="application/ecmascript">
var viewWidth = 619;
var viewHeight = 237;
var sectionId = 'dynsection-35';
</script>
<script type="application/ecmascript" xlink:href="svg.min.js"/>
<svg id="graph" class="graph">
<g id="viewport">
<title>EmotiBitWiFiRoboTEA::updateDataThread</title>
<!-- Node1 -->
<g id="Node000001" class="node">
<title>Node1</title>
<g id="a_Node000001"><a xlink:title=" ">
<polygon fill="#999999" stroke="#666666" points="116.5,-204 0,-204 0,-172 116.5,-172 116.5,-204"/>
<text text-anchor="start" x="8" y="-190.5" font-family="Helvetica,sans-Serif" font-size="10.00">EmotiBitWiFiRoboTEA</text>
<text text-anchor="middle" x="58.25" y="-178.5" font-family="Helvetica,sans-Serif" font-size="10.00">::updateDataThread</text>
</a>
</g>
</g>
<!-- Node2 -->
<g id="Node000002" class="node">
<title>Node2</title>
<g id="a_Node000002"><a xlink:href="class_emoti_bit_wi_fi_robo_t_e_a.html#ae7b22f66bc205f148a1596adae8741a1" target="_top" xlink:title=" ">
<polygon fill="white" stroke="#666666" points="269,-229 152.5,-229 152.5,-197 269,-197 269,-229"/>
<text text-anchor="start" x="160.5" y="-215.5" font-family="Helvetica,sans-Serif" font-size="10.00">EmotiBitWiFiRoboTEA</text>
<text text-anchor="middle" x="210.75" y="-203.5" font-family="Helvetica,sans-Serif" font-size="10.00">::threadSleepFor</text>
</a>
</g>
</g>
<!-- Node1&#45;&gt;Node2 -->
<g id="edge1_Node000001_Node000002" class="edge">
<title>Node1&#45;&gt;Node2</title>
<g id="a_edge1_Node000001_Node000002"><a xlink:title=" ">
<path fill="none" stroke="#63b8ff" d="M116.58,-197.52C124.48,-198.84 132.67,-200.2 140.75,-201.54"/>
<polygon fill="#63b8ff" stroke="#63b8ff" points="140.15,-204.99 150.59,-203.17 141.3,-198.08 140.15,-204.99"/>
</a>
</g>
</g>
<!-- Node3 -->
<g id="Node000003" class="node">
<title>Node3</title>
<g id="a_Node000003"><a xlink:href="class_emoti_bit_wi_fi_robo_t_e_a.html#afa6092c5b41153887bc9faf76a775edc" target="_top" xlink:title=" ">
<polygon fill="white" stroke="#666666" points="269,-179 152.5,-179 152.5,-147 269,-147 269,-179"/>
<text text-anchor="start" x="160.5" y="-165.5" font-family="Helvetica,sans-Serif" font-size="10.00">EmotiBitWiFiRoboTEA</text>
<text text-anchor="middle" x="210.75" y="-153.5" font-family="Helvetica,sans-Serif" font-size="10.00">::updateData</text>
</a>
</g>
</g>
<!-- Node1&#45;&gt;Node3 -->
<g id="edge2_Node000001_Node000003" class="edge">
<title>Node1&#45;&gt;Node3</title>
<g id="a_edge2_Node000001_Node000003"><a xlink:title=" ">
<path fill="none" stroke="#63b8ff" d="M116.58,-178.48C124.48,-177.16 132.67,-175.8 140.75,-174.46"/>
<polygon fill="#63b8ff" stroke="#63b8ff" points="141.3,-177.92 150.59,-172.83 140.15,-171.01 141.3,-177.92"/>
</a>
</g>
</g>
<!-- Node4 -->
<g id="Node000004" class="node">
<title>Node4</title>
<g id="a_Node000004"><a xlink:href="classq_emoti_bit_packet.html#a9262319d6d9df0e2f7ecee825e9977f2" target="_top" xlink:title="Extrae el encabezado de un paquete a partir de su representación en texto completo.">
<polygon fill="white" stroke="#666666" points="604.38,-211 463.88,-211 463.88,-191 604.38,-191 604.38,-211"/>
<text text-anchor="middle" x="534.12" y="-197.5" font-family="Helvetica,sans-Serif" font-size="10.00">qEmotiBitPacket::getHeader</text>
</a>
</g>
</g>
<!-- Node3&#45;&gt;Node4 -->
<g id="edge3_Node000003_Node000004" class="edge">
<title>Node3&#45;&gt;Node4</title>
<g id="a_edge3_Node000003_Node000004"><a xlink:title=" ">
<path fill="none" stroke="#63b8ff" d="M265.58,-179.44C278.39,-182.79 292.09,-185.92 305,-188 353.45,-195.79 408.34,-199.09 452.13,-200.41"/>
<polygon fill="#63b8ff" stroke="#63b8ff" points="451.99,-203.91 462.08,-200.68 452.18,-196.91 451.99,-203.91"/>
</a>
</g>
</g>
<!-- Node5 -->
<g id="Node000005" class="node">
<title>Node5</title>
<g id="a_Node000005"><a xlink:href="class_emoti_bit_wi_fi_robo_t_e_a.html#a1243dc4fc6cc69988dc5fb186d30c630" target="_top" xlink:title=" ">
<polygon fill="white" stroke="#666666" points="421.5,-179 305,-179 305,-147 421.5,-147 421.5,-179"/>
<text text-anchor="start" x="313" y="-165.5" font-family="Helvetica,sans-Serif" font-size="10.00">EmotiBitWiFiRoboTEA</text>
<text text-anchor="middle" x="363.25" y="-153.5" font-family="Helvetica,sans-Serif" font-size="10.00">::newDataPacket</text>
</a>
</g>
</g>
<!-- Node3&#45;&gt;Node5 -->
<g id="edge4_Node000003_Node000005" class="edge">
<title>Node3&#45;&gt;Node5</title>
<g id="a_edge4_Node000003_Node000005"><a xlink:title=" ">
<path fill="none" stroke="#63b8ff" d="M269.08,-163C276.98,-163 285.17,-163 293.25,-163"/>
<polygon fill="#63b8ff" stroke="#63b8ff" points="293.07,-166.5 303.07,-163 293.07,-159.5 293.07,-166.5"/>
</a>
</g>
</g>
<!-- Node6 -->
<g id="Node000006" class="node">
<title>Node6</title>
<g id="a_Node000006"><a xlink:href="class_emoti_bit_wi_fi_robo_t_e_a.html#a668d3244786b7408322174850ca44aaa" target="_top" xlink:title=" ">
<polygon fill="white" stroke="#666666" points="421.5,-129 305,-129 305,-97 421.5,-97 421.5,-129"/>
<text text-anchor="start" x="313" y="-115.5" font-family="Helvetica,sans-Serif" font-size="10.00">EmotiBitWiFiRoboTEA</text>
<text text-anchor="middle" x="363.25" y="-103.5" font-family="Helvetica,sans-Serif" font-size="10.00">::processRequestData</text>
</a>
</g>
</g>
<!-- Node3&#45;&gt;Node6 -->
<g id="edge5_Node000003_Node000006" class="edge">
<title>Node3&#45;&gt;Node6</title>
<g id="a_edge5_Node000003_Node000006"><a xlink:title=" ">
<path fill="none" stroke="#63b8ff" d="M261.03,-146.63C274.08,-142.29 288.33,-137.56 301.9,-133.05"/>
<polygon fill="#63b8ff" stroke="#63b8ff" points="302.78,-136.45 311.17,-129.97 300.57,-129.8 302.78,-136.45"/>
</a>
</g>
</g>
<!-- Node6&#45;&gt;Node4 -->
<g id="edge7_Node000006_Node000004" class="edge">
<title>Node6&#45;&gt;Node4</title>
<g id="a_edge7_Node000006_Node000004"><a xlink:title=" ">
<path fill="none" stroke="#63b8ff" d="M407.59,-129.45C412.46,-132.01 417.21,-134.86 421.5,-138 441.08,-152.31 437.04,-165.98 457.5,-179 461.95,-181.83 466.78,-184.31 471.77,-186.48"/>
<polygon fill="#63b8ff" stroke="#63b8ff" points="470.17,-189.61 480.76,-189.96 472.7,-183.08 470.17,-189.61"/>
</a>
</g>
</g>
<!-- Node7 -->
<g id="Node000007" class="node">
<title>Node7</title>
<g id="a_Node000007"><a xlink:href="classq_emoti_bit_packet.html#ad39b7339e5dba5abc9d2d5b7a20a3315" target="_top" xlink:title="Crea un paquete EmotiBit a partir de datos en formato QString.">
<polygon fill="white" stroke="#666666" points="610.75,-170 457.5,-170 457.5,-150 610.75,-150 610.75,-170"/>
<text text-anchor="middle" x="534.12" y="-156.5" font-family="Helvetica,sans-Serif" font-size="10.00">qEmotiBitPacket::createPacket</text>
</a>
</g>
</g>
<!-- Node6&#45;&gt;Node7 -->
<g id="edge6_Node000006_Node000007" class="edge">
<title>Node6&#45;&gt;Node7</title>
<g id="a_edge6_Node000006_Node000007"><a xlink:title=" ">
<path fill="none" stroke="#63b8ff" d="M417.39,-129.41C430.47,-133.33 444.46,-137.41 457.5,-141 464.52,-142.93 471.93,-144.9 479.25,-146.79"/>
<polygon fill="#63b8ff" stroke="#63b8ff" points="478.22,-150.13 488.78,-149.21 479.95,-143.35 478.22,-150.13"/>
</a>
</g>
</g>
<!-- Node8 -->
<g id="Node000008" class="node">
<title>Node8</title>
<g id="a_Node000008"><a xlink:href="classq_emoti_bit_packet.html#ac75acc92cc5927daebd32ab184a045cf" target="_top" xlink:title="Extrae un único elemento (campo) del paquete a partir de una posición dada.">
<polygon fill="white" stroke="#666666" points="604,-132 464.25,-132 464.25,-100 604,-100 604,-132"/>
<text text-anchor="start" x="472.25" y="-118.5" font-family="Helvetica,sans-Serif" font-size="10.00">qEmotiBitPacket::getPacket</text>
<text text-anchor="middle" x="534.12" y="-106.5" font-family="Helvetica,sans-Serif" font-size="10.00">Element</text>
</a>
</g>
</g>
<!-- Node6&#45;&gt;Node8 -->
<g id="edge8_Node000006_Node000008" class="edge">
<title>Node6&#45;&gt;Node8</title>
<g id="a_edge8_Node000006_Node000008"><a xlink:title=" ">
<path fill="none" stroke="#63b8ff" d="M421.89,-114.02C431.79,-114.2 442.23,-114.39 452.59,-114.57"/>
<polygon fill="#63b8ff" stroke="#63b8ff" points="452.2,-118.06 462.26,-114.74 452.33,-111.06 452.2,-118.06"/>
</a>
</g>
</g>
<!-- Node9 -->
<g id="Node000009" class="node">
<title>Node9</title>
<g id="a_Node000009"><a xlink:href="class_emoti_bit_wi_fi_robo_t_e_a.html#a625e99b73b5e371228dee00c0af567c2" target="_top" xlink:title=" ">
<polygon fill="white" stroke="#666666" points="592.38,-82 475.88,-82 475.88,-50 592.38,-50 592.38,-82"/>
<text text-anchor="start" x="483.88" y="-68.5" font-family="Helvetica,sans-Serif" font-size="10.00">EmotiBitWiFiRoboTEA</text>
<text text-anchor="middle" x="534.12" y="-56.5" font-family="Helvetica,sans-Serif" font-size="10.00">::getTimestampString</text>
</a>
</g>
</g>
<!-- Node6&#45;&gt;Node9 -->
<g id="edge9_Node000006_Node000009" class="edge">
<title>Node6&#45;&gt;Node9</title>
<g id="a_edge9_Node000006_Node000009"><a xlink:title=" ">
<path fill="none" stroke="#63b8ff" d="M421.89,-96.96C435.68,-93.12 450.52,-88.99 464.73,-85.03"/>
<polygon fill="#63b8ff" stroke="#63b8ff" points="465.3,-88.51 474,-82.46 463.42,-81.77 465.3,-88.51"/>
</a>
</g>
</g>
<!-- Node10 -->
<g id="Node000010" class="node">
<title>Node10</title>
<g id="a_Node000010"><a xlink:href="class_emoti_bit_wi_fi_robo_t_e_a.html#a038c54ef88640a7c9738a22f13ce96e8" target="_top" xlink:title=" ">
<polygon fill="white" stroke="#666666" points="592.38,-32 475.88,-32 475.88,0 592.38,0 592.38,-32"/>
<text text-anchor="start" x="483.88" y="-18.5" font-family="Helvetica,sans-Serif" font-size="10.00">EmotiBitWiFiRoboTEA</text>
<text text-anchor="middle" x="534.12" y="-6.5" font-family="Helvetica,sans-Serif" font-size="10.00">::sendDatagram</text>
</a>
</g>
</g>
<!-- Node6&#45;&gt;Node10 -->
<g id="edge10_Node000006_Node000010" class="edge">
<title>Node6&#45;&gt;Node10</title>
<g id="a_edge10_Node000006_Node000010"><a xlink:title=" ">
<path fill="none" stroke="#63b8ff" d="M381.56,-96.7C399.4,-80.64 428.6,-56.35 457.5,-41 460.21,-39.56 463.02,-38.18 465.89,-36.86"/>
<polygon fill="#63b8ff" stroke="#63b8ff" points="467.26,-40.09 475.09,-32.96 464.52,-33.64 467.26,-40.09"/>
</a>
</g>
</g>
</g>
</svg>

<g id="navigator" transform="translate(0 0)" fill="#404254">
  <rect fill="#f2f5e9" fill-opacity="0.5" stroke="#606060" stroke-width=".5" x="0" y="0" width="60" height="60"/>
  <use id="zoomplus" xlink:href="#zoomPlus" x="17" y="9" onmousedown="handleZoom(evt,'in')"/>
  <use id="zoomminus" xlink:href="#zoomMin" x="42" y="9" onmousedown="handleZoom(evt,'out')"/>
  <use id="reset" xlink:href="#resetDef" x="30" y="36" onmousedown="handleReset()"/>
   <use id="arrowup" xlink:href="#arrowUp" x="0" y="0" onmousedown="handlePan(0,-1)"/>
  <use id="arrowright" xlink:href="#arrowRight" x="0" y="0" onmousedown="handlePan(1,0)"/>
  <use id="arrowdown" xlink:href="#arrowDown" x="0" y="0" onmousedown="handlePan(0,1)"/>
  <use id="arrowleft" xlink:href="#arrowLeft" x="0" y="0" onmousedown="handlePan(-1,0)"/>
</g>
<svg viewBox="0 0 15 15" width="100%" height="30px" preserveAspectRatio="xMaxYMin meet">
 <g id="arrow_out" transform="scale(0.3 0.3)">
  <a xlink:href="class_emoti_bit_wi_fi_robo_t_e_a_a19f2caa38c7732e97a4bb4b7327e6358_cgraph_org.svg" target="_base">
   <rect id="button" ry="5" rx="5" y="6" x="6" height="38" width="38"
        fill="#f2f5e9" fill-opacity="0.5" stroke="#606060" stroke-width="1.0"/>
   <path id="arrow"
     d="M 11.500037,31.436501 C 11.940474,20.09759 22.043105,11.32322 32.158766,21.979434 L 37.068811,17.246167 C 37.068811,17.246167 37.088388,32 37.088388,32 L 22.160133,31.978069 C 22.160133,31.978069 26.997745,27.140456 26.997745,27.140456 C 18.528582,18.264221 13.291696,25.230495 11.500037,31.436501 z"
     style="fill:#404040;"/>
  </a>
 </g>
</svg>

<style type='text/css'>
<![CDATA[
[data-mouse-over-selected='false'] { opacity: 0.7; }
[data-mouse-over-selected='true']  { opacity: 1.0; }
]]>
</style>
<script type="application/ecmascript"><![CDATA[
document.addEventListener('DOMContentLoaded', (event) => {
  highlightEdges();
  highlightAdjacentNodes();
});
]]></script>
</svg>
