<?xml version="1.0" encoding="UTF-8" standalone="no"?>
<!DOCTYPE svg PUBLIC "-//W3C//DTD SVG 1.1//EN"
 "http://www.w3.org/Graphics/SVG/1.1/DTD/svg11.dtd">
<!-- Generated by graphviz version 12.2.1 (20241206.2353)
 -->
<!-- Title: EmotiBitController::startLocalRecording Pages: 1 -->
<svg width="249pt" height="90pt"
 viewBox="0.00 0.00 248.50 90.00" xmlns="http://www.w3.org/2000/svg" xmlns:xlink="http://www.w3.org/1999/xlink">
<g id="graph0" class="graph" transform="scale(1 1) rotate(0) translate(4 86)">
<title>EmotiBitController::startLocalRecording</title>
<!-- Node1 -->
<g id="Node000001" class="node">
<title>Node1</title>
<g id="a_Node000001"><a xlink:title=" ">
<polygon fill="#999999" stroke="#666666" points="109,-57 0,-57 0,-25 109,-25 109,-57"/>
<text text-anchor="start" x="8" y="-43.5" font-family="Helvetica,sans-Serif" font-size="10.00">EmotiBitController</text>
<text text-anchor="middle" x="54.5" y="-31.5" font-family="Helvetica,sans-Serif" font-size="10.00">::startLocalRecording</text>
</a>
</g>
</g>
<!-- Node2 -->
<g id="Node000002" class="node">
<title>Node2</title>
<g id="a_Node000002"><a xlink:href="class_emoti_bit_controller.html#ab6bc6250c9f147fa1456dfbba214e03d" target="_top" xlink:title=" ">
<polygon fill="white" stroke="#666666" points="240.5,-82 145,-82 145,-50 240.5,-50 240.5,-82"/>
<text text-anchor="start" x="153" y="-68.5" font-family="Helvetica,sans-Serif" font-size="10.00">EmotiBitController</text>
<text text-anchor="middle" x="192.75" y="-56.5" font-family="Helvetica,sans-Serif" font-size="10.00">::newMessage</text>
</a>
</g>
</g>
<!-- Node1&#45;&gt;Node2 -->
<g id="edge1_Node000001_Node000002" class="edge">
<title>Node1&#45;&gt;Node2</title>
<g id="a_edge1_Node000001_Node000002"><a xlink:title=" ">
<path fill="none" stroke="#63b8ff" d="M109.35,-50.88C117.34,-52.35 125.6,-53.86 133.67,-55.34"/>
<polygon fill="#63b8ff" stroke="#63b8ff" points="132.95,-58.77 143.41,-57.13 134.21,-51.88 132.95,-58.77"/>
</a>
</g>
</g>
<!-- Node3 -->
<g id="Node000003" class="node">
<title>Node3</title>
<g id="a_Node000003"><a xlink:href="class_emoti_bit_controller.html#a2323c1b7393aa36de8dbf2eba77f61d0" target="_top" xlink:title=" ">
<polygon fill="white" stroke="#666666" points="240.5,-32 145,-32 145,0 240.5,0 240.5,-32"/>
<text text-anchor="start" x="153" y="-18.5" font-family="Helvetica,sans-Serif" font-size="10.00">EmotiBitController</text>
<text text-anchor="middle" x="192.75" y="-6.5" font-family="Helvetica,sans-Serif" font-size="10.00">::sendNota</text>
</a>
</g>
</g>
<!-- Node1&#45;&gt;Node3 -->
<g id="edge2_Node000001_Node000003" class="edge">
<title>Node1&#45;&gt;Node3</title>
<g id="a_edge2_Node000001_Node000003"><a xlink:title=" ">
<path fill="none" stroke="#63b8ff" d="M109.35,-31.12C117.34,-29.65 125.6,-28.14 133.67,-26.66"/>
<polygon fill="#63b8ff" stroke="#63b8ff" points="134.21,-30.12 143.41,-24.87 132.95,-23.23 134.21,-30.12"/>
</a>
</g>
</g>
</g>
</svg>
