<?xml version="1.0" encoding="UTF-8" standalone="no"?>
<!DOCTYPE svg PUBLIC "-//W3C//DTD SVG 1.1//EN"
 "http://www.w3.org/Graphics/SVG/1.1/DTD/svg11.dtd">
<!-- Generated by graphviz version 12.2.1 (20241206.2353)
 -->
<!-- Title: EmotiBitWiFiRoboTEA::processAdvertising Pages: 1 -->
<svg width="804pt" height="289pt"
 viewBox="0.00 0.00 804.25 289.01" xmlns="http://www.w3.org/2000/svg" xmlns:xlink="http://www.w3.org/1999/xlink">
<g id="graph0" class="graph" transform="scale(1 1) rotate(0) translate(4 285.01)">
<title>EmotiBitWiFiRoboTEA::processAdvertising</title>
<!-- Node1 -->
<g id="Node000001" class="node">
<title>Node1</title>
<g id="a_Node000001"><a xlink:title=" ">
<polygon fill="#999999" stroke="#666666" points="116.5,-170 0,-170 0,-138 116.5,-138 116.5,-170"/>
<text text-anchor="start" x="8" y="-156.5" font-family="Helvetica,sans-Serif" font-size="10.00">EmotiBitWiFiRoboTEA</text>
<text text-anchor="middle" x="58.25" y="-144.5" font-family="Helvetica,sans-Serif" font-size="10.00">::processAdvertising</text>
</a>
</g>
</g>
<!-- Node2 -->
<g id="Node000002" class="node">
<title>Node2</title>
<g id="a_Node000002"><a xlink:href="classq_emoti_bit_packet.html#ad39b7339e5dba5abc9d2d5b7a20a3315" target="_top" xlink:title="Crea un paquete EmotiBit a partir de datos en formato QString.">
<polygon fill="white" stroke="#666666" points="482.25,-230 329,-230 329,-210 482.25,-210 482.25,-230"/>
<text text-anchor="middle" x="405.62" y="-216.5" font-family="Helvetica,sans-Serif" font-size="10.00">qEmotiBitPacket::createPacket</text>
</a>
</g>
</g>
<!-- Node1&#45;&gt;Node2 -->
<g id="edge1_Node000001_Node000002" class="edge">
<title>Node1&#45;&gt;Node2</title>
<g id="a_edge1_Node000001_Node000002"><a xlink:title=" ">
<path fill="none" stroke="#63b8ff" d="M66.75,-170.2C79.87,-196.32 109.71,-246.83 152.5,-267 228.33,-302.74 328.98,-260.49 376.94,-235.64"/>
<polygon fill="#63b8ff" stroke="#63b8ff" points="378.37,-238.84 385.54,-231.05 375.07,-232.66 378.37,-238.84"/>
</a>
</g>
</g>
<!-- Node3 -->
<g id="Node000003" class="node">
<title>Node3</title>
<g id="a_Node000003"><a xlink:href="class_emoti_bit_wi_fi_robo_t_e_a.html#af1855addc34d9d45f04a50c350a76f56" target="_top" xlink:title=" ">
<polygon fill="white" stroke="#666666" points="281,-258 164.5,-258 164.5,-226 281,-226 281,-258"/>
<text text-anchor="start" x="172.5" y="-244.5" font-family="Helvetica,sans-Serif" font-size="10.00">EmotiBitWiFiRoboTEA</text>
<text text-anchor="middle" x="222.75" y="-232.5" font-family="Helvetica,sans-Serif" font-size="10.00">::flushData</text>
</a>
</g>
</g>
<!-- Node1&#45;&gt;Node3 -->
<g id="edge2_Node000001_Node000003" class="edge">
<title>Node1&#45;&gt;Node3</title>
<g id="a_edge2_Node000001_Node000003"><a xlink:title=" ">
<path fill="none" stroke="#63b8ff" d="M80.17,-170.35C98.48,-184.11 126.2,-203.63 152.5,-217 155.33,-218.44 158.26,-219.83 161.25,-221.18"/>
<polygon fill="#63b8ff" stroke="#63b8ff" points="159.6,-224.28 170.17,-224.97 162.34,-217.84 159.6,-224.28"/>
</a>
</g>
</g>
<!-- Node4 -->
<g id="Node000004" class="node">
<title>Node4</title>
<g id="a_Node000004"><a xlink:href="classq_emoti_bit_packet.html#a9262319d6d9df0e2f7ecee825e9977f2" target="_top" xlink:title="Extrae el encabezado de un paquete a partir de su representación en texto completo.">
<polygon fill="white" stroke="#666666" points="293,-208 152.5,-208 152.5,-188 293,-188 293,-208"/>
<text text-anchor="middle" x="222.75" y="-194.5" font-family="Helvetica,sans-Serif" font-size="10.00">qEmotiBitPacket::getHeader</text>
</a>
</g>
</g>
<!-- Node1&#45;&gt;Node4 -->
<g id="edge3_Node000001_Node000004" class="edge">
<title>Node1&#45;&gt;Node4</title>
<g id="a_edge3_Node000001_Node000004"><a xlink:title=" ">
<path fill="none" stroke="#63b8ff" d="M117,-169.64C134.96,-174.5 154.59,-179.82 171.96,-184.52"/>
<polygon fill="#63b8ff" stroke="#63b8ff" points="170.98,-187.88 181.55,-187.11 172.81,-181.12 170.98,-187.88"/>
</a>
</g>
</g>
<!-- Node5 -->
<g id="Node000005" class="node">
<title>Node5</title>
<g id="a_Node000005"><a xlink:href="classq_emoti_bit_packet.html#a94508ded64f65eb9f9fbae50efa36208" target="_top" xlink:title="Busca y extrae el valor asociado a una clave (key) en un paquete representado como QStringList.">
<polygon fill="white" stroke="#666666" points="292.62,-170 152.88,-170 152.88,-138 292.62,-138 292.62,-170"/>
<text text-anchor="start" x="160.88" y="-156.5" font-family="Helvetica,sans-Serif" font-size="10.00">qEmotiBitPacket::getPacket</text>
<text text-anchor="middle" x="222.75" y="-144.5" font-family="Helvetica,sans-Serif" font-size="10.00">KeyedValue</text>
</a>
</g>
</g>
<!-- Node1&#45;&gt;Node5 -->
<g id="edge4_Node000001_Node000005" class="edge">
<title>Node1&#45;&gt;Node5</title>
<g id="a_edge4_Node000001_Node000005"><a xlink:title=" ">
<path fill="none" stroke="#63b8ff" d="M117,-154C124.81,-154 132.94,-154 141.06,-154"/>
<polygon fill="#63b8ff" stroke="#63b8ff" points="140.99,-157.5 150.99,-154 140.99,-150.5 140.99,-157.5"/>
</a>
</g>
</g>
<!-- Node6 -->
<g id="Node000006" class="node">
<title>Node6</title>
<g id="a_Node000006"><a xlink:href="class_emoti_bit_wi_fi_robo_t_e_a.html#abce274263f298bd5500d3ce59c61a9fc" target="_top" xlink:title=" ">
<polygon fill="white" stroke="#666666" points="281,-120 164.5,-120 164.5,-88 281,-88 281,-120"/>
<text text-anchor="start" x="172.5" y="-106.5" font-family="Helvetica,sans-Serif" font-size="10.00">EmotiBitWiFiRoboTEA</text>
<text text-anchor="middle" x="222.75" y="-94.5" font-family="Helvetica,sans-Serif" font-size="10.00">::sendAdvertising</text>
</a>
</g>
</g>
<!-- Node1&#45;&gt;Node6 -->
<g id="edge5_Node000001_Node000006" class="edge">
<title>Node1&#45;&gt;Node6</title>
<g id="a_edge5_Node000001_Node000006"><a xlink:title=" ">
<path fill="none" stroke="#63b8ff" d="M112.46,-137.63C126.83,-133.2 142.54,-128.37 157.46,-123.78"/>
<polygon fill="#63b8ff" stroke="#63b8ff" points="158.17,-127.23 166.7,-120.94 156.11,-120.54 158.17,-127.23"/>
</a>
</g>
</g>
<!-- Node12 -->
<g id="Node000012" class="node">
<title>Node12</title>
<g id="a_Node000012"><a xlink:href="class_emoti_bit_wi_fi_robo_t_e_a.html#a038c54ef88640a7c9738a22f13ce96e8" target="_top" xlink:title=" ">
<polygon fill="white" stroke="#666666" points="463.88,-76 347.38,-76 347.38,-44 463.88,-44 463.88,-76"/>
<text text-anchor="start" x="355.38" y="-62.5" font-family="Helvetica,sans-Serif" font-size="10.00">EmotiBitWiFiRoboTEA</text>
<text text-anchor="middle" x="405.62" y="-50.5" font-family="Helvetica,sans-Serif" font-size="10.00">::sendDatagram</text>
</a>
</g>
</g>
<!-- Node1&#45;&gt;Node12 -->
<g id="edge14_Node000001_Node000012" class="edge">
<title>Node1&#45;&gt;Node12</title>
<g id="a_edge14_Node000001_Node000012"><a xlink:title=" ">
<path fill="none" stroke="#63b8ff" d="M73.53,-137.73C90.38,-119.78 120.23,-91.75 152.5,-79 211.14,-55.83 283.35,-52.68 335.44,-54.38"/>
<polygon fill="#63b8ff" stroke="#63b8ff" points="335.25,-57.87 345.38,-54.78 335.53,-50.88 335.25,-57.87"/>
</a>
</g>
</g>
<!-- Node13 -->
<g id="Node000013" class="node">
<title>Node13</title>
<g id="a_Node000013"><a xlink:href="class_emoti_bit_wi_fi_robo_t_e_a.html#a07ad6db58721595b5c929633c9f419f5" target="_top" xlink:title=" ">
<polygon fill="white" stroke="#666666" points="284.75,-32 160.75,-32 160.75,0 284.75,0 284.75,-32"/>
<text text-anchor="start" x="168.75" y="-18.5" font-family="Helvetica,sans-Serif" font-size="10.00">EmotiBitWiFiRoboTEA</text>
<text text-anchor="middle" x="222.75" y="-6.5" font-family="Helvetica,sans-Serif" font-size="10.00">::updateAdvertisingIpList</text>
</a>
</g>
</g>
<!-- Node1&#45;&gt;Node13 -->
<g id="edge15_Node000001_Node000013" class="edge">
<title>Node1&#45;&gt;Node13</title>
<g id="a_edge15_Node000001_Node000013"><a xlink:title=" ">
<path fill="none" stroke="#63b8ff" d="M69.79,-137.69C85.41,-114.6 116.77,-72.26 152.5,-46 156.59,-42.99 161.03,-40.21 165.61,-37.65"/>
<polygon fill="#63b8ff" stroke="#63b8ff" points="167.17,-40.79 174.47,-33.1 163.97,-34.56 167.17,-40.79"/>
</a>
</g>
</g>
<!-- Node6&#45;&gt;Node2 -->
<g id="edge6_Node000006_Node000002" class="edge">
<title>Node6&#45;&gt;Node2</title>
<g id="a_edge6_Node000006_Node000002"><a xlink:title=" ">
<path fill="none" stroke="#63b8ff" d="M275.3,-120.39C281.41,-122.98 287.44,-125.85 293,-129 329.17,-149.48 365.44,-181.74 386.42,-201.84"/>
<polygon fill="#63b8ff" stroke="#63b8ff" points="383.74,-204.12 393.35,-208.58 388.63,-199.1 383.74,-204.12"/>
</a>
</g>
</g>
<!-- Node7 -->
<g id="Node000007" class="node">
<title>Node7</title>
<g id="a_Node000007"><a xlink:href="class_emoti_bit_wi_fi_robo_t_e_a.html#a7c5bb7f21f7a168274d428223917946d" target="_top" xlink:title=" ">
<polygon fill="white" stroke="#666666" points="464.25,-126 347,-126 347,-94 464.25,-94 464.25,-126"/>
<text text-anchor="start" x="355" y="-112.5" font-family="Helvetica,sans-Serif" font-size="10.00">EmotiBitWiFiRoboTEA</text>
<text text-anchor="middle" x="405.62" y="-100.5" font-family="Helvetica,sans-Serif" font-size="10.00">::getAvailableNetworks</text>
</a>
</g>
</g>
<!-- Node6&#45;&gt;Node7 -->
<g id="edge7_Node000006_Node000007" class="edge">
<title>Node6&#45;&gt;Node7</title>
<g id="a_edge7_Node000006_Node000007"><a xlink:title=" ">
<path fill="none" stroke="#63b8ff" d="M281.48,-105.91C298.52,-106.48 317.36,-107.11 335.07,-107.69"/>
<polygon fill="#63b8ff" stroke="#63b8ff" points="334.89,-111.19 345,-108.02 335.12,-104.19 334.89,-111.19"/>
</a>
</g>
</g>
<!-- Node6&#45;&gt;Node12 -->
<g id="edge13_Node000006_Node000012" class="edge">
<title>Node6&#45;&gt;Node12</title>
<g id="a_edge13_Node000006_Node000012"><a xlink:title=" ">
<path fill="none" stroke="#63b8ff" d="M281.48,-89.96C298.86,-85.73 318.1,-81.05 336.11,-76.67"/>
<polygon fill="#63b8ff" stroke="#63b8ff" points="336.78,-80.11 345.67,-74.34 335.12,-73.31 336.78,-80.11"/>
</a>
</g>
</g>
<!-- Node8 -->
<g id="Node000008" class="node">
<title>Node8</title>
<g id="a_Node000008"><a xlink:href="class_emoti_bit_wi_fi_robo_t_e_a.html#a7447abf3fade143a598184d65df41092" target="_top" xlink:title=" ">
<polygon fill="white" stroke="#666666" points="639.25,-176 522.75,-176 522.75,-144 639.25,-144 639.25,-176"/>
<text text-anchor="start" x="530.75" y="-162.5" font-family="Helvetica,sans-Serif" font-size="10.00">EmotiBitWiFiRoboTEA</text>
<text text-anchor="middle" x="581" y="-150.5" font-family="Helvetica,sans-Serif" font-size="10.00">::getLocalIPs</text>
</a>
</g>
</g>
<!-- Node7&#45;&gt;Node8 -->
<g id="edge8_Node000007_Node000008" class="edge">
<title>Node7&#45;&gt;Node8</title>
<g id="a_edge8_Node000007_Node000008"><a xlink:title=" ">
<path fill="none" stroke="#63b8ff" d="M463.39,-126.37C478.88,-130.84 495.82,-135.72 511.87,-140.35"/>
<polygon fill="#63b8ff" stroke="#63b8ff" points="510.77,-143.68 521.35,-143.09 512.71,-136.95 510.77,-143.68"/>
</a>
</g>
</g>
<!-- Node9 -->
<g id="Node000009" class="node">
<title>Node9</title>
<g id="a_Node000009"><a xlink:href="class_emoti_bit_wi_fi_robo_t_e_a.html#a932279040f097f60fd486163972c328c" target="_top" xlink:title=" ">
<polygon fill="white" stroke="#666666" points="643.75,-126 518.25,-126 518.25,-94 643.75,-94 643.75,-126"/>
<text text-anchor="start" x="526.25" y="-112.5" font-family="Helvetica,sans-Serif" font-size="10.00">EmotiBitWiFiRoboTEA</text>
<text text-anchor="middle" x="581" y="-100.5" font-family="Helvetica,sans-Serif" font-size="10.00">::isInNetworkExcludeList</text>
</a>
</g>
</g>
<!-- Node7&#45;&gt;Node9 -->
<g id="edge9_Node000007_Node000009" class="edge">
<title>Node7&#45;&gt;Node9</title>
<g id="a_edge9_Node000007_Node000009"><a xlink:title=" ">
<path fill="none" stroke="#63b8ff" d="M464.36,-110C477.88,-110 492.47,-110 506.57,-110"/>
<polygon fill="#63b8ff" stroke="#63b8ff" points="506.24,-113.5 516.24,-110 506.24,-106.5 506.24,-113.5"/>
</a>
</g>
</g>
<!-- Node11 -->
<g id="Node000011" class="node">
<title>Node11</title>
<g id="a_Node000011"><a xlink:href="class_emoti_bit_wi_fi_robo_t_e_a.html#a3677dd6ccbfe65acceb8c9b53e7df2a4" target="_top" xlink:title=" ">
<polygon fill="white" stroke="#666666" points="641.88,-76 520.12,-76 520.12,-44 641.88,-44 641.88,-76"/>
<text text-anchor="start" x="528.12" y="-62.5" font-family="Helvetica,sans-Serif" font-size="10.00">EmotiBitWiFiRoboTEA</text>
<text text-anchor="middle" x="581" y="-50.5" font-family="Helvetica,sans-Serif" font-size="10.00">::isInNetworkIncludeList</text>
</a>
</g>
</g>
<!-- Node7&#45;&gt;Node11 -->
<g id="edge11_Node000007_Node000011" class="edge">
<title>Node7&#45;&gt;Node11</title>
<g id="a_edge11_Node000007_Node000011"><a xlink:title=" ">
<path fill="none" stroke="#63b8ff" d="M463.39,-93.63C478.88,-89.16 495.82,-84.28 511.87,-79.65"/>
<polygon fill="#63b8ff" stroke="#63b8ff" points="512.71,-83.05 521.35,-76.91 510.77,-76.32 512.71,-83.05"/>
</a>
</g>
</g>
<!-- Node10 -->
<g id="Node000010" class="node">
<title>Node10</title>
<g id="a_Node000010"><a xlink:href="class_emoti_bit_wi_fi_robo_t_e_a.html#ad3a7e685f53ec9d95050561d3b3fdef3" target="_top" xlink:title=" ">
<polygon fill="white" stroke="#666666" points="796.25,-101 679.75,-101 679.75,-69 796.25,-69 796.25,-101"/>
<text text-anchor="start" x="687.75" y="-87.5" font-family="Helvetica,sans-Serif" font-size="10.00">EmotiBitWiFiRoboTEA</text>
<text text-anchor="middle" x="738" y="-75.5" font-family="Helvetica,sans-Serif" font-size="10.00">::isInNetworkList</text>
</a>
</g>
</g>
<!-- Node9&#45;&gt;Node10 -->
<g id="edge10_Node000009_Node000010" class="edge">
<title>Node9&#45;&gt;Node10</title>
<g id="a_edge10_Node000009_Node000010"><a xlink:title=" ">
<path fill="none" stroke="#63b8ff" d="M644.15,-99.98C652.05,-98.7 660.17,-97.39 668.17,-96.1"/>
<polygon fill="#63b8ff" stroke="#63b8ff" points="668.55,-99.59 677.86,-94.54 667.43,-92.68 668.55,-99.59"/>
</a>
</g>
</g>
<!-- Node11&#45;&gt;Node10 -->
<g id="edge12_Node000011_Node000010" class="edge">
<title>Node11&#45;&gt;Node10</title>
<g id="a_edge12_Node000011_Node000010"><a xlink:title=" ">
<path fill="none" stroke="#63b8ff" d="M642.37,-69.74C650.82,-71.1 659.56,-72.51 668.15,-73.9"/>
<polygon fill="#63b8ff" stroke="#63b8ff" points="667.41,-77.32 677.84,-75.46 668.52,-70.41 667.41,-77.32"/>
</a>
</g>
</g>
</g>
</svg>
