<?xml version="1.0" encoding="UTF-8" standalone="no"?>
<!DOCTYPE svg PUBLIC "-//W3C//DTD SVG 1.1//EN"
 "http://www.w3.org/Graphics/SVG/1.1/DTD/svg11.dtd">
<!-- Generated by graphviz version 12.2.1 (20241206.2353)
 -->
<!-- Title: EmotiBitController::newMessage Pages: 1 -->
<svg width="262pt" height="358pt"
 viewBox="0.00 0.00 262.00 358.00" xmlns="http://www.w3.org/2000/svg" xmlns:xlink="http://www.w3.org/1999/xlink">

<svg id="main" version="1.1" xmlns="http://www.w3.org/2000/svg" xmlns:xlink="http://www.w3.org/1999/xlink" xml:space="preserve">

<style type="text/css"><![CDATA[
.node, .edge {opacity: 0.7;}
.node.selected, .edge.selected {opacity: 1;}
.edge:hover path { stroke: red; }
.edge:hover polygon { stroke: red; fill: red; }
]]></style>
<script type="application/ecmascript" xlink:href="svg.min.js"/>
<svg id="graph" class="graph">
<g id="graph0" class="graph" transform="scale(1 1) rotate(0) translate(4 354)">
<title>EmotiBitController::newMessage</title>
<!-- Node1 -->
<g id="Node000001" class="node">
<title>Node1</title>
<g id="a_Node000001"><a xlink:title=" ">
<polygon fill="#999999" stroke="#666666" points="254,-182 158.5,-182 158.5,-150 254,-150 254,-182"/>
<text text-anchor="start" x="166.5" y="-168.5" font-family="Helvetica,sans-Serif" font-size="10.00">EmotiBitController</text>
<text text-anchor="middle" x="206.25" y="-156.5" font-family="Helvetica,sans-Serif" font-size="10.00">::newMessage</text>
</a>
</g>
</g>
<!-- Node2 -->
<g id="Node000002" class="node">
<title>Node2</title>
<g id="a_Node000002"><a xlink:href="class_emoti_bit_controller.html#aeec0ab533183f5ec3ef32dcf6f5e7764" target="_top" xlink:title=" ">
<polygon fill="white" stroke="#666666" points="110.12,-350 12.38,-350 12.38,-318 110.12,-318 110.12,-350"/>
<text text-anchor="start" x="20.38" y="-336.5" font-family="Helvetica,sans-Serif" font-size="10.00">EmotiBitController</text>
<text text-anchor="middle" x="61.25" y="-324.5" font-family="Helvetica,sans-Serif" font-size="10.00">::connectToDevice</text>
</a>
</g>
</g>
<!-- Node1&#45;&gt;Node2 -->
<g id="edge1_Node000001_Node000002" class="edge">
<title>Node1&#45;&gt;Node2</title>
<g id="a_edge1_Node000001_Node000002"><a xlink:title=" ">
<path fill="none" stroke="#63b8ff" d="M195.75,-193.13C183.4,-224.83 159,-277 122.5,-309 118.84,-312.21 114.71,-315.05 110.37,-317.55"/>
<polygon fill="#63b8ff" stroke="#63b8ff" points="198.99,-194.46 199.23,-183.87 192.44,-192 198.99,-194.46"/>
</a>
</g>
</g>
<!-- Node3 -->
<g id="Node000003" class="node">
<title>Node3</title>
<g id="a_Node000003"><a xlink:href="class_emoti_bit_controller.html#a34b8a66f1a7f1db085fc8ac615a3ce6b" target="_top" xlink:title=" ">
<polygon fill="white" stroke="#666666" points="122.5,-300 0,-300 0,-268 122.5,-268 122.5,-300"/>
<text text-anchor="start" x="8" y="-286.5" font-family="Helvetica,sans-Serif" font-size="10.00">EmotiBitController</text>
<text text-anchor="middle" x="61.25" y="-274.5" font-family="Helvetica,sans-Serif" font-size="10.00">::disconnectFromDevice</text>
</a>
</g>
</g>
<!-- Node1&#45;&gt;Node3 -->
<g id="edge2_Node000001_Node000003" class="edge">
<title>Node1&#45;&gt;Node3</title>
<g id="a_edge2_Node000001_Node000003"><a xlink:title=" ">
<path fill="none" stroke="#63b8ff" d="M187.82,-191.23C172.58,-211.75 148.8,-240.29 122.5,-259 118.07,-262.15 113.18,-265 108.17,-267.55"/>
<polygon fill="#63b8ff" stroke="#63b8ff" points="190.48,-193.53 193.51,-183.38 184.81,-189.42 190.48,-193.53"/>
</a>
</g>
</g>
<!-- Node4 -->
<g id="Node000004" class="node">
<title>Node4</title>
<g id="a_Node000004"><a xlink:href="class_form_vista_emoti_bit.html#ac8590bd020882bd3045898adeca7276d" target="_top" xlink:title="Constructor de VistaEmotibit.">
<polygon fill="white" stroke="#666666" points="113.5,-232 9,-232 9,-200 113.5,-200 113.5,-232"/>
<text text-anchor="start" x="17" y="-218.5" font-family="Helvetica,sans-Serif" font-size="10.00">FormVistaEmotiBit::</text>
<text text-anchor="middle" x="61.25" y="-206.5" font-family="Helvetica,sans-Serif" font-size="10.00">FormVistaEmotiBit</text>
</a>
</g>
</g>
<!-- Node1&#45;&gt;Node4 -->
<g id="edge3_Node000001_Node000004" class="edge">
<title>Node1&#45;&gt;Node4</title>
<g id="a_edge3_Node000001_Node000004"><a xlink:title=" ">
<path fill="none" stroke="#63b8ff" d="M147.83,-186.08C135,-190.56 121.53,-195.27 109.18,-199.59"/>
<polygon fill="#63b8ff" stroke="#63b8ff" points="148.71,-189.48 157,-182.87 146.4,-182.87 148.71,-189.48"/>
</a>
</g>
</g>
<!-- Node5 -->
<g id="Node000005" class="node">
<title>Node5</title>
<g id="a_Node000005"><a xlink:href="class_emoti_bit_controller.html#a7f780b74cdd5a000cb9a4cf1dbf276a8" target="_top" xlink:title=" ">
<polygon fill="white" stroke="#666666" points="115.75,-182 6.75,-182 6.75,-150 115.75,-150 115.75,-182"/>
<text text-anchor="start" x="14.75" y="-168.5" font-family="Helvetica,sans-Serif" font-size="10.00">EmotiBitController</text>
<text text-anchor="middle" x="61.25" y="-156.5" font-family="Helvetica,sans-Serif" font-size="10.00">::startLocalRecording</text>
</a>
</g>
</g>
<!-- Node1&#45;&gt;Node5 -->
<g id="edge5_Node000001_Node000005" class="edge">
<title>Node1&#45;&gt;Node5</title>
<g id="a_edge5_Node000001_Node000005"><a xlink:title=" ">
<path fill="none" stroke="#63b8ff" d="M146.77,-166C136.63,-166 126.12,-166 116.1,-166"/>
<polygon fill="#63b8ff" stroke="#63b8ff" points="146.52,-169.5 156.52,-166 146.52,-162.5 146.52,-169.5"/>
</a>
</g>
</g>
<!-- Node6 -->
<g id="Node000006" class="node">
<title>Node6</title>
<g id="a_Node000006"><a xlink:href="class_emoti_bit_controller.html#a7e8c8e4af5bd2259f0adb201c2cb29c1" target="_top" xlink:title=" ">
<polygon fill="white" stroke="#666666" points="117.62,-132 4.88,-132 4.88,-100 117.62,-100 117.62,-132"/>
<text text-anchor="start" x="12.88" y="-118.5" font-family="Helvetica,sans-Serif" font-size="10.00">EmotiBitController</text>
<text text-anchor="middle" x="61.25" y="-106.5" font-family="Helvetica,sans-Serif" font-size="10.00">::startRecordingOnSD</text>
</a>
</g>
</g>
<!-- Node1&#45;&gt;Node6 -->
<g id="edge6_Node000001_Node000006" class="edge">
<title>Node1&#45;&gt;Node6</title>
<g id="a_edge6_Node000001_Node000006"><a xlink:title=" ">
<path fill="none" stroke="#63b8ff" d="M147.83,-145.92C135,-141.44 121.53,-136.73 109.18,-132.41"/>
<polygon fill="#63b8ff" stroke="#63b8ff" points="146.4,-149.13 157,-149.13 148.71,-142.52 146.4,-149.13"/>
</a>
</g>
</g>
<!-- Node7 -->
<g id="Node000007" class="node">
<title>Node7</title>
<g id="a_Node000007"><a xlink:href="class_emoti_bit_controller.html#aa978c842e498fb0c9ddc4b3fc08fd0f6" target="_top" xlink:title=" ">
<polygon fill="white" stroke="#666666" points="115.38,-82 7.12,-82 7.12,-50 115.38,-50 115.38,-82"/>
<text text-anchor="start" x="15.12" y="-68.5" font-family="Helvetica,sans-Serif" font-size="10.00">EmotiBitController</text>
<text text-anchor="middle" x="61.25" y="-56.5" font-family="Helvetica,sans-Serif" font-size="10.00">::stopLocalRecording</text>
</a>
</g>
</g>
<!-- Node1&#45;&gt;Node7 -->
<g id="edge7_Node000001_Node000007" class="edge">
<title>Node1&#45;&gt;Node7</title>
<g id="a_edge7_Node000001_Node000007"><a xlink:title=" ">
<path fill="none" stroke="#63b8ff" d="M182.81,-141.7C167.09,-125.73 144.95,-105.23 122.5,-91 117.62,-87.91 112.3,-85.06 106.89,-82.47"/>
<polygon fill="#63b8ff" stroke="#63b8ff" points="179.9,-143.73 189.36,-148.49 184.94,-138.87 179.9,-143.73"/>
</a>
</g>
</g>
<!-- Node8 -->
<g id="Node000008" class="node">
<title>Node8</title>
<g id="a_Node000008"><a xlink:href="class_emoti_bit_controller.html#ac6fc160c3e523a28bd9c80dded03cdc3" target="_top" xlink:title=" ">
<polygon fill="white" stroke="#666666" points="117.25,-32 5.25,-32 5.25,0 117.25,0 117.25,-32"/>
<text text-anchor="start" x="13.25" y="-18.5" font-family="Helvetica,sans-Serif" font-size="10.00">EmotiBitController</text>
<text text-anchor="middle" x="61.25" y="-6.5" font-family="Helvetica,sans-Serif" font-size="10.00">::stopRecordingOnSD</text>
</a>
</g>
</g>
<!-- Node1&#45;&gt;Node8 -->
<g id="edge8_Node000001_Node000008" class="edge">
<title>Node1&#45;&gt;Node8</title>
<g id="a_edge8_Node000001_Node000008"><a xlink:title=" ">
<path fill="none" stroke="#63b8ff" d="M193.46,-139.35C179.92,-111.46 155.29,-68.05 122.5,-41 118.57,-37.76 114.16,-34.88 109.56,-32.35"/>
<polygon fill="#63b8ff" stroke="#63b8ff" points="190.19,-140.63 197.61,-148.19 196.53,-137.65 190.19,-140.63"/>
</a>
</g>
</g>
<!-- Node4&#45;&gt;Node4 -->
<g id="edge4_Node000004_Node000004" class="edge">
<title>Node4&#45;&gt;Node4</title>
<g id="a_edge4_Node000004_Node000004"><a xlink:title=" ">
<path fill="none" stroke="#63b8ff" d="M85.41,-243.71C81.38,-247.48 73.33,-250 61.25,-250 39.16,-250 30.53,-241.58 35.36,-232.44"/>
<polygon fill="#63b8ff" stroke="#63b8ff" points="88.86,-244.35 86.91,-233.94 81.94,-243.29 88.86,-244.35"/>
</a>
</g>
</g>
</g>
</svg>
</svg>

<style type='text/css'>
<![CDATA[
[data-mouse-over-selected='false'] { opacity: 0.7; }
[data-mouse-over-selected='true']  { opacity: 1.0; }
]]>
</style>
<script type="application/ecmascript"><![CDATA[
document.addEventListener('DOMContentLoaded', (event) => {
  highlightEdges();
  highlightAdjacentNodes();
});
]]></script>
</svg>
