<?xml version="1.0" encoding="UTF-8" standalone="no"?>
<!DOCTYPE svg PUBLIC "-//W3C//DTD SVG 1.1//EN"
 "http://www.w3.org/Graphics/SVG/1.1/DTD/svg11.dtd">
<!-- Generated by graphviz version 12.2.1 (20241206.2353)
 -->
<!-- Title: EmotiBitWiFiRoboTEA Pages: 1 -->
<!--zoomable 704 -->

<svg id="main" version="1.1" xmlns="http://www.w3.org/2000/svg" xmlns:xlink="http://www.w3.org/1999/xlink" xml:space="preserve" onload="init(evt)">

<style type="text/css"><![CDATA[
.node, .edge {opacity: 0.7;}
.node.selected, .edge.selected {opacity: 1;}
.edge:hover path { stroke: red; }
.edge:hover polygon { stroke: red; fill: red; }
]]></style>

<defs>
  <circle id="rim" cx="0" cy="0" r="7"/>
  <circle id="rim2" cx="0" cy="0" r="3.5"/>
  <g id="zoomPlus">
    <use xlink:href="#rim" fill="#404040"><set attributeName="fill" to="#808080" begin="zoomplus.mouseover" end="zoomplus.mouseout"/></use>
    <path d="M-4,0h8M0,-4v8" fill="none" stroke="white" stroke-width="1.5" pointer-events="none"/>
  </g>
  <g id="zoomMin">
    <use xlink:href="#rim" fill="#404040"><set attributeName="fill" to="#808080" begin="zoomminus.mouseover" end="zoomminus.mouseout"/></use>
    <path d="M-4,0h8" fill="none" stroke="white" stroke-width="1.5" pointer-events="none"/>
  </g>
  <g id="arrowUp" transform="translate(30 24)">
    <use xlink:href="#rim"/>
    <path pointer-events="none" fill="none" stroke="white" stroke-width="1.5" d="M0,-3.0v7 M-2.5,-0.5L0,-3.0L2.5,-0.5"/>
  </g>
  <g id="arrowRight" transform="rotate(90) translate(36 -43)">
    <use xlink:href="#rim"/>
    <path pointer-events="none" fill="none" stroke="white" stroke-width="1.5" d="M0,-3.0v7 M-2.5,-0.5L0,-3.0L2.5,-0.5"/>
  </g>
  <g id="arrowDown" transform="rotate(180) translate(-30 -48)">
    <use xlink:href="#rim"/>
    <path pointer-events="none" fill="none" stroke="white" stroke-width="1.5" d="M0,-3.0v7 M-2.5,-0.5L0,-3.0L2.5,-0.5"/>
  </g>
  <g id="arrowLeft" transform="rotate(270) translate(-36 17)">
    <use xlink:href="#rim"/>
    <path pointer-events="none" fill="none" stroke="white" stroke-width="1.5" d="M0,-3.0v7 M-2.5,-0.5L0,-3.0L2.5,-0.5"/>
  </g>
  <g id="resetDef">
    <use xlink:href="#rim2" fill="#404040"><set attributeName="fill" to="#808080" begin="reset.mouseover" end="reset.mouseout"/></use>
  </g>
</defs>
<script type="application/ecmascript">
var viewWidth = 186;
var viewHeight = 704;
var sectionId = 'dynsection-1';
</script>
<script type="application/ecmascript" xlink:href="svg.min.js"/>
<svg id="graph" class="graph">
<g id="viewport">
<title>EmotiBitWiFiRoboTEA</title>
<!-- Node1 -->
<g id="Node000001" class="node">
<title>Node1</title>
<g id="a_Node000001"><a xlink:title=" ">
<polygon fill="#999999" stroke="none" points="139.25,-420 2.75,-420 2.75,0 139.25,0 139.25,-420"/>
<text text-anchor="start" x="20.75" y="-406.5" font-family="Helvetica,sans-Serif" font-size="10.00">EmotiBitWiFiRoboTEA</text>
<text text-anchor="start" x="6.75" y="-390.5" font-family="Helvetica,sans-Serif" font-size="10.00">+</text>
<text text-anchor="start" x="16.75" y="-390.5" font-family="Helvetica,sans-Serif" font-size="10.00">availableNetworks</text>
<text text-anchor="start" x="6.75" y="-374.5" font-family="Helvetica,sans-Serif" font-size="10.00">+</text>
<text text-anchor="start" x="16.75" y="-374.5" font-family="Helvetica,sans-Serif" font-size="10.00">emotibitNetworks</text>
<text text-anchor="start" x="6.75" y="-358.5" font-family="Helvetica,sans-Serif" font-size="10.00">+</text>
<text text-anchor="start" x="16.75" y="-358.5" font-family="Helvetica,sans-Serif" font-size="10.00">startCxnInterval</text>
<text text-anchor="start" x="6.75" y="-342.5" font-family="Helvetica,sans-Serif" font-size="10.00">+</text>
<text text-anchor="start" x="16.75" y="-342.5" font-family="Helvetica,sans-Serif" font-size="10.00">advertisingPort</text>
<text text-anchor="start" x="6.75" y="-326.5" font-family="Helvetica,sans-Serif" font-size="10.00">+</text>
<text text-anchor="start" x="16.75" y="-326.5" font-family="Helvetica,sans-Serif" font-size="10.00">_dataPort</text>
<text text-anchor="start" x="6.75" y="-310.5" font-family="Helvetica,sans-Serif" font-size="10.00">+</text>
<text text-anchor="start" x="16.75" y="-310.5" font-family="Helvetica,sans-Serif" font-size="10.00">sendDataPort</text>
<text text-anchor="start" x="6.75" y="-294.5" font-family="Helvetica,sans-Serif" font-size="10.00">+</text>
<text text-anchor="start" x="16.75" y="-294.5" font-family="Helvetica,sans-Serif" font-size="10.00">controlPort</text>
<text text-anchor="start" x="6.75" y="-278.5" font-family="Helvetica,sans-Serif" font-size="10.00">+</text>
<text text-anchor="start" x="16.75" y="-278.5" font-family="Helvetica,sans-Serif" font-size="10.00">advertisingCxn</text>
<text text-anchor="start" x="6.75" y="-262.5" font-family="Helvetica,sans-Serif" font-size="10.00">+</text>
<text text-anchor="start" x="16.75" y="-262.5" font-family="Helvetica,sans-Serif" font-size="10.00">dataCxn</text>
<text text-anchor="start" x="6.75" y="-246.5" font-family="Helvetica,sans-Serif" font-size="10.00">+</text>
<text text-anchor="start" x="16.75" y="-246.5" font-family="Helvetica,sans-Serif" font-size="10.00">controlCxn</text>
<text text-anchor="start" x="16.75" y="-230.5" font-family="Helvetica,sans-Serif" font-size="10.00">and 22 more...</text>
<text text-anchor="start" x="6.75" y="-214.5" font-family="Helvetica,sans-Serif" font-size="10.00">+</text>
<text text-anchor="start" x="16.75" y="-214.5" font-family="Helvetica,sans-Serif" font-size="10.00">SUCCESS</text>
<text text-anchor="start" x="6.75" y="-198.5" font-family="Helvetica,sans-Serif" font-size="10.00">+</text>
<text text-anchor="start" x="16.75" y="-198.5" font-family="Helvetica,sans-Serif" font-size="10.00">FAIL</text>
<text text-anchor="start" x="6.75" y="-182.5" font-family="Helvetica,sans-Serif" font-size="10.00">+</text>
<text text-anchor="start" x="16.75" y="-182.5" font-family="Helvetica,sans-Serif" font-size="10.00">getdiscoveredEmotibits()</text>
<text text-anchor="start" x="6.75" y="-166.5" font-family="Helvetica,sans-Serif" font-size="10.00">+</text>
<text text-anchor="start" x="16.75" y="-166.5" font-family="Helvetica,sans-Serif" font-size="10.00">getDiscoveredEmotibitIds()</text>
<text text-anchor="start" x="6.75" y="-150.5" font-family="Helvetica,sans-Serif" font-size="10.00">+</text>
<text text-anchor="start" x="16.75" y="-150.5" font-family="Helvetica,sans-Serif" font-size="10.00">sendNota()</text>
<text text-anchor="start" x="6.75" y="-134.5" font-family="Helvetica,sans-Serif" font-size="10.00">+</text>
<text text-anchor="start" x="16.75" y="-134.5" font-family="Helvetica,sans-Serif" font-size="10.00">updateAdvertisingIpList()</text>
<text text-anchor="start" x="6.75" y="-118.5" font-family="Helvetica,sans-Serif" font-size="10.00">+</text>
<text text-anchor="start" x="16.75" y="-118.5" font-family="Helvetica,sans-Serif" font-size="10.00">flushData()</text>
<text text-anchor="start" x="6.75" y="-102.5" font-family="Helvetica,sans-Serif" font-size="10.00">+</text>
<text text-anchor="start" x="16.75" y="-102.5" font-family="Helvetica,sans-Serif" font-size="10.00">sendAdvertising()</text>
<text text-anchor="start" x="6.75" y="-86.5" font-family="Helvetica,sans-Serif" font-size="10.00">+</text>
<text text-anchor="start" x="16.75" y="-86.5" font-family="Helvetica,sans-Serif" font-size="10.00">processAdvertising()</text>
<text text-anchor="start" x="6.75" y="-70.5" font-family="Helvetica,sans-Serif" font-size="10.00">+</text>
<text text-anchor="start" x="16.75" y="-70.5" font-family="Helvetica,sans-Serif" font-size="10.00">stopRecording()</text>
<text text-anchor="start" x="6.75" y="-54.5" font-family="Helvetica,sans-Serif" font-size="10.00">+</text>
<text text-anchor="start" x="16.75" y="-54.5" font-family="Helvetica,sans-Serif" font-size="10.00">startRecording()</text>
<text text-anchor="start" x="6.75" y="-38.5" font-family="Helvetica,sans-Serif" font-size="10.00">+</text>
<text text-anchor="start" x="16.75" y="-38.5" font-family="Helvetica,sans-Serif" font-size="10.00">stopThreads()</text>
<text text-anchor="start" x="16.75" y="-22.5" font-family="Helvetica,sans-Serif" font-size="10.00">and 22 more...</text>
<text text-anchor="start" x="6.75" y="-6.5" font-family="Helvetica,sans-Serif" font-size="10.00">+</text>
<text text-anchor="start" x="16.75" y="-6.5" font-family="Helvetica,sans-Serif" font-size="10.00">writeControlData()</text>
<polygon fill="#666666" stroke="#666666" points="2.75,-402 2.75,-402 139.25,-402 139.25,-402 2.75,-402"/>
<polygon fill="#666666" stroke="#666666" points="2.75,-194 2.75,-194 14.75,-194 14.75,-194 2.75,-194"/>
<polygon fill="#666666" stroke="#666666" points="14.75,-194 14.75,-194 139.25,-194 139.25,-194 14.75,-194"/>
<polygon fill="none" stroke="#666666" points="2.75,0 2.75,-420 139.25,-420 139.25,0 2.75,0"/>
</a>
</g>
</g>
<!-- Node2 -->
<g id="Node000002" class="node">
<title>Node2</title>
<g id="a_Node000002"><a xlink:title=" ">
<polygon fill="white" stroke="none" points="44,-608 0,-608 0,-556 44,-556 44,-608"/>
<text text-anchor="start" x="4" y="-594.5" font-family="Helvetica,sans-Serif" font-size="10.00">QObject</text>
<text text-anchor="start" x="20.5" y="-578.5" font-family="Helvetica,sans-Serif" font-size="10.00"> </text>
<text text-anchor="start" x="20.5" y="-562.5" font-family="Helvetica,sans-Serif" font-size="10.00"> </text>
<polygon fill="#666666" stroke="#666666" points="0,-590 0,-590 44,-590 44,-590 0,-590"/>
<polygon fill="#666666" stroke="#666666" points="0,-574 0,-574 44,-574 44,-574 0,-574"/>
<polygon fill="none" stroke="#666666" points="0,-556 0,-608 44,-608 44,-556 0,-556"/>
</a>
</g>
</g>
<!-- Node2&#45;&gt;Node1 -->
<g id="edge1_Node000001_Node000002" class="edge">
<title>Node2&#45;&gt;Node1</title>
<g id="a_edge1_Node000001_Node000002"><a xlink:title=" ">
<path fill="none" stroke="#63b8ff" d="M26.78,-544.88C30.82,-514.4 36.95,-468.08 43.38,-419.57"/>
<polygon fill="none" stroke="#63b8ff" points="23.33,-544.28 25.49,-554.65 30.27,-545.19 23.33,-544.28"/>
</a>
</g>
</g>
<!-- Node3 -->
<g id="Node000003" class="node">
<title>Node3</title>
<g id="a_Node000003"><a xlink:title=" ">
<polygon fill="white" stroke="none" points="177.62,-696 62.38,-696 62.38,-468 177.62,-468 177.62,-696"/>
<text text-anchor="start" x="66.38" y="-682.5" font-family="Helvetica,sans-Serif" font-size="10.00">DoubleBuffer&lt; QString &gt;</text>
<text text-anchor="start" x="118.5" y="-666.5" font-family="Helvetica,sans-Serif" font-size="10.00"> </text>
<text text-anchor="start" x="71.38" y="-650.5" font-family="Helvetica,sans-Serif" font-size="10.00">+</text>
<text text-anchor="start" x="86.38" y="-650.5" font-family="Helvetica,sans-Serif" font-size="10.00">DoubleBuffer()</text>
<text text-anchor="start" x="71.38" y="-634.5" font-family="Helvetica,sans-Serif" font-size="10.00">+</text>
<text text-anchor="start" x="86.38" y="-634.5" font-family="Helvetica,sans-Serif" font-size="10.00">DoubleBuffer()</text>
<text text-anchor="start" x="71.38" y="-618.5" font-family="Helvetica,sans-Serif" font-size="10.00">+</text>
<text text-anchor="start" x="86.38" y="-618.5" font-family="Helvetica,sans-Serif" font-size="10.00">write()</text>
<text text-anchor="start" x="71.38" y="-602.5" font-family="Helvetica,sans-Serif" font-size="10.00">+</text>
<text text-anchor="start" x="86.38" y="-602.5" font-family="Helvetica,sans-Serif" font-size="10.00">write()</text>
<text text-anchor="start" x="71.38" y="-586.5" font-family="Helvetica,sans-Serif" font-size="10.00">+</text>
<text text-anchor="start" x="86.38" y="-586.5" font-family="Helvetica,sans-Serif" font-size="10.00">swapAndRead()</text>
<text text-anchor="start" x="71.38" y="-570.5" font-family="Helvetica,sans-Serif" font-size="10.00">+</text>
<text text-anchor="start" x="86.38" y="-570.5" font-family="Helvetica,sans-Serif" font-size="10.00">swapAndRead()</text>
<text text-anchor="start" x="71.38" y="-554.5" font-family="Helvetica,sans-Serif" font-size="10.00">+</text>
<text text-anchor="start" x="86.38" y="-554.5" font-family="Helvetica,sans-Serif" font-size="10.00">hasData()</text>
<text text-anchor="start" x="71.38" y="-538.5" font-family="Helvetica,sans-Serif" font-size="10.00">+</text>
<text text-anchor="start" x="86.38" y="-538.5" font-family="Helvetica,sans-Serif" font-size="10.00">hasData()</text>
<text text-anchor="start" x="71.38" y="-522.5" font-family="Helvetica,sans-Serif" font-size="10.00">+</text>
<text text-anchor="start" x="86.38" y="-522.5" font-family="Helvetica,sans-Serif" font-size="10.00">activeBufferSize()</text>
<text text-anchor="start" x="71.38" y="-506.5" font-family="Helvetica,sans-Serif" font-size="10.00">+</text>
<text text-anchor="start" x="86.38" y="-506.5" font-family="Helvetica,sans-Serif" font-size="10.00">activeBufferSize()</text>
<text text-anchor="start" x="71.38" y="-490.5" font-family="Helvetica,sans-Serif" font-size="10.00">+</text>
<text text-anchor="start" x="86.38" y="-490.5" font-family="Helvetica,sans-Serif" font-size="10.00">push_back()</text>
<text text-anchor="start" x="71.38" y="-474.5" font-family="Helvetica,sans-Serif" font-size="10.00">+</text>
<text text-anchor="start" x="86.38" y="-474.5" font-family="Helvetica,sans-Serif" font-size="10.00">get()</text>
<polygon fill="#666666" stroke="#666666" points="62.38,-678 62.38,-678 177.62,-678 177.62,-678 62.38,-678"/>
<polygon fill="#666666" stroke="#666666" points="62.38,-662 62.38,-662 177.62,-662 177.62,-662 62.38,-662"/>
<polygon fill="none" stroke="#666666" points="62.38,-468 62.38,-696 177.62,-696 177.62,-468 62.38,-468"/>
</a>
</g>
</g>
<!-- Node3&#45;&gt;Node1 -->
<g id="edge2_Node000001_Node000003" class="edge">
<title>Node3&#45;&gt;Node1</title>
<g id="a_edge2_Node000001_Node000003"><a xlink:title=" ">
<path fill="none" stroke="#63b8ff" d="M105.07,-468.23C103.54,-456.71 101.96,-444.75 100.34,-432.57"/>
<polygon fill="none" stroke="#63b8ff" points="100.35,-432.6 95.59,-427.18 98.77,-420.7 103.52,-426.13 100.35,-432.6"/>
</a>
</g>
<text text-anchor="middle" x="133.2" y="-440.5" font-family="Helvetica,sans-Serif" font-size="10.00" fill="grey"> +dataPackets</text>
</g>
</g>
</svg>

<g id="navigator" transform="translate(0 0)" fill="#404254">
  <rect fill="#f2f5e9" fill-opacity="0.5" stroke="#606060" stroke-width=".5" x="0" y="0" width="60" height="60"/>
  <use id="zoomplus" xlink:href="#zoomPlus" x="17" y="9" onmousedown="handleZoom(evt,'in')"/>
  <use id="zoomminus" xlink:href="#zoomMin" x="42" y="9" onmousedown="handleZoom(evt,'out')"/>
  <use id="reset" xlink:href="#resetDef" x="30" y="36" onmousedown="handleReset()"/>
   <use id="arrowup" xlink:href="#arrowUp" x="0" y="0" onmousedown="handlePan(0,-1)"/>
  <use id="arrowright" xlink:href="#arrowRight" x="0" y="0" onmousedown="handlePan(1,0)"/>
  <use id="arrowdown" xlink:href="#arrowDown" x="0" y="0" onmousedown="handlePan(0,1)"/>
  <use id="arrowleft" xlink:href="#arrowLeft" x="0" y="0" onmousedown="handlePan(-1,0)"/>
</g>
<svg viewBox="0 0 15 15" width="100%" height="30px" preserveAspectRatio="xMaxYMin meet">
 <g id="arrow_out" transform="scale(0.3 0.3)">
  <a xlink:href="class_emoti_bit_wi_fi_robo_t_e_a__coll__graph_org.svg" target="_base">
   <rect id="button" ry="5" rx="5" y="6" x="6" height="38" width="38"
        fill="#f2f5e9" fill-opacity="0.5" stroke="#606060" stroke-width="1.0"/>
   <path id="arrow"
     d="M 11.500037,31.436501 C 11.940474,20.09759 22.043105,11.32322 32.158766,21.979434 L 37.068811,17.246167 C 37.068811,17.246167 37.088388,32 37.088388,32 L 22.160133,31.978069 C 22.160133,31.978069 26.997745,27.140456 26.997745,27.140456 C 18.528582,18.264221 13.291696,25.230495 11.500037,31.436501 z"
     style="fill:#404040;"/>
  </a>
 </g>
</svg>

<style type='text/css'>
<![CDATA[
[data-mouse-over-selected='false'] { opacity: 0.7; }
[data-mouse-over-selected='true']  { opacity: 1.0; }
]]>
</style>
<script type="application/ecmascript"><![CDATA[
document.addEventListener('DOMContentLoaded', (event) => {
  highlightEdges();
  highlightAdjacentNodes();
});
]]></script>
</svg>
