<?xml version="1.0" encoding="UTF-8" standalone="no"?>
<!DOCTYPE svg PUBLIC "-//W3C//DTD SVG 1.1//EN"
 "http://www.w3.org/Graphics/SVG/1.1/DTD/svg11.dtd">
<!-- Generated by graphviz version 12.2.1 (20241206.2353)
 -->
<!-- Title: EmotiBitWiFiRoboTEA::isInNetworkList Pages: 1 -->
<!--zoomable 90 -->

<svg id="main" version="1.1" xmlns="http://www.w3.org/2000/svg" xmlns:xlink="http://www.w3.org/1999/xlink" xml:space="preserve" onload="init(evt)">

<style type="text/css"><![CDATA[
.node, .edge {opacity: 0.7;}
.node.selected, .edge.selected {opacity: 1;}
.edge:hover path { stroke: red; }
.edge:hover polygon { stroke: red; fill: red; }
]]></style>

<defs>
  <circle id="rim" cx="0" cy="0" r="7"/>
  <circle id="rim2" cx="0" cy="0" r="3.5"/>
  <g id="zoomPlus">
    <use xlink:href="#rim" fill="#404040"><set attributeName="fill" to="#808080" begin="zoomplus.mouseover" end="zoomplus.mouseout"/></use>
    <path d="M-4,0h8M0,-4v8" fill="none" stroke="white" stroke-width="1.5" pointer-events="none"/>
  </g>
  <g id="zoomMin">
    <use xlink:href="#rim" fill="#404040"><set attributeName="fill" to="#808080" begin="zoomminus.mouseover" end="zoomminus.mouseout"/></use>
    <path d="M-4,0h8" fill="none" stroke="white" stroke-width="1.5" pointer-events="none"/>
  </g>
  <g id="arrowUp" transform="translate(30 24)">
    <use xlink:href="#rim"/>
    <path pointer-events="none" fill="none" stroke="white" stroke-width="1.5" d="M0,-3.0v7 M-2.5,-0.5L0,-3.0L2.5,-0.5"/>
  </g>
  <g id="arrowRight" transform="rotate(90) translate(36 -43)">
    <use xlink:href="#rim"/>
    <path pointer-events="none" fill="none" stroke="white" stroke-width="1.5" d="M0,-3.0v7 M-2.5,-0.5L0,-3.0L2.5,-0.5"/>
  </g>
  <g id="arrowDown" transform="rotate(180) translate(-30 -48)">
    <use xlink:href="#rim"/>
    <path pointer-events="none" fill="none" stroke="white" stroke-width="1.5" d="M0,-3.0v7 M-2.5,-0.5L0,-3.0L2.5,-0.5"/>
  </g>
  <g id="arrowLeft" transform="rotate(270) translate(-36 17)">
    <use xlink:href="#rim"/>
    <path pointer-events="none" fill="none" stroke="white" stroke-width="1.5" d="M0,-3.0v7 M-2.5,-0.5L0,-3.0L2.5,-0.5"/>
  </g>
  <g id="resetDef">
    <use xlink:href="#rim2" fill="#404040"><set attributeName="fill" to="#808080" begin="reset.mouseover" end="reset.mouseout"/></use>
  </g>
</defs>
<script type="application/ecmascript">
var viewWidth = 1068;
var viewHeight = 90;
var sectionId = 'dynsection-15';
</script>
<script type="application/ecmascript" xlink:href="svg.min.js"/>
<svg id="graph" class="graph">
<g id="viewport">
<title>EmotiBitWiFiRoboTEA::isInNetworkList</title>
<!-- Node1 -->
<g id="Node000001" class="node">
<title>Node1</title>
<g id="a_Node000001"><a xlink:title=" ">
<polygon fill="#999999" stroke="#666666" points="1060,-57 943.5,-57 943.5,-25 1060,-25 1060,-57"/>
<text text-anchor="start" x="951.5" y="-43.5" font-family="Helvetica,sans-Serif" font-size="10.00">EmotiBitWiFiRoboTEA</text>
<text text-anchor="middle" x="1001.75" y="-31.5" font-family="Helvetica,sans-Serif" font-size="10.00">::isInNetworkList</text>
</a>
</g>
</g>
<!-- Node2 -->
<g id="Node000002" class="node">
<title>Node2</title>
<g id="a_Node000002"><a xlink:href="class_emoti_bit_wi_fi_robo_t_e_a.html#a932279040f097f60fd486163972c328c" target="_top" xlink:title=" ">
<polygon fill="white" stroke="#666666" points="907.5,-82 782,-82 782,-50 907.5,-50 907.5,-82"/>
<text text-anchor="start" x="790" y="-68.5" font-family="Helvetica,sans-Serif" font-size="10.00">EmotiBitWiFiRoboTEA</text>
<text text-anchor="middle" x="844.75" y="-56.5" font-family="Helvetica,sans-Serif" font-size="10.00">::isInNetworkExcludeList</text>
</a>
</g>
</g>
<!-- Node1&#45;&gt;Node2 -->
<g id="edge1_Node000001_Node000002" class="edge">
<title>Node1&#45;&gt;Node2</title>
<g id="a_edge1_Node000001_Node000002"><a xlink:title=" ">
<path fill="none" stroke="#63b8ff" d="M931.88,-52.11C923.91,-53.39 915.81,-54.7 907.93,-55.97"/>
<polygon fill="#63b8ff" stroke="#63b8ff" points="932.22,-55.6 941.54,-50.55 931.11,-48.69 932.22,-55.6"/>
</a>
</g>
</g>
<!-- Node8 -->
<g id="Node000008" class="node">
<title>Node8</title>
<g id="a_Node000008"><a xlink:href="class_emoti_bit_wi_fi_robo_t_e_a.html#a3677dd6ccbfe65acceb8c9b53e7df2a4" target="_top" xlink:title=" ">
<polygon fill="white" stroke="#666666" points="905.62,-32 783.88,-32 783.88,0 905.62,0 905.62,-32"/>
<text text-anchor="start" x="791.88" y="-18.5" font-family="Helvetica,sans-Serif" font-size="10.00">EmotiBitWiFiRoboTEA</text>
<text text-anchor="middle" x="844.75" y="-6.5" font-family="Helvetica,sans-Serif" font-size="10.00">::isInNetworkIncludeList</text>
</a>
</g>
</g>
<!-- Node1&#45;&gt;Node8 -->
<g id="edge8_Node000001_Node000008" class="edge">
<title>Node1&#45;&gt;Node8</title>
<g id="a_edge8_Node000001_Node000008"><a xlink:title=" ">
<path fill="none" stroke="#63b8ff" d="M931.86,-29.89C923.28,-28.5 914.55,-27.1 906.11,-25.73"/>
<polygon fill="#63b8ff" stroke="#63b8ff" points="931.11,-33.31 941.54,-31.45 932.22,-26.4 931.11,-33.31"/>
</a>
</g>
</g>
<!-- Node3 -->
<g id="Node000003" class="node">
<title>Node3</title>
<g id="a_Node000003"><a xlink:href="class_emoti_bit_wi_fi_robo_t_e_a.html#a7c5bb7f21f7a168274d428223917946d" target="_top" xlink:title=" ">
<polygon fill="white" stroke="#666666" points="746,-57 628.75,-57 628.75,-25 746,-25 746,-57"/>
<text text-anchor="start" x="636.75" y="-43.5" font-family="Helvetica,sans-Serif" font-size="10.00">EmotiBitWiFiRoboTEA</text>
<text text-anchor="middle" x="687.38" y="-31.5" font-family="Helvetica,sans-Serif" font-size="10.00">::getAvailableNetworks</text>
</a>
</g>
</g>
<!-- Node2&#45;&gt;Node3 -->
<g id="edge2_Node000002_Node000003" class="edge">
<title>Node2&#45;&gt;Node3</title>
<g id="a_edge2_Node000002_Node000003"><a xlink:title=" ">
<path fill="none" stroke="#63b8ff" d="M770.56,-54.22C762.48,-52.92 754.34,-51.61 746.48,-50.35"/>
<polygon fill="#63b8ff" stroke="#63b8ff" points="769.97,-57.67 780.4,-55.81 771.08,-50.76 769.97,-57.67"/>
</a>
</g>
</g>
<!-- Node4 -->
<g id="Node000004" class="node">
<title>Node4</title>
<g id="a_Node000004"><a xlink:href="class_emoti_bit_wi_fi_robo_t_e_a.html#afb3095e8c8643fae1da87c36e97d745a" target="_top" xlink:title="Inicializa la conexión WiFi con el dispositivo EmotiBit.">
<polygon fill="white" stroke="#666666" points="116.5,-57 0,-57 0,-25 116.5,-25 116.5,-57"/>
<text text-anchor="start" x="8" y="-43.5" font-family="Helvetica,sans-Serif" font-size="10.00">EmotiBitWiFiRoboTEA</text>
<text text-anchor="middle" x="58.25" y="-31.5" font-family="Helvetica,sans-Serif" font-size="10.00">::begin</text>
</a>
</g>
</g>
<!-- Node3&#45;&gt;Node4 -->
<g id="edge3_Node000003_Node000004" class="edge">
<title>Node3&#45;&gt;Node4</title>
<g id="a_edge3_Node000003_Node000004"><a xlink:title=" ">
<path fill="none" stroke="#63b8ff" d="M616.98,-43.47C608.81,-43.69 600.6,-43.87 592.75,-44 397.11,-47.13 348.14,-47.15 152.5,-44 141,-43.82 128.71,-43.5 116.95,-43.15"/>
<polygon fill="#63b8ff" stroke="#63b8ff" points="617.04,-46.97 626.93,-43.19 616.84,-39.97 617.04,-46.97"/>
</a>
</g>
</g>
<!-- Node5 -->
<g id="Node000005" class="node">
<title>Node5</title>
<g id="a_Node000005"><a xlink:href="class_emoti_bit_wi_fi_robo_t_e_a.html#abce274263f298bd5500d3ce59c61a9fc" target="_top" xlink:title=" ">
<polygon fill="white" stroke="#666666" points="592.75,-35 476.25,-35 476.25,-3 592.75,-3 592.75,-35"/>
<text text-anchor="start" x="484.25" y="-21.5" font-family="Helvetica,sans-Serif" font-size="10.00">EmotiBitWiFiRoboTEA</text>
<text text-anchor="middle" x="534.5" y="-9.5" font-family="Helvetica,sans-Serif" font-size="10.00">::sendAdvertising</text>
</a>
</g>
</g>
<!-- Node3&#45;&gt;Node5 -->
<g id="edge4_Node000003_Node000005" class="edge">
<title>Node3&#45;&gt;Node5</title>
<g id="a_edge4_Node000003_Node000005"><a xlink:title=" ">
<path fill="none" stroke="#63b8ff" d="M617.15,-30.91C609.07,-29.73 600.89,-28.54 593,-27.38"/>
<polygon fill="#63b8ff" stroke="#63b8ff" points="616.58,-34.36 626.98,-32.34 617.59,-27.43 616.58,-34.36"/>
</a>
</g>
</g>
<!-- Node6 -->
<g id="Node000006" class="node">
<title>Node6</title>
<g id="a_Node000006"><a xlink:href="class_emoti_bit_wi_fi_robo_t_e_a.html#a479561ab9243c7c085df1e01cfcf7f8b" target="_top" xlink:title=" ">
<polygon fill="white" stroke="#666666" points="440.25,-35 323.75,-35 323.75,-3 440.25,-3 440.25,-35"/>
<text text-anchor="start" x="331.75" y="-21.5" font-family="Helvetica,sans-Serif" font-size="10.00">EmotiBitWiFiRoboTEA</text>
<text text-anchor="middle" x="382" y="-9.5" font-family="Helvetica,sans-Serif" font-size="10.00">::processAdvertising</text>
</a>
</g>
</g>
<!-- Node5&#45;&gt;Node6 -->
<g id="edge5_Node000005_Node000006" class="edge">
<title>Node5&#45;&gt;Node6</title>
<g id="a_edge5_Node000005_Node000006"><a xlink:title=" ">
<path fill="none" stroke="#63b8ff" d="M464.85,-19C456.77,-19 448.58,-19 440.67,-19"/>
<polygon fill="#63b8ff" stroke="#63b8ff" points="464.66,-22.5 474.66,-19 464.66,-15.5 464.66,-22.5"/>
</a>
</g>
</g>
<!-- Node7 -->
<g id="Node000007" class="node">
<title>Node7</title>
<g id="a_Node000007"><a xlink:href="class_emoti_bit_wi_fi_robo_t_e_a.html#a69989a151b0cc117dce7b6d1df66f607" target="_top" xlink:title=" ">
<polygon fill="white" stroke="#666666" points="287.75,-35 152.5,-35 152.5,-3 287.75,-3 287.75,-35"/>
<text text-anchor="start" x="160.5" y="-21.5" font-family="Helvetica,sans-Serif" font-size="10.00">EmotiBitWiFiRoboTEA</text>
<text text-anchor="middle" x="220.12" y="-9.5" font-family="Helvetica,sans-Serif" font-size="10.00">::processAdvertisingThread</text>
</a>
</g>
</g>
<!-- Node6&#45;&gt;Node7 -->
<g id="edge6_Node000006_Node000007" class="edge">
<title>Node6&#45;&gt;Node7</title>
<g id="a_edge6_Node000006_Node000007"><a xlink:title=" ">
<path fill="none" stroke="#63b8ff" d="M311.84,-19C303.93,-19 295.88,-19 288,-19"/>
<polygon fill="#63b8ff" stroke="#63b8ff" points="311.77,-22.5 321.77,-19 311.77,-15.5 311.77,-22.5"/>
</a>
</g>
</g>
<!-- Node7&#45;&gt;Node4 -->
<g id="edge7_Node000007_Node000004" class="edge">
<title>Node7&#45;&gt;Node4</title>
<g id="a_edge7_Node000007_Node000004"><a xlink:title=" ">
<path fill="none" stroke="#63b8ff" d="M140.9,-29.76C132.84,-30.87 124.75,-31.99 116.97,-33.06"/>
<polygon fill="#63b8ff" stroke="#63b8ff" points="141.32,-33.24 150.75,-28.41 140.37,-26.3 141.32,-33.24"/>
</a>
</g>
</g>
<!-- Node8&#45;&gt;Node3 -->
<g id="edge9_Node000008_Node000003" class="edge">
<title>Node8&#45;&gt;Node3</title>
<g id="a_edge9_Node000008_Node000003"><a xlink:title=" ">
<path fill="none" stroke="#63b8ff" d="M772.38,-27.48C763.71,-28.88 754.94,-30.29 746.5,-31.65"/>
<polygon fill="#63b8ff" stroke="#63b8ff" points="772.87,-30.95 782.18,-25.91 771.75,-24.04 772.87,-30.95"/>
</a>
</g>
</g>
</g>
</svg>

<g id="navigator" transform="translate(0 0)" fill="#404254">
  <rect fill="#f2f5e9" fill-opacity="0.5" stroke="#606060" stroke-width=".5" x="0" y="0" width="60" height="60"/>
  <use id="zoomplus" xlink:href="#zoomPlus" x="17" y="9" onmousedown="handleZoom(evt,'in')"/>
  <use id="zoomminus" xlink:href="#zoomMin" x="42" y="9" onmousedown="handleZoom(evt,'out')"/>
  <use id="reset" xlink:href="#resetDef" x="30" y="36" onmousedown="handleReset()"/>
   <use id="arrowup" xlink:href="#arrowUp" x="0" y="0" onmousedown="handlePan(0,-1)"/>
  <use id="arrowright" xlink:href="#arrowRight" x="0" y="0" onmousedown="handlePan(1,0)"/>
  <use id="arrowdown" xlink:href="#arrowDown" x="0" y="0" onmousedown="handlePan(0,1)"/>
  <use id="arrowleft" xlink:href="#arrowLeft" x="0" y="0" onmousedown="handlePan(-1,0)"/>
</g>
<svg viewBox="0 0 15 15" width="100%" height="30px" preserveAspectRatio="xMaxYMin meet">
 <g id="arrow_out" transform="scale(0.3 0.3)">
  <a xlink:href="class_emoti_bit_wi_fi_robo_t_e_a_ad3a7e685f53ec9d95050561d3b3fdef3_icgraph_org.svg" target="_base">
   <rect id="button" ry="5" rx="5" y="6" x="6" height="38" width="38"
        fill="#f2f5e9" fill-opacity="0.5" stroke="#606060" stroke-width="1.0"/>
   <path id="arrow"
     d="M 11.500037,31.436501 C 11.940474,20.09759 22.043105,11.32322 32.158766,21.979434 L 37.068811,17.246167 C 37.068811,17.246167 37.088388,32 37.088388,32 L 22.160133,31.978069 C 22.160133,31.978069 26.997745,27.140456 26.997745,27.140456 C 18.528582,18.264221 13.291696,25.230495 11.500037,31.436501 z"
     style="fill:#404040;"/>
  </a>
 </g>
</svg>

<style type='text/css'>
<![CDATA[
[data-mouse-over-selected='false'] { opacity: 0.7; }
[data-mouse-over-selected='true']  { opacity: 1.0; }
]]>
</style>
<script type="application/ecmascript"><![CDATA[
document.addEventListener('DOMContentLoaded', (event) => {
  highlightEdges();
  highlightAdjacentNodes();
});
]]></script>
</svg>
