<?xml version="1.0" encoding="UTF-8" standalone="no"?>
<!DOCTYPE svg PUBLIC "-//W3C//DTD SVG 1.1//EN"
 "http://www.w3.org/Graphics/SVG/1.1/DTD/svg11.dtd">
<!-- Generated by graphviz version 12.2.1 (20241206.2353)
 -->
<!-- Title: EmotiBitWiFiRoboTEA::getTimestampString Pages: 1 -->
<svg width="735pt" height="190pt"
 viewBox="0.00 0.00 734.50 190.00" xmlns="http://www.w3.org/2000/svg" xmlns:xlink="http://www.w3.org/1999/xlink">
<g id="graph0" class="graph" transform="scale(1 1) rotate(0) translate(4 186)">
<title>EmotiBitWiFiRoboTEA::getTimestampString</title>
<!-- Node1 -->
<g id="Node000001" class="node">
<title>Node1</title>
<g id="a_Node000001"><a xlink:title=" ">
<polygon fill="#999999" stroke="#666666" points="726.5,-107 610,-107 610,-75 726.5,-75 726.5,-107"/>
<text text-anchor="start" x="618" y="-93.5" font-family="Helvetica,sans-Serif" font-size="10.00">EmotiBitWiFiRoboTEA</text>
<text text-anchor="middle" x="668.25" y="-81.5" font-family="Helvetica,sans-Serif" font-size="10.00">::getTimestampString</text>
</a>
</g>
</g>
<!-- Node2 -->
<g id="Node000002" class="node">
<title>Node2</title>
<g id="a_Node000002"><a xlink:href="class_emoti_bit_wi_fi_robo_t_e_a.html#a668d3244786b7408322174850ca44aaa" target="_top" xlink:title=" ">
<polygon fill="white" stroke="#666666" points="574,-182 457.5,-182 457.5,-150 574,-150 574,-182"/>
<text text-anchor="start" x="465.5" y="-168.5" font-family="Helvetica,sans-Serif" font-size="10.00">EmotiBitWiFiRoboTEA</text>
<text text-anchor="middle" x="515.75" y="-156.5" font-family="Helvetica,sans-Serif" font-size="10.00">::processRequestData</text>
</a>
</g>
</g>
<!-- Node1&#45;&gt;Node2 -->
<g id="edge1_Node000001_Node000002" class="edge">
<title>Node1&#45;&gt;Node2</title>
<g id="a_edge1_Node000001_Node000002"><a xlink:title=" ">
<path fill="none" stroke="#63b8ff" d="M628.28,-112.8C611.7,-121.83 592.06,-132.23 574,-141 568.05,-143.89 561.68,-146.82 555.44,-149.61"/>
<polygon fill="#63b8ff" stroke="#63b8ff" points="629.75,-115.98 636.84,-108.1 626.39,-109.85 629.75,-115.98"/>
</a>
</g>
</g>
<!-- Node6 -->
<g id="Node000006" class="node">
<title>Node6</title>
<g id="a_Node000006"><a xlink:href="class_emoti_bit_wi_fi_robo_t_e_a.html#aa5bf5d6537f664db044d1d6617bb7a50" target="_top" xlink:title=" ">
<polygon fill="white" stroke="#666666" points="574,-132 457.5,-132 457.5,-100 574,-100 574,-132"/>
<text text-anchor="start" x="465.5" y="-118.5" font-family="Helvetica,sans-Serif" font-size="10.00">EmotiBitWiFiRoboTEA</text>
<text text-anchor="middle" x="515.75" y="-106.5" font-family="Helvetica,sans-Serif" font-size="10.00">::sendNota</text>
</a>
</g>
</g>
<!-- Node1&#45;&gt;Node6 -->
<g id="edge5_Node000001_Node000006" class="edge">
<title>Node1&#45;&gt;Node6</title>
<g id="a_edge5_Node000001_Node000006"><a xlink:title=" ">
<path fill="none" stroke="#63b8ff" d="M598.6,-102.4C590.52,-103.75 582.33,-105.11 574.42,-106.42"/>
<polygon fill="#63b8ff" stroke="#63b8ff" points="599.14,-105.86 608.43,-100.77 597.99,-98.96 599.14,-105.86"/>
</a>
</g>
</g>
<!-- Node7 -->
<g id="Node000007" class="node">
<title>Node7</title>
<g id="a_Node000007"><a xlink:href="class_emoti_bit_wi_fi_robo_t_e_a.html#acc685929a99fb805ec857ba3ac51d8de" target="_top" xlink:title="Envia una orden al EmotiBit conectado para iniciar la grabación.">
<polygon fill="white" stroke="#666666" points="574,-82 457.5,-82 457.5,-50 574,-50 574,-82"/>
<text text-anchor="start" x="465.5" y="-68.5" font-family="Helvetica,sans-Serif" font-size="10.00">EmotiBitWiFiRoboTEA</text>
<text text-anchor="middle" x="515.75" y="-56.5" font-family="Helvetica,sans-Serif" font-size="10.00">::startRecording</text>
</a>
</g>
</g>
<!-- Node1&#45;&gt;Node7 -->
<g id="edge6_Node000001_Node000007" class="edge">
<title>Node1&#45;&gt;Node7</title>
<g id="a_edge6_Node000001_Node000007"><a xlink:title=" ">
<path fill="none" stroke="#63b8ff" d="M598.6,-79.6C590.52,-78.25 582.33,-76.89 574.42,-75.58"/>
<polygon fill="#63b8ff" stroke="#63b8ff" points="597.99,-83.04 608.43,-81.23 599.14,-76.14 597.99,-83.04"/>
</a>
</g>
</g>
<!-- Node8 -->
<g id="Node000008" class="node">
<title>Node8</title>
<g id="a_Node000008"><a xlink:href="class_emoti_bit_wi_fi_robo_t_e_a.html#aa681c28a859c06dfdeeefa5f4c2084ef" target="_top" xlink:title=" ">
<polygon fill="white" stroke="#666666" points="574,-32 457.5,-32 457.5,0 574,0 574,-32"/>
<text text-anchor="start" x="465.5" y="-18.5" font-family="Helvetica,sans-Serif" font-size="10.00">EmotiBitWiFiRoboTEA</text>
<text text-anchor="middle" x="515.75" y="-6.5" font-family="Helvetica,sans-Serif" font-size="10.00">::stopRecording</text>
</a>
</g>
</g>
<!-- Node1&#45;&gt;Node8 -->
<g id="edge7_Node000001_Node000008" class="edge">
<title>Node1&#45;&gt;Node8</title>
<g id="a_edge7_Node000001_Node000008"><a xlink:title=" ">
<path fill="none" stroke="#63b8ff" d="M628.28,-69.2C611.7,-60.17 592.06,-49.77 574,-41 568.05,-38.11 561.68,-35.18 555.44,-32.39"/>
<polygon fill="#63b8ff" stroke="#63b8ff" points="626.39,-72.15 636.84,-73.9 629.75,-66.02 626.39,-72.15"/>
</a>
</g>
</g>
<!-- Node3 -->
<g id="Node000003" class="node">
<title>Node3</title>
<g id="a_Node000003"><a xlink:href="class_emoti_bit_wi_fi_robo_t_e_a.html#afa6092c5b41153887bc9faf76a775edc" target="_top" xlink:title=" ">
<polygon fill="white" stroke="#666666" points="421.5,-182 305,-182 305,-150 421.5,-150 421.5,-182"/>
<text text-anchor="start" x="313" y="-168.5" font-family="Helvetica,sans-Serif" font-size="10.00">EmotiBitWiFiRoboTEA</text>
<text text-anchor="middle" x="363.25" y="-156.5" font-family="Helvetica,sans-Serif" font-size="10.00">::updateData</text>
</a>
</g>
</g>
<!-- Node2&#45;&gt;Node3 -->
<g id="edge2_Node000002_Node000003" class="edge">
<title>Node2&#45;&gt;Node3</title>
<g id="a_edge2_Node000002_Node000003"><a xlink:title=" ">
<path fill="none" stroke="#63b8ff" d="M446.1,-166C438.02,-166 429.83,-166 421.92,-166"/>
<polygon fill="#63b8ff" stroke="#63b8ff" points="445.91,-169.5 455.91,-166 445.91,-162.5 445.91,-169.5"/>
</a>
</g>
</g>
<!-- Node4 -->
<g id="Node000004" class="node">
<title>Node4</title>
<g id="a_Node000004"><a xlink:href="class_emoti_bit_wi_fi_robo_t_e_a.html#a19f2caa38c7732e97a4bb4b7327e6358" target="_top" xlink:title=" ">
<polygon fill="white" stroke="#666666" points="269,-182 152.5,-182 152.5,-150 269,-150 269,-182"/>
<text text-anchor="start" x="160.5" y="-168.5" font-family="Helvetica,sans-Serif" font-size="10.00">EmotiBitWiFiRoboTEA</text>
<text text-anchor="middle" x="210.75" y="-156.5" font-family="Helvetica,sans-Serif" font-size="10.00">::updateDataThread</text>
</a>
</g>
</g>
<!-- Node3&#45;&gt;Node4 -->
<g id="edge3_Node000003_Node000004" class="edge">
<title>Node3&#45;&gt;Node4</title>
<g id="a_edge3_Node000003_Node000004"><a xlink:title=" ">
<path fill="none" stroke="#63b8ff" d="M293.6,-166C285.52,-166 277.33,-166 269.42,-166"/>
<polygon fill="#63b8ff" stroke="#63b8ff" points="293.41,-169.5 303.41,-166 293.41,-162.5 293.41,-169.5"/>
</a>
</g>
</g>
<!-- Node5 -->
<g id="Node000005" class="node">
<title>Node5</title>
<g id="a_Node000005"><a xlink:href="class_emoti_bit_wi_fi_robo_t_e_a.html#afb3095e8c8643fae1da87c36e97d745a" target="_top" xlink:title="Inicializa la conexión WiFi con el dispositivo EmotiBit.">
<polygon fill="white" stroke="#666666" points="116.5,-182 0,-182 0,-150 116.5,-150 116.5,-182"/>
<text text-anchor="start" x="8" y="-168.5" font-family="Helvetica,sans-Serif" font-size="10.00">EmotiBitWiFiRoboTEA</text>
<text text-anchor="middle" x="58.25" y="-156.5" font-family="Helvetica,sans-Serif" font-size="10.00">::begin</text>
</a>
</g>
</g>
<!-- Node4&#45;&gt;Node5 -->
<g id="edge4_Node000004_Node000005" class="edge">
<title>Node4&#45;&gt;Node5</title>
<g id="a_edge4_Node000004_Node000005"><a xlink:title=" ">
<path fill="none" stroke="#63b8ff" d="M141.1,-166C133.02,-166 124.83,-166 116.92,-166"/>
<polygon fill="#63b8ff" stroke="#63b8ff" points="140.91,-169.5 150.91,-166 140.91,-162.5 140.91,-169.5"/>
</a>
</g>
</g>
</g>
</svg>
