<?xml version="1.0" encoding="UTF-8" standalone="no"?>
<!DOCTYPE svg PUBLIC "-//W3C//DTD SVG 1.1//EN"
 "http://www.w3.org/Graphics/SVG/1.1/DTD/svg11.dtd">
<!-- Generated by graphviz version 12.2.1 (20241206.2353)
 -->
<!-- Title: qEmotiBitPacket::getHeader Pages: 1 -->
<!--zoomable 104 -->

<svg id="main" version="1.1" xmlns="http://www.w3.org/2000/svg" xmlns:xlink="http://www.w3.org/1999/xlink" xml:space="preserve" onload="init(evt)">

<style type="text/css"><![CDATA[
.node, .edge {opacity: 0.7;}
.node.selected, .edge.selected {opacity: 1;}
.edge:hover path { stroke: red; }
.edge:hover polygon { stroke: red; fill: red; }
]]></style>

<defs>
  <circle id="rim" cx="0" cy="0" r="7"/>
  <circle id="rim2" cx="0" cy="0" r="3.5"/>
  <g id="zoomPlus">
    <use xlink:href="#rim" fill="#404040"><set attributeName="fill" to="#808080" begin="zoomplus.mouseover" end="zoomplus.mouseout"/></use>
    <path d="M-4,0h8M0,-4v8" fill="none" stroke="white" stroke-width="1.5" pointer-events="none"/>
  </g>
  <g id="zoomMin">
    <use xlink:href="#rim" fill="#404040"><set attributeName="fill" to="#808080" begin="zoomminus.mouseover" end="zoomminus.mouseout"/></use>
    <path d="M-4,0h8" fill="none" stroke="white" stroke-width="1.5" pointer-events="none"/>
  </g>
  <g id="arrowUp" transform="translate(30 24)">
    <use xlink:href="#rim"/>
    <path pointer-events="none" fill="none" stroke="white" stroke-width="1.5" d="M0,-3.0v7 M-2.5,-0.5L0,-3.0L2.5,-0.5"/>
  </g>
  <g id="arrowRight" transform="rotate(90) translate(36 -43)">
    <use xlink:href="#rim"/>
    <path pointer-events="none" fill="none" stroke="white" stroke-width="1.5" d="M0,-3.0v7 M-2.5,-0.5L0,-3.0L2.5,-0.5"/>
  </g>
  <g id="arrowDown" transform="rotate(180) translate(-30 -48)">
    <use xlink:href="#rim"/>
    <path pointer-events="none" fill="none" stroke="white" stroke-width="1.5" d="M0,-3.0v7 M-2.5,-0.5L0,-3.0L2.5,-0.5"/>
  </g>
  <g id="arrowLeft" transform="rotate(270) translate(-36 17)">
    <use xlink:href="#rim"/>
    <path pointer-events="none" fill="none" stroke="white" stroke-width="1.5" d="M0,-3.0v7 M-2.5,-0.5L0,-3.0L2.5,-0.5"/>
  </g>
  <g id="resetDef">
    <use xlink:href="#rim2" fill="#404040"><set attributeName="fill" to="#808080" begin="reset.mouseover" end="reset.mouseout"/></use>
  </g>
</defs>
<script type="application/ecmascript">
var viewWidth = 777;
var viewHeight = 104;
var sectionId = 'dynsection-3';
</script>
<script type="application/ecmascript" xlink:href="svg.min.js"/>
<svg id="graph" class="graph">
<g id="viewport">
<title>qEmotiBitPacket::getHeader</title>
<!-- Node1 -->
<g id="Node000001" class="node">
<title>Node1</title>
<g id="a_Node000001"><a xlink:title="Extrae el encabezado de un paquete a partir de su representación en texto completo.">
<polygon fill="#999999" stroke="#666666" points="769.25,-39.89 628.75,-39.89 628.75,-19.89 769.25,-19.89 769.25,-39.89"/>
<text text-anchor="middle" x="699" y="-26.39" font-family="Helvetica,sans-Serif" font-size="10.00">qEmotiBitPacket::getHeader</text>
</a>
</g>
</g>
<!-- Node2 -->
<g id="Node000002" class="node">
<title>Node2</title>
<g id="a_Node000002"><a xlink:href="class_emoti_bit_wi_fi_robo_t_e_a.html#a479561ab9243c7c085df1e01cfcf7f8b" target="_top" xlink:title=" ">
<polygon fill="white" stroke="#666666" points="592.75,-95.89 476.25,-95.89 476.25,-63.89 592.75,-63.89 592.75,-95.89"/>
<text text-anchor="start" x="484.25" y="-82.39" font-family="Helvetica,sans-Serif" font-size="10.00">EmotiBitWiFiRoboTEA</text>
<text text-anchor="middle" x="534.5" y="-70.39" font-family="Helvetica,sans-Serif" font-size="10.00">::processAdvertising</text>
</a>
</g>
</g>
<!-- Node1&#45;&gt;Node2 -->
<g id="edge1_Node000001_Node000002" class="edge">
<title>Node1&#45;&gt;Node2</title>
<g id="a_edge1_Node000001_Node000002"><a xlink:title=" ">
<path fill="none" stroke="#63b8ff" d="M653.03,-43.72C633.21,-49.82 609.75,-57.04 589.03,-63.42"/>
<polygon fill="#63b8ff" stroke="#63b8ff" points="653.96,-47.1 662.49,-40.81 651.9,-40.41 653.96,-47.1"/>
</a>
</g>
</g>
<!-- Node5 -->
<g id="Node000005" class="node">
<title>Node5</title>
<g id="a_Node000005"><a xlink:href="class_emoti_bit_wi_fi_robo_t_e_a.html#a668d3244786b7408322174850ca44aaa" target="_top" xlink:title=" ">
<polygon fill="white" stroke="#666666" points="592.75,-45.89 476.25,-45.89 476.25,-13.89 592.75,-13.89 592.75,-45.89"/>
<text text-anchor="start" x="484.25" y="-32.39" font-family="Helvetica,sans-Serif" font-size="10.00">EmotiBitWiFiRoboTEA</text>
<text text-anchor="middle" x="534.5" y="-20.39" font-family="Helvetica,sans-Serif" font-size="10.00">::processRequestData</text>
</a>
</g>
</g>
<!-- Node1&#45;&gt;Node5 -->
<g id="edge4_Node000001_Node000005" class="edge">
<title>Node1&#45;&gt;Node5</title>
<g id="a_edge4_Node000001_Node000005"><a xlink:title=" ">
<path fill="none" stroke="#63b8ff" d="M617.19,-29.89C609.08,-29.89 600.96,-29.89 593.16,-29.89"/>
<polygon fill="#63b8ff" stroke="#63b8ff" points="617.1,-33.39 627.1,-29.89 617.1,-26.39 617.1,-33.39"/>
</a>
</g>
</g>
<!-- Node6 -->
<g id="Node000006" class="node">
<title>Node6</title>
<g id="a_Node000006"><a xlink:href="class_emoti_bit_wi_fi_robo_t_e_a.html#afa6092c5b41153887bc9faf76a775edc" target="_top" xlink:title=" ">
<polygon fill="white" stroke="#666666" points="440.25,-45.89 323.75,-45.89 323.75,-13.89 440.25,-13.89 440.25,-45.89"/>
<text text-anchor="start" x="331.75" y="-32.39" font-family="Helvetica,sans-Serif" font-size="10.00">EmotiBitWiFiRoboTEA</text>
<text text-anchor="middle" x="382" y="-20.39" font-family="Helvetica,sans-Serif" font-size="10.00">::updateData</text>
</a>
</g>
</g>
<!-- Node1&#45;&gt;Node6 -->
<g id="edge8_Node000001_Node000006" class="edge">
<title>Node1&#45;&gt;Node6</title>
<g id="a_edge8_Node000001_Node000006"><a xlink:title=" ">
<path fill="none" stroke="#63b8ff" d="M652.31,-16.58C633.97,-11.89 612.52,-7.2 592.75,-4.89 541.32,1.14 527.58,1.87 476.25,-4.89 462.62,-6.68 448.16,-9.89 434.79,-13.43"/>
<polygon fill="#63b8ff" stroke="#63b8ff" points="651.26,-19.92 661.82,-19.1 653.05,-13.16 651.26,-19.92"/>
</a>
</g>
</g>
<!-- Node3 -->
<g id="Node000003" class="node">
<title>Node3</title>
<g id="a_Node000003"><a xlink:href="class_emoti_bit_wi_fi_robo_t_e_a.html#a69989a151b0cc117dce7b6d1df66f607" target="_top" xlink:title=" ">
<polygon fill="white" stroke="#666666" points="287.75,-95.89 152.5,-95.89 152.5,-63.89 287.75,-63.89 287.75,-95.89"/>
<text text-anchor="start" x="160.5" y="-82.39" font-family="Helvetica,sans-Serif" font-size="10.00">EmotiBitWiFiRoboTEA</text>
<text text-anchor="middle" x="220.12" y="-70.39" font-family="Helvetica,sans-Serif" font-size="10.00">::processAdvertisingThread</text>
</a>
</g>
</g>
<!-- Node2&#45;&gt;Node3 -->
<g id="edge2_Node000002_Node000003" class="edge">
<title>Node2&#45;&gt;Node3</title>
<g id="a_edge2_Node000002_Node000003"><a xlink:title=" ">
<path fill="none" stroke="#63b8ff" d="M464.62,-79.89C412.13,-79.89 340.25,-79.89 288.21,-79.89"/>
<polygon fill="#63b8ff" stroke="#63b8ff" points="464.33,-83.39 474.33,-79.89 464.33,-76.39 464.33,-83.39"/>
</a>
</g>
</g>
<!-- Node4 -->
<g id="Node000004" class="node">
<title>Node4</title>
<g id="a_Node000004"><a xlink:href="class_emoti_bit_wi_fi_robo_t_e_a.html#afb3095e8c8643fae1da87c36e97d745a" target="_top" xlink:title="Inicializa la conexión WiFi con el dispositivo EmotiBit.">
<polygon fill="white" stroke="#666666" points="116.5,-70.89 0,-70.89 0,-38.89 116.5,-38.89 116.5,-70.89"/>
<text text-anchor="start" x="8" y="-57.39" font-family="Helvetica,sans-Serif" font-size="10.00">EmotiBitWiFiRoboTEA</text>
<text text-anchor="middle" x="58.25" y="-45.39" font-family="Helvetica,sans-Serif" font-size="10.00">::begin</text>
</a>
</g>
</g>
<!-- Node3&#45;&gt;Node4 -->
<g id="edge3_Node000003_Node000004" class="edge">
<title>Node3&#45;&gt;Node4</title>
<g id="a_edge3_Node000003_Node000004"><a xlink:title=" ">
<path fill="none" stroke="#63b8ff" d="M140.9,-67.65C132.84,-66.39 124.75,-65.13 116.97,-63.91"/>
<polygon fill="#63b8ff" stroke="#63b8ff" points="140.33,-71.11 150.75,-69.2 141.42,-64.19 140.33,-71.11"/>
</a>
</g>
</g>
<!-- Node5&#45;&gt;Node6 -->
<g id="edge5_Node000005_Node000006" class="edge">
<title>Node5&#45;&gt;Node6</title>
<g id="a_edge5_Node000005_Node000006"><a xlink:title=" ">
<path fill="none" stroke="#63b8ff" d="M464.85,-29.89C456.77,-29.89 448.58,-29.89 440.67,-29.89"/>
<polygon fill="#63b8ff" stroke="#63b8ff" points="464.66,-33.39 474.66,-29.89 464.66,-26.39 464.66,-33.39"/>
</a>
</g>
</g>
<!-- Node7 -->
<g id="Node000007" class="node">
<title>Node7</title>
<g id="a_Node000007"><a xlink:href="class_emoti_bit_wi_fi_robo_t_e_a.html#a19f2caa38c7732e97a4bb4b7327e6358" target="_top" xlink:title=" ">
<polygon fill="white" stroke="#666666" points="278.38,-45.89 161.88,-45.89 161.88,-13.89 278.38,-13.89 278.38,-45.89"/>
<text text-anchor="start" x="169.88" y="-32.39" font-family="Helvetica,sans-Serif" font-size="10.00">EmotiBitWiFiRoboTEA</text>
<text text-anchor="middle" x="220.12" y="-20.39" font-family="Helvetica,sans-Serif" font-size="10.00">::updateDataThread</text>
</a>
</g>
</g>
<!-- Node6&#45;&gt;Node7 -->
<g id="edge6_Node000006_Node000007" class="edge">
<title>Node6&#45;&gt;Node7</title>
<g id="a_edge6_Node000006_Node000007"><a xlink:title=" ">
<path fill="none" stroke="#63b8ff" d="M311.9,-29.89C300.85,-29.89 289.51,-29.89 278.76,-29.89"/>
<polygon fill="#63b8ff" stroke="#63b8ff" points="311.77,-33.39 321.77,-29.89 311.77,-26.39 311.77,-33.39"/>
</a>
</g>
</g>
<!-- Node7&#45;&gt;Node4 -->
<g id="edge7_Node000007_Node000004" class="edge">
<title>Node7&#45;&gt;Node4</title>
<g id="a_edge7_Node000007_Node000004"><a xlink:title=" ">
<path fill="none" stroke="#63b8ff" d="M150.37,-40.64C139.21,-42.38 127.75,-44.18 116.88,-45.87"/>
<polygon fill="#63b8ff" stroke="#63b8ff" points="150.57,-44.15 159.91,-39.15 149.49,-37.23 150.57,-44.15"/>
</a>
</g>
</g>
</g>
</svg>

<g id="navigator" transform="translate(0 0)" fill="#404254">
  <rect fill="#f2f5e9" fill-opacity="0.5" stroke="#606060" stroke-width=".5" x="0" y="0" width="60" height="60"/>
  <use id="zoomplus" xlink:href="#zoomPlus" x="17" y="9" onmousedown="handleZoom(evt,'in')"/>
  <use id="zoomminus" xlink:href="#zoomMin" x="42" y="9" onmousedown="handleZoom(evt,'out')"/>
  <use id="reset" xlink:href="#resetDef" x="30" y="36" onmousedown="handleReset()"/>
   <use id="arrowup" xlink:href="#arrowUp" x="0" y="0" onmousedown="handlePan(0,-1)"/>
  <use id="arrowright" xlink:href="#arrowRight" x="0" y="0" onmousedown="handlePan(1,0)"/>
  <use id="arrowdown" xlink:href="#arrowDown" x="0" y="0" onmousedown="handlePan(0,1)"/>
  <use id="arrowleft" xlink:href="#arrowLeft" x="0" y="0" onmousedown="handlePan(-1,0)"/>
</g>
<svg viewBox="0 0 15 15" width="100%" height="30px" preserveAspectRatio="xMaxYMin meet">
 <g id="arrow_out" transform="scale(0.3 0.3)">
  <a xlink:href="classq_emoti_bit_packet_a9262319d6d9df0e2f7ecee825e9977f2_icgraph_org.svg" target="_base">
   <rect id="button" ry="5" rx="5" y="6" x="6" height="38" width="38"
        fill="#f2f5e9" fill-opacity="0.5" stroke="#606060" stroke-width="1.0"/>
   <path id="arrow"
     d="M 11.500037,31.436501 C 11.940474,20.09759 22.043105,11.32322 32.158766,21.979434 L 37.068811,17.246167 C 37.068811,17.246167 37.088388,32 37.088388,32 L 22.160133,31.978069 C 22.160133,31.978069 26.997745,27.140456 26.997745,27.140456 C 18.528582,18.264221 13.291696,25.230495 11.500037,31.436501 z"
     style="fill:#404040;"/>
  </a>
 </g>
</svg>

<style type='text/css'>
<![CDATA[
[data-mouse-over-selected='false'] { opacity: 0.7; }
[data-mouse-over-selected='true']  { opacity: 1.0; }
]]>
</style>
<script type="application/ecmascript"><![CDATA[
document.addEventListener('DOMContentLoaded', (event) => {
  highlightEdges();
  highlightAdjacentNodes();
});
]]></script>
</svg>
