<?xml version="1.0" encoding="UTF-8" standalone="no"?>
<!DOCTYPE svg PUBLIC "-//W3C//DTD SVG 1.1//EN"
 "http://www.w3.org/Graphics/SVG/1.1/DTD/svg11.dtd">
<!-- Generated by graphviz version 12.2.1 (20241206.2353)
 -->
<!-- Title: EmotiBitWiFiRoboTEA::getLocalIPs Pages: 1 -->
<svg width="907pt" height="62pt"
 viewBox="0.00 0.00 906.50 62.00" xmlns="http://www.w3.org/2000/svg" xmlns:xlink="http://www.w3.org/1999/xlink">
<g id="graph0" class="graph" transform="scale(1 1) rotate(0) translate(4 58)">
<title>EmotiBitWiFiRoboTEA::getLocalIPs</title>
<!-- Node1 -->
<g id="Node000001" class="node">
<title>Node1</title>
<g id="a_Node000001"><a xlink:title=" ">
<polygon fill="#999999" stroke="#666666" points="898.5,-54 782,-54 782,-22 898.5,-22 898.5,-54"/>
<text text-anchor="start" x="790" y="-40.5" font-family="Helvetica,sans-Serif" font-size="10.00">EmotiBitWiFiRoboTEA</text>
<text text-anchor="middle" x="840.25" y="-28.5" font-family="Helvetica,sans-Serif" font-size="10.00">::getLocalIPs</text>
</a>
</g>
</g>
<!-- Node2 -->
<g id="Node000002" class="node">
<title>Node2</title>
<g id="a_Node000002"><a xlink:href="class_emoti_bit_wi_fi_robo_t_e_a.html#a7c5bb7f21f7a168274d428223917946d" target="_top" xlink:title=" ">
<polygon fill="white" stroke="#666666" points="746,-54 628.75,-54 628.75,-22 746,-22 746,-54"/>
<text text-anchor="start" x="636.75" y="-40.5" font-family="Helvetica,sans-Serif" font-size="10.00">EmotiBitWiFiRoboTEA</text>
<text text-anchor="middle" x="687.38" y="-28.5" font-family="Helvetica,sans-Serif" font-size="10.00">::getAvailableNetworks</text>
</a>
</g>
</g>
<!-- Node1&#45;&gt;Node2 -->
<g id="edge1_Node000001_Node000002" class="edge">
<title>Node1&#45;&gt;Node2</title>
<g id="a_edge1_Node000001_Node000002"><a xlink:title=" ">
<path fill="none" stroke="#63b8ff" d="M770.51,-38C762.46,-38 754.32,-38 746.43,-38"/>
<polygon fill="#63b8ff" stroke="#63b8ff" points="770.27,-41.5 780.27,-38 770.27,-34.5 770.27,-41.5"/>
</a>
</g>
</g>
<!-- Node3 -->
<g id="Node000003" class="node">
<title>Node3</title>
<g id="a_Node000003"><a xlink:href="class_emoti_bit_wi_fi_robo_t_e_a.html#afb3095e8c8643fae1da87c36e97d745a" target="_top" xlink:title="Inicializa la conexión WiFi con el dispositivo EmotiBit.">
<polygon fill="white" stroke="#666666" points="116.5,-54 0,-54 0,-22 116.5,-22 116.5,-54"/>
<text text-anchor="start" x="8" y="-40.5" font-family="Helvetica,sans-Serif" font-size="10.00">EmotiBitWiFiRoboTEA</text>
<text text-anchor="middle" x="58.25" y="-28.5" font-family="Helvetica,sans-Serif" font-size="10.00">::begin</text>
</a>
</g>
</g>
<!-- Node2&#45;&gt;Node3 -->
<g id="edge2_Node000002_Node000003" class="edge">
<title>Node2&#45;&gt;Node3</title>
<g id="a_edge2_Node000002_Node000003"><a xlink:title=" ">
<path fill="none" stroke="#63b8ff" d="M616.98,-40.47C608.81,-40.69 600.6,-40.87 592.75,-41 397.11,-44.13 348.14,-44.15 152.5,-41 141,-40.82 128.71,-40.5 116.95,-40.15"/>
<polygon fill="#63b8ff" stroke="#63b8ff" points="617.04,-43.97 626.93,-40.19 616.84,-36.97 617.04,-43.97"/>
</a>
</g>
</g>
<!-- Node4 -->
<g id="Node000004" class="node">
<title>Node4</title>
<g id="a_Node000004"><a xlink:href="class_emoti_bit_wi_fi_robo_t_e_a.html#abce274263f298bd5500d3ce59c61a9fc" target="_top" xlink:title=" ">
<polygon fill="white" stroke="#666666" points="592.75,-32 476.25,-32 476.25,0 592.75,0 592.75,-32"/>
<text text-anchor="start" x="484.25" y="-18.5" font-family="Helvetica,sans-Serif" font-size="10.00">EmotiBitWiFiRoboTEA</text>
<text text-anchor="middle" x="534.5" y="-6.5" font-family="Helvetica,sans-Serif" font-size="10.00">::sendAdvertising</text>
</a>
</g>
</g>
<!-- Node2&#45;&gt;Node4 -->
<g id="edge3_Node000002_Node000004" class="edge">
<title>Node2&#45;&gt;Node4</title>
<g id="a_edge3_Node000002_Node000004"><a xlink:title=" ">
<path fill="none" stroke="#63b8ff" d="M617.15,-27.91C609.07,-26.73 600.89,-25.54 593,-24.38"/>
<polygon fill="#63b8ff" stroke="#63b8ff" points="616.58,-31.36 626.98,-29.34 617.59,-24.43 616.58,-31.36"/>
</a>
</g>
</g>
<!-- Node5 -->
<g id="Node000005" class="node">
<title>Node5</title>
<g id="a_Node000005"><a xlink:href="class_emoti_bit_wi_fi_robo_t_e_a.html#a479561ab9243c7c085df1e01cfcf7f8b" target="_top" xlink:title=" ">
<polygon fill="white" stroke="#666666" points="440.25,-32 323.75,-32 323.75,0 440.25,0 440.25,-32"/>
<text text-anchor="start" x="331.75" y="-18.5" font-family="Helvetica,sans-Serif" font-size="10.00">EmotiBitWiFiRoboTEA</text>
<text text-anchor="middle" x="382" y="-6.5" font-family="Helvetica,sans-Serif" font-size="10.00">::processAdvertising</text>
</a>
</g>
</g>
<!-- Node4&#45;&gt;Node5 -->
<g id="edge4_Node000004_Node000005" class="edge">
<title>Node4&#45;&gt;Node5</title>
<g id="a_edge4_Node000004_Node000005"><a xlink:title=" ">
<path fill="none" stroke="#63b8ff" d="M464.85,-16C456.77,-16 448.58,-16 440.67,-16"/>
<polygon fill="#63b8ff" stroke="#63b8ff" points="464.66,-19.5 474.66,-16 464.66,-12.5 464.66,-19.5"/>
</a>
</g>
</g>
<!-- Node6 -->
<g id="Node000006" class="node">
<title>Node6</title>
<g id="a_Node000006"><a xlink:href="class_emoti_bit_wi_fi_robo_t_e_a.html#a69989a151b0cc117dce7b6d1df66f607" target="_top" xlink:title=" ">
<polygon fill="white" stroke="#666666" points="287.75,-32 152.5,-32 152.5,0 287.75,0 287.75,-32"/>
<text text-anchor="start" x="160.5" y="-18.5" font-family="Helvetica,sans-Serif" font-size="10.00">EmotiBitWiFiRoboTEA</text>
<text text-anchor="middle" x="220.12" y="-6.5" font-family="Helvetica,sans-Serif" font-size="10.00">::processAdvertisingThread</text>
</a>
</g>
</g>
<!-- Node5&#45;&gt;Node6 -->
<g id="edge5_Node000005_Node000006" class="edge">
<title>Node5&#45;&gt;Node6</title>
<g id="a_edge5_Node000005_Node000006"><a xlink:title=" ">
<path fill="none" stroke="#63b8ff" d="M311.84,-16C303.93,-16 295.88,-16 288,-16"/>
<polygon fill="#63b8ff" stroke="#63b8ff" points="311.77,-19.5 321.77,-16 311.77,-12.5 311.77,-19.5"/>
</a>
</g>
</g>
<!-- Node6&#45;&gt;Node3 -->
<g id="edge6_Node000006_Node000003" class="edge">
<title>Node6&#45;&gt;Node3</title>
<g id="a_edge6_Node000006_Node000003"><a xlink:title=" ">
<path fill="none" stroke="#63b8ff" d="M140.9,-26.76C132.84,-27.87 124.75,-28.99 116.97,-30.06"/>
<polygon fill="#63b8ff" stroke="#63b8ff" points="141.32,-30.24 150.75,-25.41 140.37,-23.3 141.32,-30.24"/>
</a>
</g>
</g>
</g>
</svg>
