<?xml version="1.0" encoding="UTF-8" standalone="no"?>
<!DOCTYPE svg PUBLIC "-//W3C//DTD SVG 1.1//EN"
 "http://www.w3.org/Graphics/SVG/1.1/DTD/svg11.dtd">
<!-- Generated by graphviz version 12.2.1 (20241206.2353)
 -->
<!-- Title: EmotiBitController::batteryLevelUpdated Pages: 1 -->
<svg width="261pt" height="58pt"
 viewBox="0.00 0.00 260.50 58.00" xmlns="http://www.w3.org/2000/svg" xmlns:xlink="http://www.w3.org/1999/xlink">
<g id="graph0" class="graph" transform="scale(1 1) rotate(0) translate(4 54)">
<title>EmotiBitController::batteryLevelUpdated</title>
<!-- Node1 -->
<g id="Node000001" class="node">
<title>Node1</title>
<g id="a_Node000001"><a xlink:title=" ">
<polygon fill="#999999" stroke="#666666" points="252.5,-32 140.5,-32 140.5,0 252.5,0 252.5,-32"/>
<text text-anchor="start" x="148.5" y="-18.5" font-family="Helvetica,sans-Serif" font-size="10.00">EmotiBitController</text>
<text text-anchor="middle" x="196.5" y="-6.5" font-family="Helvetica,sans-Serif" font-size="10.00">::batteryLevelUpdated</text>
</a>
</g>
</g>
<!-- Node2 -->
<g id="Node000002" class="node">
<title>Node2</title>
<g id="a_Node000002"><a xlink:href="class_form_vista_emoti_bit.html#ac8590bd020882bd3045898adeca7276d" target="_top" xlink:title="Constructor de VistaEmotibit.">
<polygon fill="white" stroke="#666666" points="104.5,-32 0,-32 0,0 104.5,0 104.5,-32"/>
<text text-anchor="start" x="8" y="-18.5" font-family="Helvetica,sans-Serif" font-size="10.00">FormVistaEmotiBit::</text>
<text text-anchor="middle" x="52.25" y="-6.5" font-family="Helvetica,sans-Serif" font-size="10.00">FormVistaEmotiBit</text>
</a>
</g>
</g>
<!-- Node1&#45;&gt;Node2 -->
<g id="edge1_Node000001_Node000002" class="edge">
<title>Node1&#45;&gt;Node2</title>
<g id="a_edge1_Node000001_Node000002"><a xlink:title=" ">
<path fill="none" stroke="#63b8ff" d="M128.71,-16C120.59,-16 112.4,-16 104.55,-16"/>
<polygon fill="#63b8ff" stroke="#63b8ff" points="128.58,-19.5 138.58,-16 128.58,-12.5 128.58,-19.5"/>
</a>
</g>
</g>
<!-- Node2&#45;&gt;Node2 -->
<g id="edge2_Node000002_Node000002" class="edge">
<title>Node2&#45;&gt;Node2</title>
<g id="a_edge2_Node000002_Node000002"><a xlink:title=" ">
<path fill="none" stroke="#63b8ff" d="M76.29,-43.71C72.28,-47.48 64.27,-50 52.25,-50 30.27,-50 21.69,-41.58 26.5,-32.44"/>
<polygon fill="#63b8ff" stroke="#63b8ff" points="79.73,-44.35 77.77,-33.94 72.81,-43.3 79.73,-44.35"/>
</a>
</g>
</g>
</g>
</svg>
