<?xml version="1.0" encoding="UTF-8" standalone="no"?>
<!DOCTYPE svg PUBLIC "-//W3C//DTD SVG 1.1//EN"
 "http://www.w3.org/Graphics/SVG/1.1/DTD/svg11.dtd">
<!-- Generated by graphviz version 12.2.1 (20241206.2353)
 -->
<!-- Title: FormVistaEmotiBit::FormVistaEmotiBit Pages: 1 -->
<svg width="411pt" height="290pt"
 viewBox="0.00 0.00 410.75 290.00" xmlns="http://www.w3.org/2000/svg" xmlns:xlink="http://www.w3.org/1999/xlink">
<g id="graph0" class="graph" transform="scale(1 1) rotate(0) translate(4 286)">
<title>FormVistaEmotiBit::FormVistaEmotiBit</title>
<!-- Node1 -->
<g id="Node000001" class="node">
<title>Node1</title>
<g id="a_Node000001"><a xlink:title="Constructor de VistaEmotibit.">
<polygon fill="#999999" stroke="#666666" points="104.5,-157 0,-157 0,-125 104.5,-125 104.5,-157"/>
<text text-anchor="start" x="8" y="-143.5" font-family="Helvetica,sans-Serif" font-size="10.00">FormVistaEmotiBit::</text>
<text text-anchor="middle" x="52.25" y="-131.5" font-family="Helvetica,sans-Serif" font-size="10.00">FormVistaEmotiBit</text>
</a>
</g>
</g>
<!-- Node1&#45;&gt;Node1 -->
<g id="edge3_Node000001_Node000001" class="edge">
<title>Node1&#45;&gt;Node1</title>
<g id="a_edge3_Node000001_Node000001"><a xlink:title=" ">
<path fill="none" stroke="#63b8ff" d="M25.63,-157.44C20.66,-166.58 29.53,-175 52.25,-175 64.67,-175 72.96,-172.48 77.1,-168.71"/>
<polygon fill="#63b8ff" stroke="#63b8ff" points="80.54,-169.36 78.64,-158.94 73.63,-168.27 80.54,-169.36"/>
</a>
</g>
</g>
<!-- Node2 -->
<g id="Node000002" class="node">
<title>Node2</title>
<g id="a_Node000002"><a xlink:href="class_emoti_bit_controller.html#a0dd1afd7af8dc2c07f93eadf401349fc" target="_top" xlink:title=" ">
<polygon fill="white" stroke="#666666" points="257.38,-282 145.38,-282 145.38,-250 257.38,-250 257.38,-282"/>
<text text-anchor="start" x="153.38" y="-268.5" font-family="Helvetica,sans-Serif" font-size="10.00">EmotiBitController</text>
<text text-anchor="middle" x="201.38" y="-256.5" font-family="Helvetica,sans-Serif" font-size="10.00">::batteryLevelUpdated</text>
</a>
</g>
</g>
<!-- Node1&#45;&gt;Node2 -->
<g id="edge1_Node000001_Node000002" class="edge">
<title>Node1&#45;&gt;Node2</title>
<g id="a_edge1_Node000001_Node000002"><a xlink:title=" ">
<path fill="none" stroke="#63b8ff" d="M63.85,-157.25C78.7,-178.92 107.6,-217.29 140.5,-241 141.87,-241.99 143.29,-242.95 144.74,-243.87"/>
<polygon fill="#63b8ff" stroke="#63b8ff" points="142.98,-246.9 153.4,-248.82 146.45,-240.82 142.98,-246.9"/>
</a>
</g>
</g>
<!-- Node3 -->
<g id="Node000003" class="node">
<title>Node3</title>
<g id="a_Node000003"><a xlink:href="class_emoti_bit_controller.html#a1c1aa6edf49a5fb9a1b8e3a4156aceb6" target="_top" xlink:title=" ">
<polygon fill="white" stroke="#666666" points="257,-232 145.75,-232 145.75,-200 257,-200 257,-232"/>
<text text-anchor="start" x="153.75" y="-218.5" font-family="Helvetica,sans-Serif" font-size="10.00">EmotiBitController</text>
<text text-anchor="middle" x="201.38" y="-206.5" font-family="Helvetica,sans-Serif" font-size="10.00">::deviceModeUpdated</text>
</a>
</g>
</g>
<!-- Node1&#45;&gt;Node3 -->
<g id="edge2_Node000001_Node000003" class="edge">
<title>Node1&#45;&gt;Node3</title>
<g id="a_edge2_Node000001_Node000003"><a xlink:title=" ">
<path fill="none" stroke="#63b8ff" d="M79.9,-157.43C96.94,-167.64 119.67,-180.73 140.5,-191 143.2,-192.33 145.99,-193.66 148.82,-194.96"/>
<polygon fill="#63b8ff" stroke="#63b8ff" points="147.23,-198.09 157.78,-198.97 150.08,-191.7 147.23,-198.09"/>
</a>
</g>
</g>
<!-- Node4 -->
<g id="Node000004" class="node">
<title>Node4</title>
<g id="a_Node000004"><a xlink:href="class_emoti_bit_controller.html#ab6bc6250c9f147fa1456dfbba214e03d" target="_top" xlink:title=" ">
<polygon fill="white" stroke="#666666" points="249.12,-182 153.62,-182 153.62,-150 249.12,-150 249.12,-182"/>
<text text-anchor="start" x="161.62" y="-168.5" font-family="Helvetica,sans-Serif" font-size="10.00">EmotiBitController</text>
<text text-anchor="middle" x="201.38" y="-156.5" font-family="Helvetica,sans-Serif" font-size="10.00">::newMessage</text>
</a>
</g>
</g>
<!-- Node1&#45;&gt;Node4 -->
<g id="edge4_Node000001_Node000004" class="edge">
<title>Node1&#45;&gt;Node4</title>
<g id="a_edge4_Node000001_Node000004"><a xlink:title=" ">
<path fill="none" stroke="#63b8ff" d="M104.71,-149.74C116.76,-151.79 129.69,-153.99 142.02,-156.08"/>
<polygon fill="#63b8ff" stroke="#63b8ff" points="141.2,-159.49 151.64,-157.72 142.37,-152.59 141.2,-159.49"/>
</a>
</g>
</g>
<!-- Node5 -->
<g id="Node000005" class="node">
<title>Node5</title>
<g id="a_Node000005"><a xlink:href="class_emoti_bit_controller.html#abc1f50c372c285e7eed90a6ec87b84cd" target="_top" xlink:title=" ">
<polygon fill="white" stroke="#666666" points="262.25,-132 140.5,-132 140.5,-100 262.25,-100 262.25,-132"/>
<text text-anchor="start" x="148.5" y="-118.5" font-family="Helvetica,sans-Serif" font-size="10.00">EmotiBitController</text>
<text text-anchor="middle" x="201.38" y="-106.5" font-family="Helvetica,sans-Serif" font-size="10.00">::recordingStateUpdated</text>
</a>
</g>
</g>
<!-- Node1&#45;&gt;Node5 -->
<g id="edge5_Node000001_Node000005" class="edge">
<title>Node1&#45;&gt;Node5</title>
<g id="a_edge5_Node000001_Node000005"><a xlink:title=" ">
<path fill="none" stroke="#63b8ff" d="M104.71,-132.26C112.57,-130.92 120.8,-129.52 129,-128.13"/>
<polygon fill="#63b8ff" stroke="#63b8ff" points="129.35,-131.62 138.62,-126.49 128.18,-124.72 129.35,-131.62"/>
</a>
</g>
</g>
<!-- Node6 -->
<g id="Node000006" class="node">
<title>Node6</title>
<g id="a_Node000006"><a xlink:href="class_emoti_bit_controller.html#a6c126b7443e8e82543a56c3a92fcaf6c" target="_top" xlink:title=" ">
<polygon fill="white" stroke="#666666" points="258.12,-82 144.62,-82 144.62,-50 258.12,-50 258.12,-82"/>
<text text-anchor="start" x="152.62" y="-68.5" font-family="Helvetica,sans-Serif" font-size="10.00">EmotiBitController</text>
<text text-anchor="middle" x="201.38" y="-56.5" font-family="Helvetica,sans-Serif" font-size="10.00">::sensorDataReceived</text>
</a>
</g>
</g>
<!-- Node1&#45;&gt;Node6 -->
<g id="edge6_Node000001_Node000006" class="edge">
<title>Node1&#45;&gt;Node6</title>
<g id="a_edge6_Node000001_Node000006"><a xlink:title=" ">
<path fill="none" stroke="#63b8ff" d="M79.9,-124.57C96.94,-114.36 119.67,-101.27 140.5,-91 143.2,-89.67 145.99,-88.34 148.82,-87.04"/>
<polygon fill="#63b8ff" stroke="#63b8ff" points="150.08,-90.3 157.78,-83.03 147.23,-83.91 150.08,-90.3"/>
</a>
</g>
</g>
<!-- Node7 -->
<g id="Node000007" class="node">
<title>Node7</title>
<g id="a_Node000007"><a xlink:href="class_form_vista_emoti_bit.html#a757e5fdc47fac77364963e441c953600" target="_top" xlink:title="Detiene la grabación activa.">
<polygon fill="white" stroke="#666666" points="253.62,-32 149.12,-32 149.12,0 253.62,0 253.62,-32"/>
<text text-anchor="start" x="157.12" y="-18.5" font-family="Helvetica,sans-Serif" font-size="10.00">FormVistaEmotiBit::</text>
<text text-anchor="middle" x="201.38" y="-6.5" font-family="Helvetica,sans-Serif" font-size="10.00">stopRecording</text>
</a>
</g>
</g>
<!-- Node1&#45;&gt;Node7 -->
<g id="edge7_Node000001_Node000007" class="edge">
<title>Node1&#45;&gt;Node7</title>
<g id="a_edge7_Node000001_Node000007"><a xlink:title=" ">
<path fill="none" stroke="#63b8ff" d="M63.85,-124.75C78.7,-103.08 107.6,-64.71 140.5,-41 141.87,-40.01 143.29,-39.05 144.74,-38.13"/>
<polygon fill="#63b8ff" stroke="#63b8ff" points="146.45,-41.18 153.4,-33.18 142.98,-35.1 146.45,-41.18"/>
</a>
</g>
</g>
<!-- Node8 -->
<g id="Node000008" class="node">
<title>Node8</title>
<g id="a_Node000008"><a xlink:href="class_form_vista_emoti_bit.html#aca7464ff6fef3c5753012ac6343063a7" target="_top" xlink:title=" ">
<polygon fill="white" stroke="#666666" points="402.75,-32 298.25,-32 298.25,0 402.75,0 402.75,-32"/>
<text text-anchor="start" x="306.25" y="-18.5" font-family="Helvetica,sans-Serif" font-size="10.00">FormVistaEmotiBit::</text>
<text text-anchor="middle" x="350.5" y="-6.5" font-family="Helvetica,sans-Serif" font-size="10.00">signalLogEmotiBit</text>
</a>
</g>
</g>
<!-- Node7&#45;&gt;Node8 -->
<g id="edge8_Node000007_Node000008" class="edge">
<title>Node7&#45;&gt;Node8</title>
<g id="a_edge8_Node000007_Node000008"><a xlink:title=" ">
<path fill="none" stroke="#63b8ff" d="M253.83,-16C264.41,-16 275.66,-16 286.59,-16"/>
<polygon fill="#63b8ff" stroke="#63b8ff" points="286.31,-19.5 296.31,-16 286.31,-12.5 286.31,-19.5"/>
</a>
</g>
</g>
</g>
</svg>
