<?xml version="1.0" encoding="UTF-8" standalone="no"?>
<!DOCTYPE svg PUBLIC "-//W3C//DTD SVG 1.1//EN"
 "http://www.w3.org/Graphics/SVG/1.1/DTD/svg11.dtd">
<!-- Generated by graphviz version 12.2.1 (20241206.2353)
 -->
<!-- Title: EmotiBitWiFiRoboTEA::getAvailableNetworks Pages: 1 -->
<svg width="439pt" height="140pt"
 viewBox="0.00 0.00 439.25 140.00" xmlns="http://www.w3.org/2000/svg" xmlns:xlink="http://www.w3.org/1999/xlink">

<svg id="main" version="1.1" xmlns="http://www.w3.org/2000/svg" xmlns:xlink="http://www.w3.org/1999/xlink" xml:space="preserve">

<style type="text/css"><![CDATA[
.node, .edge {opacity: 0.7;}
.node.selected, .edge.selected {opacity: 1;}
.edge:hover path { stroke: red; }
.edge:hover polygon { stroke: red; fill: red; }
]]></style>
<script type="application/ecmascript" xlink:href="svg.min.js"/>
<svg id="graph" class="graph">
<g id="graph0" class="graph" transform="scale(1 1) rotate(0) translate(4 136)">
<title>EmotiBitWiFiRoboTEA::getAvailableNetworks</title>
<!-- Node1 -->
<g id="Node000001" class="node">
<title>Node1</title>
<g id="a_Node000001"><a xlink:title=" ">
<polygon fill="#999999" stroke="#666666" points="117.25,-82 0,-82 0,-50 117.25,-50 117.25,-82"/>
<text text-anchor="start" x="8" y="-68.5" font-family="Helvetica,sans-Serif" font-size="10.00">EmotiBitWiFiRoboTEA</text>
<text text-anchor="middle" x="58.62" y="-56.5" font-family="Helvetica,sans-Serif" font-size="10.00">::getAvailableNetworks</text>
</a>
</g>
</g>
<!-- Node2 -->
<g id="Node000002" class="node">
<title>Node2</title>
<g id="a_Node000002"><a xlink:href="class_emoti_bit_wi_fi_robo_t_e_a.html#a7447abf3fade143a598184d65df41092" target="_top" xlink:title=" ">
<polygon fill="white" stroke="#666666" points="274.25,-132 157.75,-132 157.75,-100 274.25,-100 274.25,-132"/>
<text text-anchor="start" x="165.75" y="-118.5" font-family="Helvetica,sans-Serif" font-size="10.00">EmotiBitWiFiRoboTEA</text>
<text text-anchor="middle" x="216" y="-106.5" font-family="Helvetica,sans-Serif" font-size="10.00">::getLocalIPs</text>
</a>
</g>
</g>
<!-- Node1&#45;&gt;Node2 -->
<g id="edge1_Node000001_Node000002" class="edge">
<title>Node1&#45;&gt;Node2</title>
<g id="a_edge1_Node000001_Node000002"><a xlink:title=" ">
<path fill="none" stroke="#63b8ff" d="M110.5,-82.37C124.11,-86.75 138.98,-91.54 153.11,-96.08"/>
<polygon fill="#63b8ff" stroke="#63b8ff" points="151.71,-99.31 162.3,-99.04 153.86,-92.65 151.71,-99.31"/>
</a>
</g>
</g>
<!-- Node3 -->
<g id="Node000003" class="node">
<title>Node3</title>
<g id="a_Node000003"><a xlink:href="class_emoti_bit_wi_fi_robo_t_e_a.html#a932279040f097f60fd486163972c328c" target="_top" xlink:title=" ">
<polygon fill="white" stroke="#666666" points="278.75,-82 153.25,-82 153.25,-50 278.75,-50 278.75,-82"/>
<text text-anchor="start" x="161.25" y="-68.5" font-family="Helvetica,sans-Serif" font-size="10.00">EmotiBitWiFiRoboTEA</text>
<text text-anchor="middle" x="216" y="-56.5" font-family="Helvetica,sans-Serif" font-size="10.00">::isInNetworkExcludeList</text>
</a>
</g>
</g>
<!-- Node1&#45;&gt;Node3 -->
<g id="edge2_Node000001_Node000003" class="edge">
<title>Node1&#45;&gt;Node3</title>
<g id="a_edge2_Node000001_Node000003"><a xlink:title=" ">
<path fill="none" stroke="#63b8ff" d="M117.48,-66C125.34,-66 133.49,-66 141.57,-66"/>
<polygon fill="#63b8ff" stroke="#63b8ff" points="141.42,-69.5 151.42,-66 141.42,-62.5 141.42,-69.5"/>
</a>
</g>
</g>
<!-- Node5 -->
<g id="Node000005" class="node">
<title>Node5</title>
<g id="a_Node000005"><a xlink:href="class_emoti_bit_wi_fi_robo_t_e_a.html#a3677dd6ccbfe65acceb8c9b53e7df2a4" target="_top" xlink:title=" ">
<polygon fill="white" stroke="#666666" points="276.88,-32 155.12,-32 155.12,0 276.88,0 276.88,-32"/>
<text text-anchor="start" x="163.12" y="-18.5" font-family="Helvetica,sans-Serif" font-size="10.00">EmotiBitWiFiRoboTEA</text>
<text text-anchor="middle" x="216" y="-6.5" font-family="Helvetica,sans-Serif" font-size="10.00">::isInNetworkIncludeList</text>
</a>
</g>
</g>
<!-- Node1&#45;&gt;Node5 -->
<g id="edge4_Node000001_Node000005" class="edge">
<title>Node1&#45;&gt;Node5</title>
<g id="a_edge4_Node000001_Node000005"><a xlink:title=" ">
<path fill="none" stroke="#63b8ff" d="M110.5,-49.63C124.11,-45.25 138.98,-40.46 153.11,-35.92"/>
<polygon fill="#63b8ff" stroke="#63b8ff" points="153.86,-39.35 162.3,-32.96 151.71,-32.69 153.86,-39.35"/>
</a>
</g>
</g>
<!-- Node4 -->
<g id="Node000004" class="node">
<title>Node4</title>
<g id="a_Node000004"><a xlink:href="class_emoti_bit_wi_fi_robo_t_e_a.html#ad3a7e685f53ec9d95050561d3b3fdef3" target="_top" xlink:title=" ">
<polygon fill="white" stroke="#666666" points="431.25,-57 314.75,-57 314.75,-25 431.25,-25 431.25,-57"/>
<text text-anchor="start" x="322.75" y="-43.5" font-family="Helvetica,sans-Serif" font-size="10.00">EmotiBitWiFiRoboTEA</text>
<text text-anchor="middle" x="373" y="-31.5" font-family="Helvetica,sans-Serif" font-size="10.00">::isInNetworkList</text>
</a>
</g>
</g>
<!-- Node3&#45;&gt;Node4 -->
<g id="edge3_Node000003_Node000004" class="edge">
<title>Node3&#45;&gt;Node4</title>
<g id="a_edge3_Node000003_Node000004"><a xlink:title=" ">
<path fill="none" stroke="#63b8ff" d="M279.15,-55.98C287.05,-54.7 295.17,-53.39 303.17,-52.1"/>
<polygon fill="#63b8ff" stroke="#63b8ff" points="303.55,-55.59 312.86,-50.54 302.43,-48.68 303.55,-55.59"/>
</a>
</g>
</g>
<!-- Node5&#45;&gt;Node4 -->
<g id="edge5_Node000005_Node000004" class="edge">
<title>Node5&#45;&gt;Node4</title>
<g id="a_edge5_Node000005_Node000004"><a xlink:title=" ">
<path fill="none" stroke="#63b8ff" d="M277.37,-25.74C285.82,-27.1 294.56,-28.51 303.15,-29.9"/>
<polygon fill="#63b8ff" stroke="#63b8ff" points="302.41,-33.32 312.84,-31.46 303.52,-26.41 302.41,-33.32"/>
</a>
</g>
</g>
</g>
</svg>
</svg>

<style type='text/css'>
<![CDATA[
[data-mouse-over-selected='false'] { opacity: 0.7; }
[data-mouse-over-selected='true']  { opacity: 1.0; }
]]>
</style>
<script type="application/ecmascript"><![CDATA[
document.addEventListener('DOMContentLoaded', (event) => {
  highlightEdges();
  highlightAdjacentNodes();
});
]]></script>
</svg>
