<?xml version="1.0" encoding="UTF-8" standalone="no"?>
<!DOCTYPE svg PUBLIC "-//W3C//DTD SVG 1.1//EN"
 "http://www.w3.org/Graphics/SVG/1.1/DTD/svg11.dtd">
<!-- Generated by graphviz version 12.2.1 (20241206.2353)
 -->
<!-- Title: EmotiBitController::reiniciarTiempo Pages: 1 -->
<svg width="237pt" height="90pt"
 viewBox="0.00 0.00 237.25 90.00" xmlns="http://www.w3.org/2000/svg" xmlns:xlink="http://www.w3.org/1999/xlink">
<g id="graph0" class="graph" transform="scale(1 1) rotate(0) translate(4 86)">
<title>EmotiBitController::reiniciarTiempo</title>
<!-- Node1 -->
<g id="Node000001" class="node">
<title>Node1</title>
<g id="a_Node000001"><a xlink:title=" ">
<polygon fill="#999999" stroke="#666666" points="229.25,-57 133.75,-57 133.75,-25 229.25,-25 229.25,-57"/>
<text text-anchor="start" x="141.75" y="-43.5" font-family="Helvetica,sans-Serif" font-size="10.00">EmotiBitController</text>
<text text-anchor="middle" x="181.5" y="-31.5" font-family="Helvetica,sans-Serif" font-size="10.00">::reiniciarTiempo</text>
</a>
</g>
</g>
<!-- Node2 -->
<g id="Node000002" class="node">
<title>Node2</title>
<g id="a_Node000002"><a xlink:href="class_emoti_bit_controller.html#a3c58b5b8b0343802910aeaadbe7f093f" target="_top" xlink:title=" ">
<polygon fill="white" stroke="#666666" points="96.62,-82 1.12,-82 1.12,-50 96.62,-50 96.62,-82"/>
<text text-anchor="start" x="9.12" y="-68.5" font-family="Helvetica,sans-Serif" font-size="10.00">EmotiBitController</text>
<text text-anchor="middle" x="48.88" y="-56.5" font-family="Helvetica,sans-Serif" font-size="10.00">::begin</text>
</a>
</g>
</g>
<!-- Node1&#45;&gt;Node2 -->
<g id="edge1_Node000001_Node000002" class="edge">
<title>Node1&#45;&gt;Node2</title>
<g id="a_edge1_Node000001_Node000002"><a xlink:title=" ">
<path fill="none" stroke="#63b8ff" d="M122.04,-52.19C113.65,-53.79 105.1,-55.43 96.96,-56.99"/>
<polygon fill="#63b8ff" stroke="#63b8ff" points="122.69,-55.63 131.85,-50.31 121.38,-48.75 122.69,-55.63"/>
</a>
</g>
</g>
<!-- Node3 -->
<g id="Node000003" class="node">
<title>Node3</title>
<g id="a_Node000003"><a xlink:href="class_emoti_bit_controller.html#aeec0ab533183f5ec3ef32dcf6f5e7764" target="_top" xlink:title=" ">
<polygon fill="white" stroke="#666666" points="97.75,-32 0,-32 0,0 97.75,0 97.75,-32"/>
<text text-anchor="start" x="8" y="-18.5" font-family="Helvetica,sans-Serif" font-size="10.00">EmotiBitController</text>
<text text-anchor="middle" x="48.88" y="-6.5" font-family="Helvetica,sans-Serif" font-size="10.00">::connectToDevice</text>
</a>
</g>
</g>
<!-- Node1&#45;&gt;Node3 -->
<g id="edge2_Node000001_Node000003" class="edge">
<title>Node1&#45;&gt;Node3</title>
<g id="a_edge2_Node000001_Node000003"><a xlink:title=" ">
<path fill="none" stroke="#63b8ff" d="M122.05,-29.81C113.95,-28.26 105.72,-26.69 97.84,-25.18"/>
<polygon fill="#63b8ff" stroke="#63b8ff" points="121.38,-33.25 131.85,-31.69 122.69,-26.37 121.38,-33.25"/>
</a>
</g>
</g>
</g>
</svg>
