<?xml version="1.0" encoding="UTF-8" standalone="no"?>
<!DOCTYPE svg PUBLIC "-//W3C//DTD SVG 1.1//EN"
 "http://www.w3.org/Graphics/SVG/1.1/DTD/svg11.dtd">
<!-- Generated by graphviz version 12.2.1 (20241206.2353)
 -->
<!-- Title: qEmotiBitPacket::getHeader Pages: 1 -->
<svg width="777pt" height="104pt"
 viewBox="0.00 0.00 777.25 103.89" xmlns="http://www.w3.org/2000/svg" xmlns:xlink="http://www.w3.org/1999/xlink">
<g id="graph0" class="graph" transform="scale(1 1) rotate(0) translate(4 99.89)">
<title>qEmotiBitPacket::getHeader</title>
<!-- Node1 -->
<g id="Node000001" class="node">
<title>Node1</title>
<g id="a_Node000001"><a xlink:title="Extrae el encabezado de un paquete a partir de su representación en texto completo.">
<polygon fill="#999999" stroke="#666666" points="769.25,-39.89 628.75,-39.89 628.75,-19.89 769.25,-19.89 769.25,-39.89"/>
<text text-anchor="middle" x="699" y="-26.39" font-family="Helvetica,sans-Serif" font-size="10.00">qEmotiBitPacket::getHeader</text>
</a>
</g>
</g>
<!-- Node2 -->
<g id="Node000002" class="node">
<title>Node2</title>
<g id="a_Node000002"><a xlink:href="class_emoti_bit_wi_fi_robo_t_e_a.html#a479561ab9243c7c085df1e01cfcf7f8b" target="_top" xlink:title=" ">
<polygon fill="white" stroke="#666666" points="592.75,-95.89 476.25,-95.89 476.25,-63.89 592.75,-63.89 592.75,-95.89"/>
<text text-anchor="start" x="484.25" y="-82.39" font-family="Helvetica,sans-Serif" font-size="10.00">EmotiBitWiFiRoboTEA</text>
<text text-anchor="middle" x="534.5" y="-70.39" font-family="Helvetica,sans-Serif" font-size="10.00">::processAdvertising</text>
</a>
</g>
</g>
<!-- Node1&#45;&gt;Node2 -->
<g id="edge1_Node000001_Node000002" class="edge">
<title>Node1&#45;&gt;Node2</title>
<g id="a_edge1_Node000001_Node000002"><a xlink:title=" ">
<path fill="none" stroke="#63b8ff" d="M653.03,-43.72C633.21,-49.82 609.75,-57.04 589.03,-63.42"/>
<polygon fill="#63b8ff" stroke="#63b8ff" points="653.96,-47.1 662.49,-40.81 651.9,-40.41 653.96,-47.1"/>
</a>
</g>
</g>
<!-- Node5 -->
<g id="Node000005" class="node">
<title>Node5</title>
<g id="a_Node000005"><a xlink:href="class_emoti_bit_wi_fi_robo_t_e_a.html#a668d3244786b7408322174850ca44aaa" target="_top" xlink:title=" ">
<polygon fill="white" stroke="#666666" points="592.75,-45.89 476.25,-45.89 476.25,-13.89 592.75,-13.89 592.75,-45.89"/>
<text text-anchor="start" x="484.25" y="-32.39" font-family="Helvetica,sans-Serif" font-size="10.00">EmotiBitWiFiRoboTEA</text>
<text text-anchor="middle" x="534.5" y="-20.39" font-family="Helvetica,sans-Serif" font-size="10.00">::processRequestData</text>
</a>
</g>
</g>
<!-- Node1&#45;&gt;Node5 -->
<g id="edge4_Node000001_Node000005" class="edge">
<title>Node1&#45;&gt;Node5</title>
<g id="a_edge4_Node000001_Node000005"><a xlink:title=" ">
<path fill="none" stroke="#63b8ff" d="M617.19,-29.89C609.08,-29.89 600.96,-29.89 593.16,-29.89"/>
<polygon fill="#63b8ff" stroke="#63b8ff" points="617.1,-33.39 627.1,-29.89 617.1,-26.39 617.1,-33.39"/>
</a>
</g>
</g>
<!-- Node6 -->
<g id="Node000006" class="node">
<title>Node6</title>
<g id="a_Node000006"><a xlink:href="class_emoti_bit_wi_fi_robo_t_e_a.html#afa6092c5b41153887bc9faf76a775edc" target="_top" xlink:title=" ">
<polygon fill="white" stroke="#666666" points="440.25,-45.89 323.75,-45.89 323.75,-13.89 440.25,-13.89 440.25,-45.89"/>
<text text-anchor="start" x="331.75" y="-32.39" font-family="Helvetica,sans-Serif" font-size="10.00">EmotiBitWiFiRoboTEA</text>
<text text-anchor="middle" x="382" y="-20.39" font-family="Helvetica,sans-Serif" font-size="10.00">::updateData</text>
</a>
</g>
</g>
<!-- Node1&#45;&gt;Node6 -->
<g id="edge8_Node000001_Node000006" class="edge">
<title>Node1&#45;&gt;Node6</title>
<g id="a_edge8_Node000001_Node000006"><a xlink:title=" ">
<path fill="none" stroke="#63b8ff" d="M652.31,-16.58C633.97,-11.89 612.52,-7.2 592.75,-4.89 541.32,1.14 527.58,1.87 476.25,-4.89 462.62,-6.68 448.16,-9.89 434.79,-13.43"/>
<polygon fill="#63b8ff" stroke="#63b8ff" points="651.26,-19.92 661.82,-19.1 653.05,-13.16 651.26,-19.92"/>
</a>
</g>
</g>
<!-- Node3 -->
<g id="Node000003" class="node">
<title>Node3</title>
<g id="a_Node000003"><a xlink:href="class_emoti_bit_wi_fi_robo_t_e_a.html#a69989a151b0cc117dce7b6d1df66f607" target="_top" xlink:title=" ">
<polygon fill="white" stroke="#666666" points="287.75,-95.89 152.5,-95.89 152.5,-63.89 287.75,-63.89 287.75,-95.89"/>
<text text-anchor="start" x="160.5" y="-82.39" font-family="Helvetica,sans-Serif" font-size="10.00">EmotiBitWiFiRoboTEA</text>
<text text-anchor="middle" x="220.12" y="-70.39" font-family="Helvetica,sans-Serif" font-size="10.00">::processAdvertisingThread</text>
</a>
</g>
</g>
<!-- Node2&#45;&gt;Node3 -->
<g id="edge2_Node000002_Node000003" class="edge">
<title>Node2&#45;&gt;Node3</title>
<g id="a_edge2_Node000002_Node000003"><a xlink:title=" ">
<path fill="none" stroke="#63b8ff" d="M464.62,-79.89C412.13,-79.89 340.25,-79.89 288.21,-79.89"/>
<polygon fill="#63b8ff" stroke="#63b8ff" points="464.33,-83.39 474.33,-79.89 464.33,-76.39 464.33,-83.39"/>
</a>
</g>
</g>
<!-- Node4 -->
<g id="Node000004" class="node">
<title>Node4</title>
<g id="a_Node000004"><a xlink:href="class_emoti_bit_wi_fi_robo_t_e_a.html#afb3095e8c8643fae1da87c36e97d745a" target="_top" xlink:title="Inicializa la conexión WiFi con el dispositivo EmotiBit.">
<polygon fill="white" stroke="#666666" points="116.5,-70.89 0,-70.89 0,-38.89 116.5,-38.89 116.5,-70.89"/>
<text text-anchor="start" x="8" y="-57.39" font-family="Helvetica,sans-Serif" font-size="10.00">EmotiBitWiFiRoboTEA</text>
<text text-anchor="middle" x="58.25" y="-45.39" font-family="Helvetica,sans-Serif" font-size="10.00">::begin</text>
</a>
</g>
</g>
<!-- Node3&#45;&gt;Node4 -->
<g id="edge3_Node000003_Node000004" class="edge">
<title>Node3&#45;&gt;Node4</title>
<g id="a_edge3_Node000003_Node000004"><a xlink:title=" ">
<path fill="none" stroke="#63b8ff" d="M140.9,-67.65C132.84,-66.39 124.75,-65.13 116.97,-63.91"/>
<polygon fill="#63b8ff" stroke="#63b8ff" points="140.33,-71.11 150.75,-69.2 141.42,-64.19 140.33,-71.11"/>
</a>
</g>
</g>
<!-- Node5&#45;&gt;Node6 -->
<g id="edge5_Node000005_Node000006" class="edge">
<title>Node5&#45;&gt;Node6</title>
<g id="a_edge5_Node000005_Node000006"><a xlink:title=" ">
<path fill="none" stroke="#63b8ff" d="M464.85,-29.89C456.77,-29.89 448.58,-29.89 440.67,-29.89"/>
<polygon fill="#63b8ff" stroke="#63b8ff" points="464.66,-33.39 474.66,-29.89 464.66,-26.39 464.66,-33.39"/>
</a>
</g>
</g>
<!-- Node7 -->
<g id="Node000007" class="node">
<title>Node7</title>
<g id="a_Node000007"><a xlink:href="class_emoti_bit_wi_fi_robo_t_e_a.html#a19f2caa38c7732e97a4bb4b7327e6358" target="_top" xlink:title=" ">
<polygon fill="white" stroke="#666666" points="278.38,-45.89 161.88,-45.89 161.88,-13.89 278.38,-13.89 278.38,-45.89"/>
<text text-anchor="start" x="169.88" y="-32.39" font-family="Helvetica,sans-Serif" font-size="10.00">EmotiBitWiFiRoboTEA</text>
<text text-anchor="middle" x="220.12" y="-20.39" font-family="Helvetica,sans-Serif" font-size="10.00">::updateDataThread</text>
</a>
</g>
</g>
<!-- Node6&#45;&gt;Node7 -->
<g id="edge6_Node000006_Node000007" class="edge">
<title>Node6&#45;&gt;Node7</title>
<g id="a_edge6_Node000006_Node000007"><a xlink:title=" ">
<path fill="none" stroke="#63b8ff" d="M311.9,-29.89C300.85,-29.89 289.51,-29.89 278.76,-29.89"/>
<polygon fill="#63b8ff" stroke="#63b8ff" points="311.77,-33.39 321.77,-29.89 311.77,-26.39 311.77,-33.39"/>
</a>
</g>
</g>
<!-- Node7&#45;&gt;Node4 -->
<g id="edge7_Node000007_Node000004" class="edge">
<title>Node7&#45;&gt;Node4</title>
<g id="a_edge7_Node000007_Node000004"><a xlink:title=" ">
<path fill="none" stroke="#63b8ff" d="M150.37,-40.64C139.21,-42.38 127.75,-44.18 116.88,-45.87"/>
<polygon fill="#63b8ff" stroke="#63b8ff" points="150.57,-44.15 159.91,-39.15 149.49,-37.23 150.57,-44.15"/>
</a>
</g>
</g>
</g>
</svg>
