<?xml version="1.0" encoding="UTF-8" standalone="no"?>
<!DOCTYPE svg PUBLIC "-//W3C//DTD SVG 1.1//EN"
 "http://www.w3.org/Graphics/SVG/1.1/DTD/svg11.dtd">
<!-- Generated by graphviz version 12.2.1 (20241206.2353)
 -->
<!-- Title: EmotiBitController Pages: 1 -->
<svg width="206pt" height="368pt"
 viewBox="0.00 0.00 205.75 368.00" xmlns="http://www.w3.org/2000/svg" xmlns:xlink="http://www.w3.org/1999/xlink">

<svg id="main" version="1.1" xmlns="http://www.w3.org/2000/svg" xmlns:xlink="http://www.w3.org/1999/xlink" xml:space="preserve">

<style type="text/css"><![CDATA[
.node, .edge {opacity: 0.7;}
.node.selected, .edge.selected {opacity: 1;}
.edge:hover path { stroke: red; }
.edge:hover polygon { stroke: red; fill: red; }
]]></style>
<script type="application/ecmascript" xlink:href="svg.min.js"/>
<svg id="graph" class="graph">
<g id="graph0" class="graph" transform="scale(1 1) rotate(0) translate(4 364)">
<title>EmotiBitController</title>
<!-- Node1 -->
<g id="Node000001" class="node">
<title>Node1</title>
<g id="a_Node000001"><a xlink:title="Gestiona dispositivos EmotiBit a través de WiFi.">
<polygon fill="#999999" stroke="none" points="132.25,-212 7.75,-212 7.75,0 132.25,0 132.25,-212"/>
<text text-anchor="start" x="30.25" y="-198.5" font-family="Helvetica,sans-Serif" font-size="10.00">EmotiBitController</text>
<text text-anchor="start" x="68.5" y="-182.5" font-family="Helvetica,sans-Serif" font-size="10.00"> </text>
<text text-anchor="start" x="11.75" y="-166.5" font-family="Helvetica,sans-Serif" font-size="10.00">+</text>
<text text-anchor="start" x="21.75" y="-166.5" font-family="Helvetica,sans-Serif" font-size="10.00">EmotiBitController()</text>
<text text-anchor="start" x="11.75" y="-150.5" font-family="Helvetica,sans-Serif" font-size="10.00">+</text>
<text text-anchor="start" x="21.75" y="-150.5" font-family="Helvetica,sans-Serif" font-size="10.00">~EmotiBitController()</text>
<text text-anchor="start" x="11.75" y="-134.5" font-family="Helvetica,sans-Serif" font-size="10.00">+</text>
<text text-anchor="start" x="21.75" y="-134.5" font-family="Helvetica,sans-Serif" font-size="10.00">begin()</text>
<text text-anchor="start" x="11.75" y="-118.5" font-family="Helvetica,sans-Serif" font-size="10.00">+</text>
<text text-anchor="start" x="21.75" y="-118.5" font-family="Helvetica,sans-Serif" font-size="10.00">stop()</text>
<text text-anchor="start" x="11.75" y="-102.5" font-family="Helvetica,sans-Serif" font-size="10.00">+</text>
<text text-anchor="start" x="21.75" y="-102.5" font-family="Helvetica,sans-Serif" font-size="10.00">discoverDevices()</text>
<text text-anchor="start" x="11.75" y="-86.5" font-family="Helvetica,sans-Serif" font-size="10.00">+</text>
<text text-anchor="start" x="21.75" y="-86.5" font-family="Helvetica,sans-Serif" font-size="10.00">getAvailableDeviceIds()</text>
<text text-anchor="start" x="11.75" y="-70.5" font-family="Helvetica,sans-Serif" font-size="10.00">+</text>
<text text-anchor="start" x="21.75" y="-70.5" font-family="Helvetica,sans-Serif" font-size="10.00">getDiscoveredDevices()</text>
<text text-anchor="start" x="11.75" y="-54.5" font-family="Helvetica,sans-Serif" font-size="10.00">+</text>
<text text-anchor="start" x="21.75" y="-54.5" font-family="Helvetica,sans-Serif" font-size="10.00">connectToDevice()</text>
<text text-anchor="start" x="11.75" y="-38.5" font-family="Helvetica,sans-Serif" font-size="10.00">+</text>
<text text-anchor="start" x="21.75" y="-38.5" font-family="Helvetica,sans-Serif" font-size="10.00">disconnectFromDevice()</text>
<text text-anchor="start" x="11.75" y="-22.5" font-family="Helvetica,sans-Serif" font-size="10.00">+</text>
<text text-anchor="start" x="21.75" y="-22.5" font-family="Helvetica,sans-Serif" font-size="10.00">startRecordingOnSD()</text>
<text text-anchor="start" x="21.75" y="-6.5" font-family="Helvetica,sans-Serif" font-size="10.00">and 6 more...</text>
<polygon fill="#666666" stroke="#666666" points="7.75,-194 7.75,-194 132.25,-194 132.25,-194 7.75,-194"/>
<polygon fill="#666666" stroke="#666666" points="7.75,-178 7.75,-178 132.25,-178 132.25,-178 7.75,-178"/>
<polygon fill="none" stroke="#666666" points="7.75,0 7.75,-212 132.25,-212 132.25,0 7.75,0"/>
</a>
</g>
</g>
<!-- Node2 -->
<g id="Node000002" class="node">
<title>Node2</title>
<g id="a_Node000002"><a xlink:title=" ">
<polygon fill="white" stroke="none" points="44,-336 0,-336 0,-284 44,-284 44,-336"/>
<text text-anchor="start" x="4" y="-322.5" font-family="Helvetica,sans-Serif" font-size="10.00">QObject</text>
<text text-anchor="start" x="20.5" y="-306.5" font-family="Helvetica,sans-Serif" font-size="10.00"> </text>
<text text-anchor="start" x="20.5" y="-290.5" font-family="Helvetica,sans-Serif" font-size="10.00"> </text>
<polygon fill="#666666" stroke="#666666" points="0,-318 0,-318 44,-318 44,-318 0,-318"/>
<polygon fill="#666666" stroke="#666666" points="0,-302 0,-302 44,-302 44,-302 0,-302"/>
<polygon fill="none" stroke="#666666" points="0,-284 0,-336 44,-336 44,-284 0,-284"/>
</a>
</g>
</g>
<!-- Node2&#45;&gt;Node1 -->
<g id="edge1_Node000001_Node000002" class="edge">
<title>Node2&#45;&gt;Node1</title>
<g id="a_edge1_Node000001_Node000002"><a xlink:title=" ">
<path fill="none" stroke="#63b8ff" d="M30.44,-273.49C34.58,-256.07 39.8,-234.08 45.09,-211.85"/>
<polygon fill="none" stroke="#63b8ff" points="27.14,-272.22 28.24,-282.76 33.95,-273.84 27.14,-272.22"/>
</a>
</g>
</g>
<!-- Node3 -->
<g id="Node000003" class="node">
<title>Node3</title>
<g id="a_Node000003"><a xlink:href="class_channel_frequencies.html" target="_top" xlink:title=" ">
<polygon fill="white" stroke="none" points="175.62,-360 62.38,-360 62.38,-260 175.62,-260 175.62,-360"/>
<text text-anchor="start" x="74.38" y="-346.5" font-family="Helvetica,sans-Serif" font-size="10.00">ChannelFrequencies</text>
<text text-anchor="start" x="117.5" y="-330.5" font-family="Helvetica,sans-Serif" font-size="10.00"> </text>
<text text-anchor="start" x="66.38" y="-314.5" font-family="Helvetica,sans-Serif" font-size="10.00">+</text>
<text text-anchor="start" x="76.38" y="-314.5" font-family="Helvetica,sans-Serif" font-size="10.00">ChannelFrequencies()</text>
<text text-anchor="start" x="66.38" y="-298.5" font-family="Helvetica,sans-Serif" font-size="10.00">+</text>
<text text-anchor="start" x="76.38" y="-298.5" font-family="Helvetica,sans-Serif" font-size="10.00">getFrequency()</text>
<text text-anchor="start" x="66.38" y="-282.5" font-family="Helvetica,sans-Serif" font-size="10.00">+</text>
<text text-anchor="start" x="76.38" y="-282.5" font-family="Helvetica,sans-Serif" font-size="10.00">contains()</text>
<text text-anchor="start" x="66.38" y="-266.5" font-family="Helvetica,sans-Serif" font-size="10.00">+</text>
<text text-anchor="start" x="76.38" y="-266.5" font-family="Helvetica,sans-Serif" font-size="10.00">getAllFrequencies()</text>
<polygon fill="#666666" stroke="#666666" points="62.38,-342 62.38,-342 175.62,-342 175.62,-342 62.38,-342"/>
<polygon fill="#666666" stroke="#666666" points="62.38,-326 62.38,-326 175.62,-326 175.62,-326 62.38,-326"/>
<polygon fill="none" stroke="#666666" points="62.38,-260 62.38,-360 175.62,-360 175.62,-260 62.38,-260"/>
</a>
</g>
</g>
<!-- Node3&#45;&gt;Node1 -->
<g id="edge2_Node000001_Node000003" class="edge">
<title>Node3&#45;&gt;Node1</title>
<g id="a_edge2_Node000001_Node000003"><a xlink:title=" ">
<path fill="none" stroke="#63b8ff" d="M107.14,-260.1C104.46,-249.07 101.51,-236.89 98.47,-224.37"/>
<polygon fill="none" stroke="#63b8ff" points="98.45,-224.3 93.15,-219.41 95.63,-212.64 100.93,-217.53 98.45,-224.3"/>
</a>
</g>
<text text-anchor="middle" x="149.75" y="-232.5" font-family="Helvetica,sans-Serif" font-size="10.00" fill="grey"> +channelFrequencies</text>
</g>
</g>
</svg>
</svg>

<style type='text/css'>
<![CDATA[
[data-mouse-over-selected='false'] { opacity: 0.7; }
[data-mouse-over-selected='true']  { opacity: 1.0; }
]]>
</style>
<script type="application/ecmascript"><![CDATA[
document.addEventListener('DOMContentLoaded', (event) => {
  highlightEdges();
  highlightAdjacentNodes();
});
]]></script>
</svg>
