<?xml version="1.0" encoding="UTF-8" standalone="no"?>
<!DOCTYPE svg PUBLIC "-//W3C//DTD SVG 1.1//EN"
 "http://www.w3.org/Graphics/SVG/1.1/DTD/svg11.dtd">
<!-- Generated by graphviz version 12.2.1 (20241206.2353)
 -->
<!-- Title: Graphical Class Hierarchy Pages: 1 -->
<svg width="197pt" height="66pt"
 viewBox="0.00 0.00 196.75 66.00" xmlns="http://www.w3.org/2000/svg" xmlns:xlink="http://www.w3.org/1999/xlink">
<g id="graph0" class="graph" transform="scale(1 1) rotate(0) translate(4 62)">
<title>Graphical Class Hierarchy</title>
<!-- Node0 -->
<g id="Node000000" class="node">
<title>Node0</title>
<g id="a_Node000000"><a xlink:title=" ">
<polygon fill="#e0e0e0" stroke="#999999" points="54.25,-39 0,-39 0,-19 54.25,-19 54.25,-39"/>
<text text-anchor="middle" x="27.12" y="-25.5" font-family="Helvetica,sans-Serif" font-size="10.00">QWidget</text>
</a>
</g>
</g>
<!-- Node1 -->
<g id="Node000001" class="node">
<title>Node1</title>
<g id="a_Node000001"><a xlink:href="class_form_plot.html" target="_top" xlink:title="Constructor de la clase FormPlot.Esta clase escucha señales de FormVistaEmotiBit.">
<polygon fill="white" stroke="#666666" points="167.38,-58 111.62,-58 111.62,-38 167.38,-38 167.38,-58"/>
<text text-anchor="middle" x="139.5" y="-44.5" font-family="Helvetica,sans-Serif" font-size="10.00">FormPlot</text>
</a>
</g>
</g>
<!-- Node0&#45;&gt;Node1 -->
<g id="edge4_Node000000_Node000001" class="edge">
<title>Node0&#45;&gt;Node1</title>
<g id="a_edge4_Node000000_Node000001"><a xlink:title=" ">
<path fill="none" stroke="#63b8ff" d="M65.53,-35.44C80.47,-38.01 97.36,-40.92 111.13,-43.29"/>
<polygon fill="#63b8ff" stroke="#63b8ff" points="66.5,-32.06 56.05,-33.81 65.32,-38.95 66.5,-32.06"/>
</a>
</g>
</g>
<!-- Node2 -->
<g id="Node000002" class="node">
<title>Node2</title>
<g id="a_Node000002"><a xlink:href="class_form_vista_emoti_bit.html" target="_top" xlink:title="Clase principal para gestionar la interfaz gráfica del Emotibit.">
<polygon fill="white" stroke="#666666" points="188.75,-20 90.25,-20 90.25,0 188.75,0 188.75,-20"/>
<text text-anchor="middle" x="139.5" y="-6.5" font-family="Helvetica,sans-Serif" font-size="10.00">FormVistaEmotiBit</text>
</a>
</g>
</g>
<!-- Node0&#45;&gt;Node2 -->
<g id="edge5_Node000000_Node000002" class="edge">
<title>Node0&#45;&gt;Node2</title>
<g id="a_edge5_Node000000_Node000002"><a xlink:title=" ">
<path fill="none" stroke="#63b8ff" d="M65.8,-22.51C73.53,-21.18 81.77,-19.77 89.82,-18.38"/>
<polygon fill="#63b8ff" stroke="#63b8ff" points="65.32,-19.05 56.05,-24.19 66.5,-25.94 65.32,-19.05"/>
</a>
</g>
</g>
</g>
</svg>
