<?xml version="1.0" encoding="UTF-8" standalone="no"?>
<!DOCTYPE svg PUBLIC "-//W3C//DTD SVG 1.1//EN"
 "http://www.w3.org/Graphics/SVG/1.1/DTD/svg11.dtd">
<!-- Generated by graphviz version 12.2.1 (20241206.2353)
 -->
<!-- Title: Graphical Class Hierarchy Pages: 1 -->
<svg width="213pt" height="66pt"
 viewBox="0.00 0.00 212.50 66.00" xmlns="http://www.w3.org/2000/svg" xmlns:xlink="http://www.w3.org/1999/xlink">
<g id="graph0" class="graph" transform="scale(1 1) rotate(0) translate(4 62)">
<title>Graphical Class Hierarchy</title>
<!-- Node0 -->
<g id="Node000000" class="node">
<title>Node0</title>
<g id="a_Node000000"><a xlink:title=" ">
<polygon fill="#e0e0e0" stroke="#999999" points="52,-39 0,-39 0,-19 52,-19 52,-39"/>
<text text-anchor="middle" x="26" y="-25.5" font-family="Helvetica,sans-Serif" font-size="10.00">QObject</text>
</a>
</g>
</g>
<!-- Node1 -->
<g id="Node000001" class="node">
<title>Node1</title>
<g id="a_Node000001"><a xlink:href="class_emoti_bit_controller.html" target="_top" xlink:title="Gestiona dispositivos EmotiBit a través de WiFi.">
<polygon fill="white" stroke="#666666" points="194,-58 98.5,-58 98.5,-38 194,-38 194,-58"/>
<text text-anchor="middle" x="146.25" y="-44.5" font-family="Helvetica,sans-Serif" font-size="10.00">EmotiBitController</text>
</a>
</g>
</g>
<!-- Node0&#45;&gt;Node1 -->
<g id="edge2_Node000000_Node000001" class="edge">
<title>Node0&#45;&gt;Node1</title>
<g id="a_edge2_Node000000_Node000001"><a xlink:title=" ">
<path fill="none" stroke="#63b8ff" d="M63.73,-34.9C74.72,-36.67 86.91,-38.63 98.46,-40.48"/>
<polygon fill="#63b8ff" stroke="#63b8ff" points="64.29,-31.45 53.86,-33.32 63.18,-38.36 64.29,-31.45"/>
</a>
</g>
</g>
<!-- Node2 -->
<g id="Node000002" class="node">
<title>Node2</title>
<g id="a_Node000002"><a xlink:href="class_emoti_bit_wi_fi_robo_t_e_a.html" target="_top" xlink:title=" ">
<polygon fill="white" stroke="#666666" points="204.5,-20 88,-20 88,0 204.5,0 204.5,-20"/>
<text text-anchor="middle" x="146.25" y="-6.5" font-family="Helvetica,sans-Serif" font-size="10.00">EmotiBitWiFiRoboTEA</text>
</a>
</g>
</g>
<!-- Node0&#45;&gt;Node2 -->
<g id="edge3_Node000000_Node000002" class="edge">
<title>Node0&#45;&gt;Node2</title>
<g id="a_edge3_Node000000_Node000002"><a xlink:title=" ">
<path fill="none" stroke="#63b8ff" d="M63.53,-23.13C71.25,-21.89 79.57,-20.55 87.85,-19.22"/>
<polygon fill="#63b8ff" stroke="#63b8ff" points="63.18,-19.64 53.86,-24.68 64.29,-26.55 63.18,-19.64"/>
</a>
</g>
</g>
</g>
</svg>
